<?xml version="1.0" encoding="utf-8"?>
<!-- Generator: Adobe Illustrator 16.0.0, SVG Export Plug-In . SVG Version: 6.00 Build 0)  -->
<!DOCTYPE svg PUBLIC "-//W3C//DTD SVG 1.1//EN" "http://www.w3.org/Graphics/SVG/1.1/DTD/svg11.dtd">
<svg version="1.1" id="Capa_1" xmlns="http://www.w3.org/2000/svg" xmlns:xlink="http://www.w3.org/1999/xlink" x="0px" y="0px"
	 width="362px" height="357px" viewBox="0 0 362 357" enable-background="new 0 0 362 357" xml:space="preserve">
<g>
	<g>
		<g>
			<path fill="#C4C6C8" d="M138.651,196.816c0,7.719-6.257,13.975-13.978,13.975H27.611c-7.719,0-13.977-6.256-13.977-13.975V86.549
				c0-7.72,6.258-13.977,13.977-13.977h97.063c7.721,0,13.978,6.257,13.978,13.977V196.816z"/>
			<path fill="#FFFFFF" d="M137.253,195.061c0,7.719-6.259,13.979-13.978,13.979H26.214c-7.72,0-13.979-6.26-13.979-13.979V84.799
				c0-7.72,6.259-13.979,13.979-13.979h97.062c7.719,0,13.978,6.26,13.978,13.979V195.061z"/>
			<path fill="#00507D" d="M137.253,91.786v-6.987c0-7.72-6.259-13.979-13.978-13.979H26.214c-7.72,0-13.979,6.26-13.979,13.979
				v6.987H137.253z"/>
			<path fill="#FFFFFF" d="M110.465,85.888c0,0.629-0.512,1.145-1.143,1.145h-7.617c-0.629,0-1.141-0.516-1.141-1.145V78.27
				c0-0.629,0.512-1.138,1.141-1.138h7.617c0.631,0,1.143,0.509,1.143,1.138V85.888z"/>
			<path fill="#FFFFFF" d="M124.83,85.888c0,0.629-0.512,1.145-1.145,1.145h-7.614c-0.63,0-1.144-0.516-1.144-1.145V78.27
				c0-0.629,0.514-1.138,1.144-1.138h7.614c0.633,0,1.145,0.509,1.145,1.138V85.888z"/>
			<path fill="#FFFFFF" d="M93.961,82.083c0,2.732-2.213,4.95-4.947,4.95H24.952c-2.735,0-4.95-2.218-4.95-4.95l0,0
				c0-2.736,2.215-4.951,4.95-4.951h64.062C91.748,77.132,93.961,79.346,93.961,82.083L93.961,82.083z"/>
			<g>
				<g>
					<defs>
						<path id="SVGID_1_" d="M81.735,134.562c0,16.567-13.429,29.997-29.991,29.997c-16.566,0-29.995-13.43-29.995-29.997
							c0-16.563,13.429-29.993,29.995-29.993C68.307,104.568,81.735,117.999,81.735,134.562z"/>
					</defs>
					<use xlink:href="#SVGID_1_"  overflow="visible" fill="#D1D3D4"/>
					<clipPath id="SVGID_2_">
						<use xlink:href="#SVGID_1_"  overflow="visible"/>
					</clipPath>
					<g clip-path="url(#SVGID_2_)">
						<path fill="#752420" d="M66.75,151.8c0.946,4.425-30.249,3.944-30.249,0c4.872-8.411,0.159-14.03-0.409-25.114
							c-0.566-11.084,29.852-8.09,30.488,0C67.21,134.778,62.498,145.906,66.75,151.8z"/>
						<path fill="#FAB38E" d="M61.296,172.517h4.479l-0.116-1.583c0,0-0.487-13.892-1.021-17.792
							c-0.536-3.901-3.61-3.859-3.61-3.859l-2.234,6.539c0,0,1.981,12.347,2.225,14.989
							C61.055,171.189,61.152,171.783,61.296,172.517z"/>
						<path fill="#FAB38E" d="M40.37,172.517c0.163-0.807,0.273-1.454,0.312-1.856c0.242-2.641,2.226-14.989,2.226-14.989
							l-2.235-6.542c0,0-3.074-0.04-3.61,3.863c-0.535,3.898-1.021,17.789-1.021,17.789l-0.129,1.735H40.37z"/>
						<path fill="#F04F4B" d="M41.189,167.11l1.205,5.406H59.33l1.796-5.406c0,0,2.838-2.101,2.811-4.051
							c-0.026-1.945-3.616-7.242-3.616-7.242l1.25-6.678l-5.352-2.525H45.816l-5.233,2.407l1.083,6.796c0,0-2.914,5.132-2.953,7.242
							C38.672,165.174,41.189,167.11,41.189,167.11z"/>
						<path fill="#FAB38E" d="M56.219,146.615c0,0,1.888,7.393,0.866,9.285c-1.147,2.128-10.448,1.95-11.698,0
							c-1.25-1.949,0.43-9.285,0.43-9.285l1.602-0.082v-7.8h7.149v7.473L56.219,146.615z"/>
						<path fill="#D99279" d="M53.369,145.465c0.417-0.118,0.814-0.265,1.198-0.424v-6.308h-7.149v5.69
							C49.313,145.315,51.16,146.087,53.369,145.465z"/>
						<path fill="#FAB38E" d="M66.631,134.437c-0.98,0.411-2.115-0.29-2.115-0.29s-5.039,0.261-5.039-1.052c0-1.318,0-2.055,0-4.396
							c0-3.133,5.039-2.82,5.039-2.82s1.137-1.593,2.662-0.506C69.584,127.091,68.519,133.643,66.631,134.437z"/>
						<path fill="#FAB38E" d="M36.861,134.437c0.982,0.411,2.117-0.29,2.117-0.29s5.037,0.261,5.037-1.052c0-1.318,0-2.055,0-4.396
							c0-3.133-5.037-2.82-5.037-2.82s-1.137-1.593-2.662-0.506C33.909,127.091,34.973,133.643,36.861,134.437z"/>
						<path fill="#FAB38E" d="M64.638,132.642c0,5.829-8.444,12.292-12.97,12.292c-4.975,0-12.964-6.877-12.964-12.658
							c0-6.823,0-6.823,0-12.189c0-17.217,25.934-18.358,25.934,0C64.638,131.787,64.638,124.272,64.638,132.642z"/>
						<path fill="#752420" d="M39.49,126.059c-0.088-1.64,2.631-2.956,2.903-8.94c2.257,1.253,13.194,7.668,21.446,8.906
							c-0.092,3.469,0.73,4.596,0.969,5.601c0,0,0.02-2.999,0-4.542c-0.02-1.542,1.941-2.088,1.941-2.088v-5.312
							c0-2.854-2.922-16.101-15.146-12.999c-11.648-2.695-16.924,9.525-16.679,12.534c0.241,3.008,0.571,7.084,0.571,7.084
							s2.666-2.478,3.029,0.936c0.199,1.836,0.042,3.777,1.369,4.083C39.723,129.676,39.608,128.152,39.49,126.059z"/>
						<polygon fill="#D99279" points="51.426,126.951 51.426,135.488 52.928,134.31 						"/>
						<path fill="#752420" d="M49.172,125.273c0,0-2.295-1.542-3.76-1.055c-1.461,0.487-3.287,2.068-3.287,2.068l-0.203-0.755
							c0,0,1.369-1.656,3.354-1.813C47.266,123.549,49.172,125.273,49.172,125.273z"/>
						<g>
							<path fill="#CF3C3B" d="M47.901,138.487c0,0,1.212,1.164,1.9,1.211c0.69,0.046,3.208,0.157,4.056-0.129
								c0.286-0.096,1.295-1.057,1.295-1.057s-2.903-0.143-3.426-0.166C51.203,138.319,47.901,138.487,47.901,138.487z"/>
							<path fill="#EF4645" d="M45.979,137.591c0,0,1.781,0.644,2.494,0.565c0.712-0.082,1.905-1.085,2.191-0.961
								c0.283,0.118,0.995,0.417,0.995,0.417s0.929-0.467,1.214-0.417c0.283,0.046,1.762,1.03,2.279,0.961
								c0.514-0.074,1.719-0.565,1.719-0.565s-1.49,0.986-2.084,1.165c-1.096,0.325-2.271-0.017-3.053-0.066
								c-0.938-0.061-2.301,0.6-3.371,0.034C47.295,138.163,45.979,137.591,45.979,137.591z"/>
						</g>
						<path fill="#752420" d="M54.32,125.13c0,0,2.295-1.547,3.756-1.059c1.464,0.49,3.295,2.071,3.295,2.071l0.199-0.759
							c0,0-1.364-1.656-3.355-1.816C56.227,123.402,54.32,125.13,54.32,125.13z"/>
						<g>
							<path fill="#2C1216" d="M57.506,126.557c1.674,0,1.417,1.243,1.951,1.578c0.148-0.093,1.065-0.399,1.065-0.399
								s-0.884-1.483-3.017-1.483c-2.131,0-2.928,1.454-2.928,1.454s0.332,0,0.478,0.092
								C55.592,127.462,55.837,126.557,57.506,126.557z"/>
							<path fill="#FFFFFF" d="M60.119,127.736c0,0-0.345,1.261-2.48,1.261c-2.132,0-3.01-1.29-3.01-1.29s0.878-1.23,3.01-1.23
								C59.774,126.477,60.119,127.736,60.119,127.736z"/>
							<g>
								<path fill="#2C1216" d="M56.178,127.711c0,0.502,0.246,0.948,0.623,1.218c0.271,0.043,0.552,0.068,0.838,0.068
									c0.291,0,0.57-0.025,0.84-0.068c0.377-0.27,0.624-0.715,0.624-1.218c0-0.506-0.247-0.948-0.624-1.222
									c-0.27-0.04-0.549-0.064-0.84-0.064c-0.286,0-0.566,0.025-0.838,0.064C56.424,126.763,56.178,127.205,56.178,127.711z"/>
							</g>
							<circle fill="#190000" cx="57.64" cy="127.736" r="0.595"/>
							<path fill="#FFFFFF" d="M57.483,127.173c0,0.146-0.124,0.264-0.271,0.264c-0.148,0-0.266-0.118-0.266-0.264
								c0-0.151,0.117-0.269,0.266-0.269C57.359,126.904,57.483,127.022,57.483,127.173z"/>
							<path fill="#FFFFFF" d="M57.652,127.752c0,0.079-0.061,0.141-0.141,0.141c-0.076,0-0.139-0.062-0.139-0.141
								c0-0.075,0.063-0.14,0.139-0.14C57.592,127.612,57.652,127.677,57.652,127.752z"/>
						</g>
						<g>
							<path fill="#2C1216" d="M45.986,126.557c-1.673,0-1.416,1.243-1.947,1.578c-0.149-0.093-1.068-0.399-1.068-0.399
								s0.884-1.483,3.016-1.483c2.129,0,2.93,1.454,2.93,1.454s-0.334,0-0.477,0.092C47.901,127.462,47.66,126.557,45.986,126.557z
								"/>
							<path fill="#FFFFFF" d="M43.377,127.736c0,0,0.344,1.261,2.477,1.261c2.131,0,3.012-1.29,3.012-1.29s-0.881-1.23-3.012-1.23
								C43.721,126.477,43.377,127.736,43.377,127.736z"/>
							<g>
								<path fill="#2C1216" d="M47.316,127.711c0,0.502-0.246,0.948-0.623,1.218c-0.271,0.043-0.553,0.068-0.84,0.068
									c-0.289,0-0.568-0.025-0.839-0.068c-0.378-0.27-0.622-0.715-0.622-1.218c0-0.506,0.244-0.948,0.622-1.222
									c0.271-0.04,0.55-0.064,0.839-0.064c0.287,0,0.568,0.025,0.84,0.064C47.07,126.763,47.316,127.205,47.316,127.711z"/>
							</g>
							<path fill="#190000" d="M45.26,127.736c0,0.328,0.264,0.595,0.594,0.595c0.332,0,0.593-0.268,0.593-0.595
								s-0.261-0.596-0.593-0.596C45.523,127.14,45.26,127.408,45.26,127.736z"/>
							<path fill="#FFFFFF" d="M46.012,127.173c0,0.146,0.12,0.264,0.27,0.264c0.146,0,0.266-0.118,0.266-0.264
								c0-0.151-0.12-0.269-0.266-0.269C46.132,126.904,46.012,127.022,46.012,127.173z"/>
							<path fill="#FFFFFF" d="M45.842,127.752c0,0.079,0.063,0.141,0.141,0.141c0.074,0,0.141-0.062,0.141-0.141
								c0-0.075-0.066-0.14-0.141-0.14C45.904,127.612,45.842,127.677,45.842,127.752z"/>
						</g>
					</g>
				</g>
			</g>
			<rect x="86.691" y="106.786" fill="#A7A9AC" width="40.272" height="7.619"/>
			<rect x="86.691" y="119.848" fill="#D1D3D4" width="40.272" height="3.809"/>
			<rect x="86.691" y="127.646" fill="#D1D3D4" width="40.272" height="3.808"/>
			<rect x="86.691" y="135.445" fill="#D1D3D4" width="40.272" height="3.811"/>
			<rect x="86.691" y="143.242" fill="#D1D3D4" width="40.272" height="3.812"/>
			<rect x="86.691" y="151.046" fill="#D1D3D4" width="40.272" height="3.806"/>
			<rect x="86.691" y="158.843" fill="#D1D3D4" width="40.272" height="3.813"/>
			<rect x="27.191" y="174.813" fill="#D1D3D4" width="99.772" height="3.809"/>
			<rect x="27.191" y="184.246" fill="#D1D3D4" width="99.772" height="3.807"/>
		</g>
	</g>
	<g>
		<path fill="#BCBEC0" d="M344.267,126.315c-2.072-3.105-5.607-5.153-9.621-5.153h-80.279c-6.387,0-11.563,5.177-11.563,11.563
			v5.778v85.419c0,3.04,1.184,5.798,3.102,7.86c2.072,3.104,5.605,5.149,9.617,5.149h80.281c6.385,0,11.563-5.174,11.563-11.558
			v-91.202C347.366,131.134,346.185,128.378,344.267,126.315z"/>
		<g>
			<path fill="#C4C6C8" d="M352.033,222.707c0,6.384-5.179,11.558-11.563,11.558H260.19c-6.385,0-11.561-5.174-11.561-11.558
				v-91.202c0-6.384,5.176-11.559,11.561-11.559h80.279c6.385,0,11.563,5.175,11.563,11.559V222.707z"/>
			<path fill="#FFFFFF" d="M350.874,221.255c0,6.387-5.175,11.562-11.563,11.562h-80.277c-6.387,0-11.563-5.175-11.563-11.562
				v-91.197c0-6.386,5.176-11.563,11.563-11.563h80.277c6.388,0,11.563,5.177,11.563,11.563V221.255z"/>
			<path fill="#00507D" d="M350.874,135.836v-5.778c0-6.386-5.175-11.563-11.563-11.563h-80.277
				c-6.387,0-11.563,5.177-11.563,11.563v5.778H350.874z"/>
			<path fill="#FFFFFF" d="M328.718,130.956c0,0.522-0.422,0.948-0.945,0.948h-6.301c-0.521,0-0.943-0.426-0.943-0.948v-6.299
				c0-0.52,0.422-0.941,0.943-0.941h6.301c0.523,0,0.945,0.422,0.945,0.941V130.956z"/>
			<path fill="#FFFFFF" d="M340.599,130.956c0,0.522-0.424,0.948-0.945,0.948h-6.299c-0.521,0-0.943-0.426-0.943-0.948v-6.299
				c0-0.52,0.422-0.941,0.943-0.941h6.299c0.521,0,0.945,0.422,0.945,0.941V130.956z"/>
			<path fill="#FFFFFF" d="M315.069,127.811c0,2.26-1.832,4.094-4.094,4.094h-52.984c-2.264,0-4.096-1.834-4.096-4.094l0,0
				c0-2.265,1.832-4.095,4.096-4.095h52.984C313.237,123.716,315.069,125.546,315.069,127.811L315.069,127.811z"/>
			<g>
				<g>
					<defs>
						<path id="SVGID_3_" d="M304.956,171.218c0,13.701-11.105,24.809-24.807,24.809c-13.705,0-24.809-11.107-24.809-24.809
							c0-13.698,11.104-24.807,24.809-24.807C293.851,146.411,304.956,157.52,304.956,171.218z"/>
					</defs>
					<use xlink:href="#SVGID_3_"  overflow="visible" fill="#D1D3D4"/>
					<clipPath id="SVGID_4_">
						<use xlink:href="#SVGID_3_"  overflow="visible"/>
					</clipPath>
					<g clip-path="url(#SVGID_4_)">
						<path fill="#4C301F" d="M284.956,194.095c0.855,4.015-12.402,1.143-12.402-2.432c4.424-7.635-6.279-8.215-6.607-24.769
							c-0.199-10.068,27.578-7.364,27.658,0C293.763,181.556,281.095,188.748,284.956,194.095z"/>
						<path fill="#996743" d="M288.813,208.477h4.063l-0.107-1.438c0,0-0.441-12.604-0.928-16.144
							c-0.484-3.539-3.273-3.501-3.273-3.501l-2.025,5.935c0,0,1.797,11.199,2.02,13.599
							C288.591,207.271,288.683,207.81,288.813,208.477z"/>
						<path fill="#996743" d="M269.829,208.477c0.145-0.731,0.246-1.321,0.279-1.688c0.219-2.396,2.018-13.599,2.018-13.599
							l-2.027-5.935c0,0-2.789-0.037-3.273,3.503c-0.486,3.537-0.928,16.141-0.928,16.141l-0.117,1.577H269.829z"/>
						<path fill="#3BBFBF" d="M270.569,203.57l1.092,4.906h15.367l1.631-4.906c0,0,2.572-1.905,2.551-3.675
							c-0.025-1.767-3.283-6.569-3.283-6.569l1.135-6.06l-4.855-2.295h-9.436l-4.754,2.187l0.986,6.168c0,0-2.645,4.654-2.679,6.569
							C268.286,201.81,270.569,203.57,270.569,203.57z"/>
						<path fill="#996743" d="M284.206,184.972c0,0,1.715,6.709,0.783,8.428c-1.039,1.93-9.479,1.77-10.611,0
							s0.393-8.428,0.393-8.428l1.451-0.072v-7.074h6.486v6.777L284.206,184.972z"/>
						<path fill="#7D5435" d="M281.622,183.931c0.377-0.106,0.738-0.239,1.086-0.385v-5.721h-6.486v5.165
							C277.94,183.795,279.616,184.494,281.622,183.931z"/>
						<path fill="#996743" d="M293.651,173.926c-0.891,0.37-1.918-0.267-1.918-0.267s-4.57,0.237-4.57-0.953
							c0-1.191,0-1.865,0-3.986c0-2.842,4.57-2.563,4.57-2.563s1.031-1.441,2.416-0.455
							C296.333,167.259,295.366,173.207,293.651,173.926z"/>
						<path fill="#996743" d="M266.644,173.926c0.891,0.37,1.922-0.267,1.922-0.267s4.568,0.237,4.568-0.953
							c0-1.191,0-1.865,0-3.986c0-2.842-4.568-2.563-4.568-2.563s-1.035-1.441-2.418-0.455
							C263.964,167.259,264.929,173.207,266.644,173.926z"/>
						<path fill="#996743" d="M291.841,172.293c0,5.292-7.66,11.155-11.764,11.155c-4.516,0-11.764-6.238-11.764-11.483
							c0-6.191,0-6.191,0-11.057c0-15.63,23.527-16.66,23.527,0C291.841,171.521,291.841,164.702,291.841,172.293z"/>
						<path fill="#4C301F" d="M269.028,166.325c-0.082-1.49,8.301-3.54,10.584-10.048c2.215,5.604,4.023,8.89,11.51,10.014
							c-0.084,3.146,0.661,4.169,0.877,5.082c0,0,0.018-2.72,0-4.118c-0.018-1.4,1.764-1.898,1.764-1.898v-4.819
							c0-2.585-2.652-14.607-13.746-11.794c-10.566-2.445-15.139,7.756-15.131,11.374c0.004,2.736,0.518,6.428,0.518,6.428
							s2.421-2.246,2.75,0.848c0.18,1.667,0.037,3.429,1.242,3.704C269.239,169.604,269.134,168.223,269.028,166.325z"/>
						<polygon fill="#7D5435" points="279.856,167.134 279.856,174.882 281.22,173.808 						"/>
						<path fill="#4C301F" d="M277.813,165.61c0,0-2.082-1.399-3.41-0.958c-1.324,0.44-2.986,1.881-2.986,1.881l-0.182-0.692
							c0,0,1.24-1.498,3.041-1.645C276.085,164.049,277.813,165.61,277.813,165.61z"/>
						<g>
							<path fill="#823021" d="M276.659,177.601c0,0,1.102,1.056,1.725,1.1c0.627,0.043,2.912,0.141,3.682-0.121
								c0.26-0.084,1.172-0.957,1.172-0.957s-2.635-0.129-3.109-0.15C279.658,177.449,276.659,177.601,276.659,177.601z"/>
							<path fill="#823021" d="M274.915,176.786c0,0,1.615,0.583,2.264,0.512c0.646-0.072,1.729-0.981,1.988-0.872
								c0.256,0.109,0.902,0.382,0.902,0.382s0.842-0.426,1.1-0.382c0.258,0.046,1.6,0.938,2.068,0.872
								c0.469-0.064,1.561-0.512,1.561-0.512s-1.349,0.894-1.893,1.055c-0.992,0.298-2.061-0.01-2.77-0.058
								c-0.85-0.056-2.086,0.542-3.055,0.031C276.108,177.304,274.915,176.786,274.915,176.786z"/>
						</g>
						<path fill="#4C301F" d="M282.481,165.478c0,0,2.084-1.399,3.41-0.957c1.328,0.44,2.986,1.88,2.986,1.88l0.184-0.692
							c0,0-1.237-1.497-3.043-1.645C284.214,163.915,282.481,165.478,282.481,165.478z"/>
						<g>
							<path fill="#2C1216" d="M285.376,166.772c1.516,0,1.283,1.131,1.768,1.433c0.133-0.081,0.967-0.361,0.967-0.361
								s-0.801-1.343-2.734-1.343c-1.936,0-2.658,1.319-2.658,1.319s0.301,0,0.432,0.083
								C283.638,167.602,283.858,166.772,285.376,166.772z"/>
							<path fill="#FFFFFF" d="M287.743,167.844c0,0-0.314,1.142-2.248,1.142c-1.936,0-2.73-1.165-2.73-1.165
								s0.795-1.118,2.73-1.118C287.429,166.702,287.743,167.844,287.743,167.844z"/>
							<g>
								<path fill="#2C1216" d="M284.167,167.82c0,0.458,0.227,0.862,0.568,1.106c0.244,0.038,0.498,0.059,0.76,0.059
									s0.516-0.021,0.762-0.059c0.342-0.244,0.567-0.648,0.567-1.106c0-0.457-0.226-0.858-0.567-1.104
									c-0.246-0.038-0.5-0.061-0.762-0.061s-0.516,0.022-0.76,0.061C284.394,166.962,284.167,167.363,284.167,167.82z"/>
							</g>
							<path fill="#190000" d="M286.034,167.844c0,0.298-0.24,0.542-0.539,0.542s-0.539-0.244-0.539-0.542
								c0-0.296,0.24-0.538,0.539-0.538S286.034,167.548,286.034,167.844z"/>
							<path fill="#FFFFFF" d="M285.353,167.329c0,0.137-0.109,0.242-0.244,0.242s-0.242-0.105-0.242-0.242
								c0-0.132,0.107-0.239,0.242-0.239S285.353,167.197,285.353,167.329z"/>
							<circle fill="#FFFFFF" cx="285.381" cy="167.861" r="0.128"/>
						</g>
						<g>
							<path fill="#2C1216" d="M274.921,166.772c-1.516,0-1.281,1.131-1.77,1.433c-0.133-0.081-0.965-0.361-0.965-0.361
								s0.801-1.343,2.734-1.343c1.936,0,2.658,1.319,2.658,1.319s-0.299,0-0.434,0.083
								C276.659,167.602,276.44,166.772,274.921,166.772z"/>
							<path fill="#FFFFFF" d="M272.554,167.844c0,0,0.314,1.142,2.248,1.142s2.731-1.165,2.731-1.165s-0.798-1.118-2.731-1.118
								S272.554,167.844,272.554,167.844z"/>
							<g>
								<path fill="#2C1216" d="M276.128,167.82c0,0.458-0.225,0.862-0.564,1.106c-0.246,0.038-0.5,0.059-0.762,0.059
									c-0.26,0-0.518-0.021-0.76-0.059c-0.346-0.244-0.566-0.648-0.566-1.106c0-0.457,0.221-0.858,0.566-1.104
									c0.242-0.038,0.5-0.061,0.76-0.061c0.262,0,0.516,0.022,0.762,0.061C275.903,166.962,276.128,167.363,276.128,167.82z"/>
							</g>
							<path fill="#190000" d="M274.265,167.844c0,0.298,0.238,0.542,0.537,0.542c0.297,0,0.539-0.244,0.539-0.542
								c0-0.296-0.242-0.538-0.539-0.538C274.503,167.306,274.265,167.548,274.265,167.844z"/>
							<path fill="#FFFFFF" d="M274.946,167.329c0,0.137,0.109,0.242,0.244,0.242c0.134,0,0.238-0.105,0.238-0.242
								c0-0.132-0.104-0.239-0.238-0.239C275.056,167.09,274.946,167.197,274.946,167.329z"/>
							<path fill="#FFFFFF" d="M274.79,167.861c0,0.069,0.059,0.128,0.125,0.128c0.074,0,0.129-0.059,0.129-0.128
								c0-0.07-0.055-0.128-0.129-0.128C274.849,167.733,274.79,167.791,274.79,167.861z"/>
						</g>
					</g>
				</g>
			</g>
			<rect x="309.054" y="148.243" fill="#A7A9AC" width="33.309" height="6.301"/>
			<rect x="309.054" y="159.046" fill="#D1D3D4" width="33.309" height="3.15"/>
			<polygon fill="#D1D3D4" points="342.362,168.646 332.754,168.646 309.054,168.646 309.054,165.497 342.362,165.497 			"/>
			<rect x="309.054" y="171.948" fill="#D1D3D4" width="33.309" height="3.152"/>
			<rect x="309.054" y="178.397" fill="#D1D3D4" width="33.309" height="3.152"/>
			<rect x="309.054" y="184.851" fill="#D1D3D4" width="33.309" height="3.149"/>
			<rect x="309.054" y="191.3" fill="#D1D3D4" width="33.309" height="3.151"/>
			<rect x="259.841" y="204.508" fill="#D1D3D4" width="82.521" height="3.149"/>
			<rect x="259.841" y="212.309" fill="#D1D3D4" width="82.521" height="3.15"/>
		</g>
	</g>
	<g>
		<path fill="#D1D3D4" d="M276.795,17.367c-1.712-2.57-4.636-4.263-7.953-4.263H202.49c-5.276,0-9.555,4.276-9.555,9.552v4.779
			v70.597c0,2.51,0.976,4.787,2.56,6.491c1.714,2.568,4.633,4.26,7.951,4.26h66.352c5.276,0,9.555-4.276,9.555-9.556V23.856
			C279.353,21.348,278.376,19.072,276.795,17.367z"/>
		<g>
			<path fill="#C4C6C8" d="M283.107,95.473c0,5.28-4.278,9.556-9.555,9.556h-66.351c-5.277,0-9.555-4.276-9.555-9.556V20.101
				c0-5.276,4.277-9.556,9.555-9.556h66.351c5.276,0,9.555,4.28,9.555,9.556V95.473z"/>
			<path fill="#FFFFFF" d="M282.151,94.277c0,5.276-4.278,9.554-9.555,9.554h-66.352c-5.275,0-9.555-4.277-9.555-9.554V18.901
				c0-5.276,4.279-9.552,9.555-9.552h66.352c5.276,0,9.555,4.276,9.555,9.552V94.277z"/>
			<path fill="#00507D" d="M282.151,23.681v-4.78c0-5.276-4.278-9.552-9.555-9.552h-66.352c-5.275,0-9.555,4.276-9.555,9.552v4.78
				H282.151z"/>
			<path fill="#FFFFFF" d="M263.839,19.649c0,0.432-0.35,0.78-0.781,0.78h-5.205c-0.432,0-0.781-0.348-0.781-0.78v-5.208
				c0-0.431,0.35-0.781,0.781-0.781h5.205c0.432,0,0.781,0.351,0.781,0.781V19.649z"/>
			<path fill="#FFFFFF" d="M273.658,19.649c0,0.432-0.35,0.78-0.78,0.78h-5.207c-0.431,0-0.78-0.348-0.78-0.78v-5.208
				c0-0.431,0.35-0.781,0.78-0.781h5.207c0.431,0,0.78,0.351,0.78,0.781V19.649z"/>
			<path fill="#FFFFFF" d="M252.559,17.045c0,1.869-1.516,3.384-3.384,3.384h-43.79c-1.87,0-3.384-1.515-3.384-3.384l0,0
				c0-1.869,1.514-3.385,3.384-3.385h43.79C251.043,13.66,252.559,15.176,252.559,17.045L252.559,17.045z"/>
			<g>
				<g>
					<defs>
						<circle id="SVGID_5_" cx="223.697" cy="52.921" r="20.503"/>
					</defs>
					<use xlink:href="#SVGID_5_"  overflow="visible" fill="#D1D3D4"/>
					<clipPath id="SVGID_6_">
						<use xlink:href="#SVGID_5_"  overflow="visible"/>
					</clipPath>
					<g clip-path="url(#SVGID_6_)">
						<path fill="#DE782C" d="M230.486,60.752c-3.347,3.05-10.833,2.527-13.08,0.814c-2.244-1.714-6.464-4.229-4.849-12.508
							c1.604-8.2,21.249-6.09,21.699,0C234.706,55.152,233.687,57.838,230.486,60.752z"/>
						<path fill="#EFCBAE" d="M230.499,81.382h3.188l-0.086-1.125c0,0-0.344-9.89-0.726-12.666
							c-0.379-2.775-2.569-2.747-2.569-2.747l-1.59,4.655c0,0,1.411,8.787,1.585,10.669
							C230.325,80.437,230.396,80.864,230.499,81.382z"/>
						<path fill="#EFCBAE" d="M215.604,81.382c0.112-0.569,0.193-1.033,0.221-1.32c0.17-1.881,1.581-10.669,1.581-10.669
							l-1.589-4.656c0,0-2.188-0.028-2.57,2.749c-0.381,2.772-0.726,12.663-0.726,12.663l-0.091,1.233H215.604z"/>
						<path fill="#B42627" d="M216.187,77.535l0.857,3.847h12.054l1.278-3.847c0,0,2.022-1.494,2.003-2.881
							c-0.02-1.389-2.575-5.155-2.575-5.155l0.889-4.754l-3.81-1.799h-7.403l-3.727,1.716l0.773,4.837c0,0-2.073,3.65-2.103,5.155
							C214.394,76.157,216.187,77.535,216.187,77.535z"/>
						<path fill="#EFCBAE" d="M226.883,62.945c0,0,1.345,5.264,0.618,6.611c-0.818,1.513-7.439,1.389-8.33,0
							c-0.887-1.386,0.309-6.611,0.309-6.611l1.14-0.541v-5.068h5.09v4.836L226.883,62.945z"/>
						<path fill="#D99279" d="M224.856,62.126c0.295-0.083,0.579-0.186,0.853-0.301v-4.488h-5.09v4.05
							C221.971,62.021,223.284,62.571,224.856,62.126z"/>
						<path fill="#EFCBAE" d="M234.296,54.278c-0.699,0.291-1.506-0.208-1.506-0.208s-3.588,0.186-3.588-0.75s0-1.46,0-3.127
							c0-2.231,3.588-2.007,3.588-2.007s0.809-1.136,1.895-0.36C236.397,49.049,235.64,53.716,234.296,54.278z"/>
						<path fill="#EFCBAE" d="M213.106,54.278c0.699,0.291,1.506-0.208,1.506-0.208s3.587,0.186,3.587-0.75s0-1.46,0-3.127
							c0-2.231-3.587-2.007-3.587-2.007s-0.81-1.136-1.895-0.36C211.003,49.049,211.761,53.716,213.106,54.278z"/>
						<path fill="#EFCBAE" d="M232.875,53c0,4.149-6.009,8.75-9.229,8.75c-3.543,0-9.232-4.893-9.232-9.009c0-4.858,0-4.858,0-8.674
							c0-12.261,18.462-13.069,18.462,0C232.875,52.393,232.875,47.044,232.875,53z"/>
						<path fill="#DE782C" d="M214.979,48.315c-0.065-1.168,1.87-2.106,2.063-6.364c1.609,0.892,9.393,5.457,15.268,6.339
							c-0.065,2.468,0.52,3.269,0.688,3.984c0,0,0.016-2.133,0-3.229c-0.012-1.1,1.387-1.491,1.387-1.491v-3.777
							c0-2.033-2.084-11.461-10.787-9.254c-8.288-1.92-12.043,6.781-11.869,8.921c0.173,2.142,0.405,5.042,0.405,5.042
							s1.9-1.763,2.159,0.666c0.139,1.308,0.026,2.688,0.973,2.908C215.143,50.89,215.06,49.807,214.979,48.315z"/>
						<polygon fill="#D99279" points="223.472,48.951 223.472,55.027 224.543,54.188 						"/>
						<path fill="#DE782C" d="M221.868,47.755c0,0-1.633-1.098-2.675-0.75c-1.042,0.347-2.342,1.474-2.342,1.474l-0.142-0.543
							c0,0,0.968-1.176,2.386-1.291C220.514,46.528,221.868,47.755,221.868,47.755z"/>
						<g>
							<path fill="#EF456F" d="M220.964,57.162c0,0,0.863,0.829,1.352,0.861c0.492,0.034,2.286,0.113,2.888-0.091
								c0.205-0.067,0.922-0.754,0.922-0.754s-2.065-0.1-2.44-0.117C223.313,57.043,220.964,57.162,220.964,57.162z"/>
							<path fill="#F05D7F" d="M219.597,56.521c0,0,1.267,0.461,1.773,0.401c0.506-0.055,1.356-0.768,1.559-0.682
								c0.203,0.084,0.709,0.297,0.709,0.297s0.66-0.333,0.863-0.297c0.203,0.037,1.254,0.734,1.624,0.682
								c0.366-0.048,1.222-0.401,1.222-0.401s-1.059,0.703-1.483,0.83c-0.778,0.232-1.616-0.01-2.174-0.047
								c-0.665-0.044-1.636,0.424-2.396,0.027C220.533,56.931,219.597,56.521,219.597,56.521z"/>
						</g>
						<path fill="#DE782C" d="M225.533,47.65c0,0,1.634-1.096,2.675-0.749c1.041,0.346,2.342,1.473,2.342,1.473l0.143-0.541
							c0,0-0.969-1.177-2.387-1.293C226.888,46.425,225.533,47.65,225.533,47.65z"/>
						<g>
							<path fill="#2C1216" d="M227.802,48.671c1.191,0,1.008,0.884,1.389,1.121c0.104-0.066,0.759-0.283,0.759-0.283
								s-0.632-1.057-2.147-1.057c-1.518,0-2.086,1.037-2.086,1.037s0.235,0,0.34,0.064
								C226.438,49.314,226.611,48.671,227.802,48.671z"/>
							<path fill="#FFFFFF" d="M229.66,49.509c0,0-0.247,0.896-1.765,0.896c-1.517,0-2.143-0.917-2.143-0.917
								s0.626-0.878,2.143-0.878C229.413,48.611,229.66,49.509,229.66,49.509z"/>
							<g>
								<path fill="#2C1216" d="M226.856,49.49c0,0.358,0.173,0.676,0.441,0.867c0.193,0.029,0.392,0.049,0.598,0.049
									c0.205,0,0.405-0.02,0.598-0.049c0.268-0.19,0.443-0.508,0.443-0.867c0-0.358-0.176-0.676-0.443-0.869
									c-0.192-0.027-0.393-0.044-0.598-0.044c-0.206,0-0.404,0.017-0.598,0.044C227.029,48.814,226.856,49.132,226.856,49.49z"/>
							</g>
							<circle fill="#190000" cx="227.895" cy="49.509" r="0.423"/>
							<circle fill="#FFFFFF" cx="227.592" cy="49.104" r="0.191"/>
							<circle fill="#FFFFFF" cx="227.806" cy="49.521" r="0.1"/>
						</g>
						<g>
							<path fill="#2C1216" d="M219.6,48.671c-1.188,0-1.005,0.884-1.386,1.121c-0.105-0.066-0.762-0.283-0.762-0.283
								s0.631-1.057,2.147-1.057c1.519,0,2.085,1.037,2.085,1.037s-0.234,0-0.34,0.064C220.964,49.314,220.79,48.671,219.6,48.671z"
								/>
							<path fill="#FFFFFF" d="M217.743,49.509c0,0,0.245,0.896,1.764,0.896c1.516,0,2.141-0.917,2.141-0.917
								s-0.625-0.878-2.141-0.878C217.988,48.611,217.743,49.509,217.743,49.509z"/>
							<g>
								<path fill="#2C1216" d="M220.548,49.49c0,0.358-0.176,0.676-0.445,0.867c-0.19,0.029-0.391,0.049-0.596,0.049
									s-0.404-0.02-0.597-0.049c-0.269-0.19-0.445-0.508-0.445-0.867c0-0.358,0.177-0.676,0.445-0.869
									c0.192-0.027,0.392-0.044,0.597-0.044s0.405,0.017,0.596,0.044C220.372,48.814,220.548,49.132,220.548,49.49z"/>
							</g>
							<circle fill="#190000" cx="219.506" cy="49.509" r="0.423"/>
							<circle fill="#FFFFFF" cx="219.81" cy="49.104" r="0.191"/>
							<circle fill="#FFFFFF" cx="219.597" cy="49.521" r="0.1"/>
						</g>
					</g>
				</g>
			</g>
			<rect x="247.589" y="33.933" fill="#A7A9AC" width="27.529" height="5.208"/>
			<rect x="247.589" y="42.86" fill="#D1D3D4" width="27.529" height="2.605"/>
			<rect x="247.589" y="48.193" fill="#D1D3D4" width="27.529" height="2.605"/>
			<rect x="247.589" y="53.525" fill="#D1D3D4" width="27.529" height="2.604"/>
			<rect x="247.589" y="58.856" fill="#D1D3D4" width="27.529" height="2.604"/>
			<rect x="247.589" y="64.189" fill="#D1D3D4" width="27.529" height="2.602"/>
			<rect x="247.589" y="69.521" fill="#D1D3D4" width="27.529" height="2.603"/>
			<rect x="206.915" y="80.435" fill="#D1D3D4" width="68.203" height="2.603"/>
			<rect x="206.915" y="86.883" fill="#D1D3D4" width="68.203" height="2.604"/>
		</g>
	</g>
</g>
<g>
	<g>
		<ellipse opacity="0.07" fill="#6D6E71" cx="175.599" cy="334.147" rx="84.266" ry="8.819"/>
		<ellipse opacity="0.07" fill="#6D6E71" cx="175.599" cy="334.147" rx="77.596" ry="8.121"/>
		<ellipse opacity="0.07" fill="#6D6E71" cx="175.599" cy="334.147" rx="116.438" ry="12.187"/>
		<ellipse opacity="0.07" fill="#6D6E71" cx="175.599" cy="334.147" rx="107.222" ry="11.222"/>
		<ellipse opacity="0.07" fill="#6D6E71" cx="175.599" cy="334.147" rx="99.424" ry="10.405"/>
		<ellipse opacity="0.07" fill="#6D6E71" cx="175.598" cy="334.147" rx="90.917" ry="9.515"/>
		<ellipse opacity="0.07" fill="#6D6E71" cx="175.599" cy="334.147" rx="37.636" ry="3.939"/>
		<ellipse opacity="0.07" fill="#6D6E71" cx="175.599" cy="334.147" rx="34.657" ry="3.627"/>
		<ellipse opacity="0.07" fill="#6D6E71" cx="175.599" cy="334.147" rx="32.137" ry="3.363"/>
		<ellipse opacity="0.07" fill="#6D6E71" cx="175.599" cy="334.147" rx="29.387" ry="3.076"/>
		<ellipse opacity="0.07" fill="#6D6E71" cx="175.599" cy="334.147" rx="51.613" ry="5.401"/>
		<ellipse opacity="0.07" fill="#6D6E71" cx="175.599" cy="334.147" rx="47.528" ry="4.975"/>
		<ellipse opacity="0.07" fill="#6D6E71" cx="175.599" cy="334.147" rx="44.072" ry="4.612"/>
		<ellipse opacity="0.07" fill="#6D6E71" cx="175.599" cy="334.147" rx="40.301" ry="4.218"/>
		<ellipse opacity="0.07" fill="#6D6E71" cx="175.599" cy="334.147" rx="71.319" ry="7.464"/>
		<ellipse opacity="0.07" fill="#6D6E71" cx="175.599" cy="334.147" rx="65.674" ry="6.873"/>
		<ellipse opacity="0.07" fill="#6D6E71" cx="175.599" cy="334.147" rx="60.898" ry="6.374"/>
		<ellipse opacity="0.07" fill="#6D6E71" cx="175.599" cy="334.147" rx="55.688" ry="5.828"/>
		<ellipse opacity="0.07" fill="#6D6E71" cx="175.598" cy="334.147" rx="25.95" ry="2.716"/>
		<ellipse opacity="0.07" fill="#6D6E71" cx="175.599" cy="334.147" rx="23.658" ry="2.477"/>
		<ellipse opacity="0.07" fill="#6D6E71" cx="175.599" cy="334.147" rx="22.055" ry="2.309"/>
		<ellipse opacity="0.07" fill="#6D6E71" cx="175.599" cy="334.147" rx="20.309" ry="2.126"/>
		<ellipse opacity="0.07" fill="#6D6E71" cx="175.599" cy="334.147" rx="18.832" ry="1.972"/>
		<ellipse opacity="0.07" fill="#6D6E71" cx="175.599" cy="334.147" rx="17.221" ry="1.803"/>
		<ellipse opacity="0.07" fill="#6D6E71" cx="175.599" cy="334.147" rx="15.207" ry="1.592"/>
		<ellipse opacity="0.07" fill="#6D6E71" cx="175.599" cy="334.147" rx="13.863" ry="1.451"/>
		<ellipse opacity="0.07" fill="#6D6E71" cx="175.599" cy="334.147" rx="13.863" ry="1.451"/>
		<ellipse opacity="0.07" fill="#6D6E71" cx="175.599" cy="334.147" rx="12.767" ry="1.337"/>
		<ellipse opacity="0.07" fill="#6D6E71" cx="175.599" cy="334.147" rx="11.838" ry="1.239"/>
		<ellipse opacity="0.07" fill="#6D6E71" cx="175.599" cy="334.147" rx="10.825" ry="1.134"/>
		<ellipse opacity="0.07" fill="#6D6E71" cx="175.599" cy="334.147" rx="9.559" ry="1.001"/>
		<ellipse opacity="0.07" fill="#6D6E71" cx="175.599" cy="334.147" rx="8.715" ry="0.912"/>
		<ellipse opacity="0.07" fill="#6D6E71" cx="175.599" cy="334.147" rx="8.124" ry="0.851"/>
		<ellipse opacity="0.07" fill="#6D6E71" cx="175.599" cy="334.147" rx="7.481" ry="0.783"/>
		<ellipse opacity="0.07" fill="#6D6E71" cx="175.599" cy="334.147" rx="6.937" ry="0.727"/>
		<ellipse opacity="0.07" fill="#6D6E71" cx="175.599" cy="334.147" rx="6.344" ry="0.664"/>
		<ellipse opacity="0.07" fill="#6D6E71" cx="175.599" cy="334.147" rx="5.602" ry="0.587"/>
		<ellipse opacity="0.07" fill="#6D6E71" cx="175.599" cy="334.147" rx="5.106" ry="0.535"/>
		<ellipse opacity="0.07" fill="#6D6E71" cx="175.599" cy="334.147" rx="4.383" ry="0.459"/>
		<ellipse opacity="0.07" fill="#6D6E71" cx="175.599" cy="334.147" rx="3.609" ry="0.378"/>
		<ellipse opacity="0.07" fill="#6D6E71" cx="175.599" cy="334.147" rx="2.492" ry="0.261"/>
		<ellipse opacity="0.07" fill="#6D6E71" cx="175.599" cy="334.147" rx="1.689" ry="0.177"/>
	</g>
	<g>
		<g>
			<path fill="#DAA07D" d="M87.12,298.267c2.506,5.436,7.232,9.728,12.057,12.637c1.096,0.661,2.191,1.321,3.287,1.982
				c2.15,1.297,4.299,2.594,6.449,3.892c1.266,0.76,2.529,1.523,3.793,2.286c1.008,0.608,2.674,0.403,2.973-0.94
				c0.318-1.447-0.814-2.442-1.791-3.239c-0.875-0.716-1.676-1.535-2.535-2.274c-1.797-1.549-3.512-3.192-5.303-4.748
				c-0.396-0.344-0.771-0.732-1.186-1.058c0.469,0.339,0.938,0.679,1.408,1.018c1.148,0.83,2.297,1.66,3.443,2.492
				c1.445,1.048,2.895,2.092,4.338,3.144c1.367,0.994,2.736,1.989,4.111,2.977c0.996,0.717,1.971,1.479,3.008,2.139
				c0.887,0.565,2.4,0.88,3.186-0.049c0.422-0.5,0.379-1.193,0.311-1.812c-0.074-0.669-0.662-1.643-1.16-2.1
				c-0.504-0.462-0.976-0.926-1.447-1.424c-1.262-1.339-2.729-2.578-4.127-3.772c-1.549-1.321-3.086-2.65-4.654-3.949
				c-1.307-1.08-2.613-2.158-3.914-3.245c-0.609-0.511-1.221-1.036-1.855-1.515c-0.014-0.009-0.025-0.016-0.039-0.023
				c0,0,18.289,14.359,18.348,14.404c1.225,0.961,4.225,2.57,5.508,0.475c0.453-0.738,0.186-2.331-0.193-3.044
				c-0.42-0.789-1.148-1.343-1.797-1.932c-1.354-1.226-2.637-2.497-4.039-3.676c-2.873-2.415-5.723-4.854-8.68-7.169
				c-0.654-0.512-1.285-1.061-1.957-1.547c2.092,1.854,4.604,3.536,6.916,5.111c2.744,1.867,4.488,3.425,6.645,4.69
				c0.563,0.33,1.322,0.916,1.988,0.922c0.963,0.011,2.219-0.228,2.703-0.955c0.688-1.032-0.051-2.954-0.982-3.761
				c-5.4-4.667-9.203-7.796-14.17-10.882c0,0-4.228-2.568-4.582-2.999c0,0,8.133,4.452,13.457,3.464c0,0,7.014-3.53-4.385-5.907
				c0,0-6.434-2.871-10.434-4.825c0,0-7.713-4.153-16.975-1.38c0,0-7.439-4.584-9.369-6.2l-7.139,9.241
				C78.335,284.715,85.272,294.257,87.12,298.267z"/>
			<path fill="#DAA07D" d="M267.146,289.185c0.502,5.963-1.492,12.027-4.254,16.939c-0.627,1.116-1.256,2.23-1.881,3.345
				c-1.23,2.189-2.459,4.378-3.689,6.566c-0.727,1.286-1.447,2.574-2.172,3.86c-0.575,1.028-2.127,1.671-3.049,0.649
				c-0.992-1.102-0.496-2.527-0.041-3.701c0.408-1.055,0.701-2.163,1.082-3.23c0.799-2.232,1.48-4.508,2.271-6.744
				c0.176-0.494,0.309-1.019,0.51-1.506c-0.24,0.527-0.482,1.053-0.723,1.579c-0.592,1.289-1.178,2.578-1.766,3.867
				c-0.74,1.625-1.485,3.248-2.223,4.873c-0.701,1.542-1.398,3.081-2.107,4.618c-0.514,1.116-0.984,2.26-1.561,3.345
				c-0.492,0.929-1.654,1.949-2.797,1.528c-0.613-0.227-0.918-0.85-1.164-1.421c-0.268-0.62-0.234-1.756-0.025-2.399
				c0.211-0.65,0.393-1.287,0.555-1.952c0.438-1.787,1.104-3.59,1.73-5.318c0.695-1.912,1.375-3.828,2.1-5.73
				c0.604-1.584,1.207-3.168,1.805-4.754c0.275-0.744,0.551-1.504,0.867-2.233c0.006-0.013,0.014-0.025,0.021-0.039
				c0,0-8.824,21.514-8.853,21.581c-0.593,1.44-2.407,4.318-4.558,3.13c-0.76-0.419-1.311-1.937-1.334-2.742
				c-0.023-0.894,0.336-1.734,0.611-2.567c0.571-1.733,1.061-3.474,1.699-5.19c1.307-3.518,2.584-7.046,4.014-10.518
				c0.317-0.768,0.594-1.557,0.939-2.312c-0.906,2.646-2.26,5.347-3.496,7.857c-1.467,2.979-2.215,5.194-3.467,7.358
				c-0.324,0.564-0.697,1.449-1.271,1.783c-0.834,0.484-2.045,0.897-2.826,0.504c-1.105-0.56-1.412-2.596-1-3.756
				c2.396-6.725,4.16-11.322,6.957-16.457c0,0,2.414-4.32,2.508-4.87c0,0-4.879,7.886-9.996,9.653c0,0-7.844,0.389,0.9-7.303
				c0,0,4.18-5.67,6.694-9.343c0,0,4.659-7.419,14.085-9.575c0,0,4.209-7.658,5.09-10.015l15.453,6.48
				C272.786,275.026,266.772,284.784,267.146,289.185z"/>
			<g>
				<path fill="#C78D6B" d="M157.604,160.163c0,0,3.662,10.334-6.838,18.152c0,0,24,24.652,55.5,0c0,0-12-1.204-7.5-24.655
					L157.604,160.163z"/>
				<path fill="#414042" d="M279.767,265.66l-21.793-56.961c-4.844-14.193-17.248-22.771-30.213-28.079
					c-7.045-2.885-14.098-5.754-21.152-8.624c-23.652,25.835-53.293,0-53.293,0c-4.383,2.41-8.744,4.859-13.117,7.291
					c-12.174,6.771-26.549,11.82-34.096,24.287l-34.672,60.753c0,0,3.168,22.833,12.123,28.621c0,0,2.545-13.954,21.156-11.996
					l-2.945-14.407l30.666-31.218l4.863,53h81.734l6.404-52.973l25.834,29.806l-11.537,20.667c19.332-8,27.488,5.17,27.488,5.17
					S276.897,279.302,279.767,265.66"/>
				<path fill="#DAA07D" d="M214.124,121.508c-0.047-30.554-16.756-47.181-37.359-47.181c-20.602,0-37.311,16.627-37.357,47.181
					c-1.18,0.018-7.348,0.436-3.84,7.452c0,0,3.762,4.584,4.031,10.459c0,0,1.334,3.161,3.311,1.715
					c4.602,12.343,13.068,21.765,21.283,27.661c0,0,13.941,9.142,24.283,1.014c9.875-6.084,18.41-15.192,22.699-28.379
					c1.668,0.564,2.758-2.011,2.758-2.011c0.27-5.875,4.029-10.459,4.029-10.459C221.468,121.945,215.306,121.526,214.124,121.508z"
					/>
				<path fill="#3C2415" d="M214.517,121.66c-1.223,2.598-6.858,6.17-6.25,9.536c0,0.185,0,0.185,0,0
					c-0.756-1.182,0.113-4.841,0-6.286c-0.199-2.504-0.67-4.808-1.25-7.257c-1.215-5.111-2.715-9.692-5.682-14.057
					c-3.498-5.148-7.469-8.53-14.318-8.187c-4.121,0.208-10.313,1.2-10.994,6.176c-3.514-8.351-18.527-8.228-23.506-1.314
					c-2.918,4.051-4.113,8.597-4.801,13.445c-0.414,2.917-0.582,5.882-1.145,8.75c-0.34,1.725-0.602,5.284-1.555,6.444
					c0,0-0.967-5.053-5.609-7.402c-4.579-2.315-0.44-24.84,0.544-28.187c4.719-16.08,18.777-25.469,34.898-27.175
					c8.102-0.857,16.117-2.983,24.4-2.387c-1.801,1.308-3.662,3.071-5.209,4.837c4.707-0.755,9.162-2.235,14.184-1.862
					c-2.66,1.95-1.436,4.93-2.77,7.851c5.832-0.354,10.152,6.863,13.16,11.013c-2.792-0.74-5.43-2.177-8.201-2.973
					C222.692,86.152,218.208,113.812,214.517,121.66z"/>
				<path fill="#E6E7E8" d="M153.315,171.996l-9.48,5.265c0,0,16.814,15.318,34.121,15.402c0.188,0.001,0.373,0,0.561-0.003
					c17.5-0.25,29.643-5.234,36.195-17.367l-8.104-3.297c0,0-13.293,11.795-24.691,11.479
					C181.917,183.476,169.767,184.078,153.315,171.996z"/>
			</g>
			<g>
				<path d="M245.226,313.851c0,3.279-2.66,5.937-5.938,5.937H113.821c-3.279,0-5.936-2.657-5.936-5.937V222.34
					c0-3.279,2.656-5.938,5.936-5.938h125.467c3.277,0,5.938,2.658,5.938,5.938V313.851z"/>
				<path fill="#808285" d="M109.517,223.599v51.192c0,23.311,2.592,42.208,5.791,42.208h122.395c3.199,0,5.791-18.897,5.791-42.208
					v-51.192H109.517z"/>
				<rect x="128.446" y="318.25" fill="#808285" width="18.969" height="4.475"/>
				<rect x="202.331" y="318.25" fill="#808285" width="18.967" height="4.475"/>
				<path d="M93.927,324.532h165.676c0,0-2.285,7.252-6.428,10.014h-144.25C108.925,334.546,95.374,333.164,93.927,324.532z"/>
			</g>
		</g>
		<g>
			<path d="M195.003,119.149c-2.051,0.16-4.006,0.507-5.783,1.049c-0.465,0.142-0.92,0.298-1.361,0.468
				c-8.541,2.758-15.32,1.279-18.572,0.167c-0.662-0.323-1.361-0.61-2.098-0.861l-0.004-0.002l0.002,0.001
				c-1.939-0.659-4.119-1.072-6.414-1.251c-16.066-1.254-18.67,5.464-15.967,13.404c2.396,7.041,6.205,10.646,15.08,10.646
				c8.873,0,13.379-2.397,15.08-10.646c0.283-1.366,0.338-2.618,0.199-3.762c2.137-1.892,4.27-0.977,5.521-0.076
				c-0.225,1.279-0.201,2.699,0.123,4.269c1.701,8.248,6.207,10.646,15.08,10.646c8.871,0,12.685-3.605,15.078-10.646
				C213.673,124.614,211.067,117.895,195.003,119.149z M172.835,132.235c-1.41,6.435-5.139,8.305-12.482,8.305
				s-10.498-2.813-12.482-8.305c-2.236-6.196-0.08-11.438,13.217-10.458C168.411,122.315,174.302,125.529,172.835,132.235z
				 M207.905,132.665c-1.982,5.493-5.139,8.305-12.482,8.305s-11.072-1.87-12.482-8.305c-1.467-6.706,4.424-9.919,11.748-10.458
				C207.987,121.228,210.142,126.47,207.905,132.665z"/>
			<polygon points="146.647,130.098 142.759,131.099 141.261,121.042 147.462,121.042 			"/>
			<polygon points="209.265,130.098 213.153,131.099 214.647,121.042 208.449,121.042 			"/>
		</g>
	</g>
</g>
</svg>
