<?xml version="1.0" encoding="utf-8"?>
<!-- Generator: Adobe Illustrator 16.0.0, SVG Export Plug-In . SVG Version: 6.00 Build 0)  -->
<!DOCTYPE svg PUBLIC "-//W3C//DTD SVG 1.1//EN" "http://www.w3.org/Graphics/SVG/1.1/DTD/svg11.dtd">
<svg version="1.1" id="Layer_1" xmlns="http://www.w3.org/2000/svg" xmlns:xlink="http://www.w3.org/1999/xlink" x="0px" y="0px"
	 width="562.541px" height="533.459px" viewBox="0 0 562.541 533.459" enable-background="new 0 0 562.541 533.459"
	 xml:space="preserve">
<g>
	<path fill="#4D4D4D" d="M150.21,316.728l53.728-6.353c1.471-0.178,3.043-2.239,3.514-4.601l0,0c0.471-2.363-0.34-4.127-1.813-3.946
		l-55.429,6.837V316.728z"/>
	<path fill="#616161" d="M150.21,312.371v-3.706l55.429-6.837c1.227-0.146,1.983,1.064,1.934,2.828
		c-0.318,0.206-0.642,0.346-0.969,0.384L150.21,312.371z"/>
	<polygon fill="#A56B28" points="376.588,422.064 328.88,394.301 365.03,380.609 387.209,397.453 	"/>
	<path fill="#4E4E4E" d="M455.75,374.947c0-23.925,13.66-51.211,30.518-60.943c7.151-4.127,13.71-4.397,18.909-1.559v-0.031
		l0.327,0.188c0.1,0.056,0.2,0.114,0.302,0.174l18.585,10.775l-9.539,2.204c1.226,3.982,1.934,8.646,1.934,13.95
		c0,23.929-13.662,51.207-30.518,60.943c-0.887,0.512-1.756,0.93-2.624,1.323l2.624,11.154l-18.604-10.77
		c-0.472-0.25-0.934-0.512-1.384-0.804l-1.837-1.376C459.067,395.468,455.75,386.723,455.75,374.947z"/>
	<path fill="#4E4E4E" d="M270.771,468.242c0-29.427,16.804-62.978,37.534-74.944c8.792-5.073,16.856-5.41,23.258-1.913l-0.005-0.043
		l0.405,0.235c0.123,0.07,0.249,0.136,0.371,0.219l22.852,13.245l-11.731,2.704c1.515,4.911,2.379,10.631,2.379,17.157
		c0,29.426-16.799,62.982-37.528,74.944c-1.092,0.633-2.156,1.148-3.223,1.633l3.223,13.719l-22.874-13.247
		c-0.584-0.302-1.152-0.629-1.706-0.99l-2.262-1.689C274.856,493.481,270.771,482.723,270.771,468.242z"/>
	<polygon fill="#FEE144" points="410.645,338.356 271.5,262.848 214.883,283.337 332.592,370.634 364.359,372.694 	"/>
	<polygon fill="#F3BC19" points="404.8,291.494 271.5,212.688 271.5,262.848 404.8,340.104 	"/>
	<polygon fill="#FEE144" points="480.724,248.166 344.331,169.051 271.5,212.688 404.8,291.494 	"/>
	<polygon fill="#CB902B" points="377.644,257.3 377.644,269.559 314.247,232.776 314.247,220.137 	"/>
	<path fill="#972625" d="M341.577,132.592c0,0-15.806,39.817-18.167,41.507c-2.357,1.685-52.076,12.002-53.766,15.712
		c-1.685,3.707,0.935,12.583,3.633,13.26c1.432,0.357,13.56-1.275,27.608-4.724c12.448-3.056,26.786-7.837,30.881-9.627
		c4.03-1.764,14.508-12.691,18.891-28.88C355.041,143.646,344.952,130.906,341.577,132.592z"/>
	<path fill="#FEE144" d="M496.437,184.734l-135.025-80.027c0,0,18.346-12.553,26.19-14.897c7.842-2.335,15.081,1.838,15.081,1.838
		l131.954,76.998L496.437,184.734z"/>
	<polygon fill="#F3BC19" points="361.411,104.707 496.437,184.734 480.724,248.166 344.331,169.051 	"/>
	<path fill="#959494" d="M445.879,121.35l-14.452,86.414l-60.341,53.683c-1.776,0-25.902-15.088-42.541-24.912
		c-15.517-9.164-17.49-13.381-17.927-15.127l0,0c-0.882-10.229,6.348-16.242,12.64-19.874l43.541-25.715l9.325-62.725
		c1.576-11.596,7.999-24.191,16.822-32.988l0,0C397.243,75.827,446.699,115.683,445.879,121.35z"/>
	<path fill="#818181" d="M376.762,106.833c1.611-11.6,8.173-24.196,17.188-32.993l0,0c4.384-4.283,54.915,35.582,54.075,41.24
		l-14.765,86.419l-3.62,3.156L367.257,169.4L376.762,106.833z"/>
	<polygon fill="#A56B28" points="377.644,269.559 439.823,233.654 439.823,221.398 377.644,257.3 	"/>
	<path fill="#6B6C6C" d="M455.854,114.727l-15.787,109.047l-62.424,36.044c-6.605,3.808-11.963,0.721-11.963-6.906l0,0
		c0-7.26,5.1-16.093,11.391-19.725l44.789-25.86l9.332-62.72c1.571-11.601,7.998-24.196,16.821-32.998l0,0
		C452.305,107.326,456.675,109.063,455.854,114.727z"/>
	<path fill="#CB902B" d="M376.588,422.064c-2.874-24.284-18.762-39.485-46-23.76c-19.263,11.12-33.635,32.094-42.427,59.874v-40
		c4.828-9.172,12.874-30.789,42.427-47.854c29.558-17.062,62.013-3.895,62.013,42.502L376.588,422.064z"/>
	<path fill="#CF423B" d="M389.349,195.561c0,6.745,0.336,29.012-14.504,41.153c-14.839,12.142-36.088,20.572-36.765,30.021
		c-0.673,9.443-13.49,76.564-18.215,76.564c-4.719,0-26.981-8.771-26.981-8.771s17.202-78.25,19.224-84.323
		c2.026-6.073,28.334-25.296,26.985-28.335c-1.55-3.483-36.093,11.806-37.778,15.853c-3.527,8.47,0,74.543-5.396,73.194
		c-5.396-1.349-17.878-0.673-21.248-6.746c-3.375-6.073-6.073-73.53,1.349-81.624c7.422-8.095,50.593-30.693,63.41-33.391
		C352.247,186.458,389.349,195.561,389.349,195.561z"/>
	<path fill="#535353" d="M254.207,213.239c0.161,16.778,10.718,36.298,25.247,44.685c14.53,8.391,30.286-0.389,30.286-17.167
		c0-16.778-11.779-37.18-26.309-45.567C268.897,186.799,254.023,194.352,254.207,213.239z M301.253,240.669l-12.468-11.107
		c-2.084-1.716-2.908-5.117-1.48-6.125l8.317-5.108c1.427-1.008,2.248,2.183,2.907,4.903l4.541,14.35
		C303.729,240.303,303.336,242.385,301.253,240.669z M284.724,234.675c-0.222-2.576,2.049,1.327,3.995,3.449l8.174,7.086
		c1.946,2.126,6.403,5.397,4.68,5.851l-11.377,2.973c-1.726,0.454-4.161-2.205-4.385-4.781L284.724,234.675z M281.03,218.578
		l-7.028-18.122c-1.07-2.747,0.266-4.641,2.396-3.41l10.321,8.75c2.13,1.231,5.972,7.02,4.906,8.535l-5.798,7.021
		C284.764,222.866,282.096,221.324,281.03,218.578z M265.789,224.892l10.941,3.06c1.947,0.127,2.038,0.769,1.815,3.091l0.185,14.712
		c-0.224,2.319-0.342,2.912-2.065,0.467l-11.378-16.11C263.562,227.668,263.842,224.769,265.789,224.892z M261.109,212.841
		l4.343-12.932c0.66-1.96,1.314,1.96,2.737,4.614l5.455,12.53c1.423,2.655,4.628,8.143,2.539,7.449l-11.866-5.693
		C262.231,218.12,260.45,214.802,261.109,212.841z"/>
	<polygon fill="#232323" points="505.646,79.782 496.437,85.1 496.437,184.734 505.646,179.412 	"/>
	<path fill="#CB902B" d="M404.8,340.104v-48.61l75.924-43.328l15.713-63.432l20.872-12.054c19.683-11.365,35.644,2.078,35.644,30.02
		v117.548l-11.299,6.522v-28.714l-40.014,23.104c-13.037,7.527-24.235,25.799-29.22,45.58l-92.506,53.408v-0.034
		c-1.852-15.647-17.83-30.802-28.959-32.78v-15.729L404.8,340.104z"/>
	<path fill="#232323" d="M252.215,212.737c0,16.778,11.779,37.185,26.309,45.571c14.53,8.392,26.31,1.59,26.31-15.188
		s-11.779-37.181-26.31-45.572C263.995,189.16,252.215,195.958,252.215,212.737z M297.639,243.241l-13.757-11.316
		c-2.087-1.716-2.908-5.117-1.485-6.126l9.413-6.631c1.429-1.009,4.035,1.135,4.693,3.859l4.345,17.953
		C301.507,243.7,299.721,244.957,297.639,243.241z M279.438,234.614c-0.224-2.576,1.934-3.139,3.881-1.013l12.849,14.022
		c1.946,2.127,2.223,5.344,0.498,5.798l-11.378,2.973c-1.725,0.455-4.156-2.204-4.379-4.78L279.438,234.614z M276.128,220.94
		l-7.034-18.123c-1.065-2.746,0.267-4.641,2.402-3.41l14.062,8.116c2.131,1.231,3.463,4.668,2.397,6.182l-7.028,10.007
		C279.855,225.227,277.193,223.687,276.128,220.94z M260.886,227.253l12.845,0.812c1.95,0.126,4.103,3.178,3.881,5.496
		l-1.467,15.303c-0.224,2.319-2.659,2.166-4.384-0.279l-11.377-16.111C258.66,230.03,258.939,227.131,260.886,227.253z
		 M256.202,215.204l4.348-12.937c0.66-1.96,3.266-1.095,4.693,1.559l9.408,17.499c1.429,2.654,0.604,5.108-1.483,4.414
		l-13.753-4.566C257.328,220.481,255.547,217.164,256.202,215.204z"/>
	<path fill="#303030" d="M368.191,437.855c0-29.474-16.835-43.654-37.604-31.666c-20.764,11.989-37.599,45.611-37.599,75.086
		c0,29.481,16.835,43.663,37.599,31.67C351.356,500.955,368.191,467.344,368.191,437.855z"/>
	<path fill="#303030" d="M536.17,350.936c0-23.926-13.67-35.438-30.523-25.703c-16.852,9.731-30.518,37.014-30.518,60.939
		c0,23.93,13.666,35.434,30.518,25.707C522.5,402.146,536.17,374.859,536.17,350.936z"/>
	<polygon fill="#A56B28" points="518.388,207.004 538.326,195.487 538.326,191.488 518.388,202.996 	"/>
	<polygon fill="#A56B28" points="518.388,215.549 538.326,204.035 538.326,200.036 518.388,211.544 	"/>
	<polygon fill="#A56B28" points="518.388,224.092 538.326,212.58 538.326,208.576 518.388,220.089 	"/>
	<polygon fill="#A56B28" points="518.388,232.641 538.326,221.124 538.326,217.12 518.388,228.637 	"/>
	<path fill="#E04949" d="M399.521,119.695c0,0-5.087,67.571-9.081,78.835c-3.999,11.26-6.54,22.886-6.54,22.886
		s-22.42-4.916-30.033-7.994c-22.765-9.203-21.192-20.707-21.192-20.707s4.361-48.318,5.815-56.307
		C339.939,128.414,399.521,119.695,399.521,119.695z"/>
	<g>
		<path fill="#241F1A" d="M355.168,445.378c0-19.271-11.002-28.536-24.58-20.702c-13.569,7.84-24.575,29.813-24.575,49.085
			c0,19.268,11.006,28.535,24.575,20.694C344.166,486.619,355.168,464.646,355.168,445.378z"/>
		<path fill="#7B6A59" d="M352.007,447.199c0-16.782-9.592-24.86-21.419-18.032c-11.822,6.829-21.415,25.973-21.415,42.765
			c0,16.791,9.593,24.864,21.415,18.036C342.415,483.14,352.007,463.99,352.007,447.199z"/>
		<path fill="#434343" d="M320.743,463.439c0,7.859,4.488,11.641,10.023,8.444c5.537-3.195,10.023-12.16,10.023-20.018
			c0-7.863-4.486-11.641-10.023-8.44C325.231,446.622,320.743,455.577,320.743,463.439z"/>
		<path fill="#303030" d="M320.743,465.253c0,7.163,4.488,10.381,10.023,7.185c5.537-3.195,10.023-11.595,10.023-18.76
			c0-7.164-4.486-10.383-10.023-7.188C325.231,449.688,320.743,458.087,320.743,465.253z"/>
		<path fill="#303030" d="M327.531,438.306c0,2.349,1.345,3.479,2.995,2.527c1.655-0.96,2.996-3.632,2.996-5.984
			c0-2.345-1.341-3.472-2.996-2.52C328.876,433.281,327.531,435.961,327.531,438.306z"/>
		<path fill="#303030" d="M342.092,436.528c-1.433,2.004-1.92,4.89-1.095,6.444c0.825,1.554,2.658,1.191,4.09-0.809
			c1.433-2.004,1.922-4.88,1.097-6.435C345.353,434.166,343.524,434.529,342.092,436.528z"/>
		<path fill="#303030" d="M345.327,455.874c-1.437-0.346-3.265,1.41-4.091,3.915c-0.83,2.516-0.336,4.835,1.096,5.18
			s3.266-1.406,4.091-3.918C347.248,458.538,346.76,456.219,345.327,455.874z"/>
		<path fill="#303030" d="M334.002,476.996c0-2.349-1.341-3.479-2.995-2.52c-1.65,0.952-2.994,3.624-2.994,5.978
			c0,2.349,1.344,3.475,2.994,2.519C332.661,482.021,334.002,479.341,334.002,476.996z"/>
		<path fill="#303030" d="M319.445,478.773c1.433-2.006,1.922-4.89,1.097-6.445c-0.829-1.553-2.658-1.192-4.091,0.808
			c-1.432,2.006-1.921,4.886-1.096,6.441C316.181,481.134,318.015,480.773,319.445,478.773z"/>
		<path fill="#303030" d="M316.211,459.429c1.432,0.344,3.266-1.407,4.091-3.917c0.825-2.511,0.336-4.829-1.096-5.179
			c-1.433-0.345-3.266,1.41-4.091,3.916C314.286,456.765,314.779,459.083,316.211,459.429z"/>
	</g>
	<path fill="#972625" d="M380.023,157.233c-14.84,4.047-21.603,21.026-26.662,33.504c-5.061,12.478-11.13,10.121-24.62,14.84
		c-13.495,4.724-23.61,5.737-25.636,9.443c-2.021,3.711-1.013,12.819,5.06,13.495c6.072,0.672,22.934-2.698,32.382-6.073
		c9.443-3.37,20.235-6.073,30.356-15.853C381.019,196.81,395.051,153.138,380.023,157.233z"/>
	<path fill="#4E4E4E" d="M143.662,395.716c0-29.427,16.805-62.978,37.534-74.945c8.792-5.073,16.856-5.409,23.253-1.916
		l-0.005-0.043l0.401,0.24c0.127,0.068,0.253,0.135,0.376,0.218l22.855,13.245l-11.736,2.702c1.515,4.912,2.383,10.632,2.383,17.159
		c0,29.426-16.808,62.982-37.528,74.944c-1.092,0.634-2.157,1.148-3.227,1.628l3.227,13.724l-22.882-13.251
		c-0.581-0.298-1.148-0.625-1.699-0.987l-2.266-1.688C147.748,420.955,143.662,410.197,143.662,395.716z"/>
	<polygon fill="#232323" points="276.547,226.502 253.298,256.47 263.109,262.832 280,230.859 	"/>
	<path fill="#303030" d="M241.087,365.329c0-29.475-16.839-43.654-37.608-31.666c-20.769,11.989-37.599,45.611-37.599,75.086
		c0,29.481,16.831,43.659,37.599,31.67C224.248,428.429,241.087,394.808,241.087,365.329z"/>
	<g>
		<path fill="#241F1A" d="M228.059,372.852c0-19.271-11.006-28.536-24.58-20.703c-13.573,7.842-24.58,29.815-24.58,49.078
			c0,19.275,11.007,28.535,24.58,20.702C217.053,414.093,228.059,392.119,228.059,372.852z"/>
		<path fill="#7B6A59" d="M224.898,374.673c0-16.782-9.587-24.86-21.419-18.031c-11.827,6.828-21.415,25.972-21.415,42.764
			c0,16.791,9.587,24.864,21.415,18.036C215.311,410.613,224.898,391.464,224.898,374.673z"/>
		<path fill="#434343" d="M193.638,390.909c0,7.863,4.484,11.64,10.016,8.443c5.541-3.195,10.024-12.155,10.024-20.013
			c0-7.863-4.483-11.645-10.024-8.448C198.122,374.096,193.638,383.051,193.638,390.909z"/>
		<path fill="#303030" d="M193.638,392.727c0,7.163,4.484,10.38,10.016,7.185c5.541-3.195,10.024-11.595,10.024-18.76
			c0-7.164-4.483-10.382-10.024-7.187C198.122,377.161,193.638,385.561,193.638,392.727z"/>
		<path fill="#303030" d="M200.428,365.779c0,2.349,1.336,3.479,2.99,2.527c1.654-0.96,2.995-3.632,2.995-5.984
			c0-2.345-1.341-3.476-2.995-2.52C201.764,360.754,200.428,363.435,200.428,365.779z"/>
		<path fill="#303030" d="M214.979,364.002c-1.428,2.004-1.926,4.89-1.096,6.444c0.829,1.554,2.659,1.192,4.095-0.809
			c1.427-2.004,1.921-4.88,1.096-6.439C218.244,361.64,216.416,362.003,214.979,364.002z"/>
		<path fill="#303030" d="M218.214,383.347c-1.428-0.345-3.262,1.407-4.091,3.916c-0.825,2.516-0.336,4.835,1.1,5.179
			c1.432,0.346,3.257-1.409,4.086-3.917C220.14,386.012,219.646,383.692,218.214,383.347z"/>
		<path fill="#303030" d="M206.889,404.47c0-2.349-1.336-3.479-2.991-2.527c-1.654,0.96-2.995,3.632-2.995,5.985
			c0,2.345,1.34,3.471,2.995,2.519C205.553,409.494,206.889,406.814,206.889,404.47z"/>
		<path fill="#303030" d="M192.337,406.247c1.433-2.005,1.917-4.89,1.096-6.445c-0.829-1.553-2.663-1.192-4.095,0.808
			c-1.427,2.006-1.921,4.882-1.096,6.441C189.072,408.607,190.901,408.247,192.337,406.247z"/>
		<path fill="#303030" d="M189.102,386.902c1.428,0.344,3.261-1.411,4.086-3.917c0.83-2.515,0.341-4.834-1.095-5.179
			c-1.433-0.345-3.267,1.406-4.086,3.917C187.177,384.238,187.666,386.557,189.102,386.902z"/>
	</g>
	<polygon fill="#FEE258" points="323.834,307.852 197.162,231.907 207.639,225.703 334.002,299.313 	"/>
	<g>
		<path fill="#241F1A" d="M530.223,354.362c0-19.263-11.002-28.536-24.576-20.694c-13.572,7.833-24.574,29.807-24.574,49.077
			c0,19.267,11.002,28.535,24.574,20.699C519.221,395.603,530.223,373.633,530.223,354.362z"/>
		<path fill="#7B6A59" d="M527.063,356.191c0-16.792-9.587-24.868-21.416-18.04c-11.827,6.829-21.414,25.978-21.414,42.769
			c0,16.787,9.587,24.859,21.414,18.031C517.476,392.123,527.063,372.979,527.063,356.191z"/>
		<path fill="#434343" d="M495.803,372.429c0,7.854,4.488,11.635,10.024,8.438c5.534-3.195,10.023-12.159,10.023-20.014
			c0-7.862-4.489-11.639-10.023-8.442C500.291,355.607,495.803,364.565,495.803,372.429z"/>
		<path fill="#303030" d="M495.803,374.236c0,7.164,4.488,10.382,10.024,7.186c5.534-3.195,10.023-11.592,10.023-18.76
			c0-7.164-4.489-10.383-10.023-7.187C500.291,358.672,495.803,367.076,495.803,374.236z"/>
		<path fill="#303030" d="M502.592,347.298c0,2.344,1.341,3.471,2.995,2.52c1.654-0.952,2.993-3.633,2.993-5.981
			c0-2.345-1.339-3.476-2.993-2.523C503.933,342.269,502.592,344.944,502.592,347.298z"/>
		<path fill="#303030" d="M517.148,345.521c-1.429,1.995-1.923,4.88-1.094,6.436c0.826,1.553,2.656,1.196,4.087-0.809
			c1.438-1.994,1.926-4.881,1.097-6.435C520.413,343.159,518.584,343.518,517.148,345.521z"/>
		<path fill="#303030" d="M520.388,364.858c-1.437-0.346-3.268,1.409-4.097,3.925c-0.825,2.51-0.331,4.824,1.102,5.169
			c1.428,0.346,3.261-1.406,4.086-3.917C522.308,367.525,521.813,365.211,520.388,364.858z"/>
		<path fill="#303030" d="M509.063,385.979c0-2.349-1.341-3.479-2.995-2.52c-1.654,0.956-2.995,3.634-2.995,5.978
			c0,2.35,1.341,3.48,2.995,2.519C507.722,391.005,509.063,388.333,509.063,385.979z"/>
		<path fill="#303030" d="M494.502,387.757c1.437-2.004,1.925-4.886,1.096-6.439c-0.826-1.559-2.658-1.195-4.087,0.804
			c-1.437,2.004-1.926,4.889-1.095,6.443C491.241,390.119,493.07,389.757,494.502,387.757z"/>
		<path fill="#303030" d="M491.267,368.412c1.437,0.349,3.266-1.407,4.091-3.916c0.829-2.507,0.341-4.824-1.096-5.179
			c-1.428-0.345-3.261,1.41-4.086,3.925C489.345,365.749,489.839,368.066,491.267,368.412z"/>
	</g>
	<polygon fill="#A56B28" points="288.161,418.179 288.161,458.179 152.643,377.689 152.643,339.374 	"/>
	<polygon fill="#F3BC19" points="288.161,418.179 152.643,339.374 197.162,231.907 323.834,307.852 	"/>
	<polygon fill="#232323" points="323.834,307.852 334.491,301.697 401.123,137.01 393.387,134.373 	"/>
	<polygon fill="#232323" points="221.563,246.546 232.337,240.093 293.5,86.737 285.764,84.096 	"/>
	<polygon fill="#CB902B" points="334.491,374.821 334.491,301.697 323.834,307.852 288.161,418.179 	"/>
	<polygon fill="#4E4E4E" points="496.593,184.734 488.599,180.105 488.599,96.621 496.593,93.329 	"/>
	<polygon fill="#232323" points="387.825,147.563 383.25,163.293 505.646,92.857 505.646,79.782 	"/>
	<polygon fill="#6F6F6F" points="505.646,79.742 393.248,15.441 275.211,83.152 388.175,147.563 	"/>
	<polygon fill="#4E4E4E" points="388.175,147.563 378.542,142.075 313.573,301.697 323.834,307.852 	"/>
	<polygon fill="#4E4E4E" points="284.941,88.706 275.211,83.152 211.329,240.398 221.58,246.546 	"/>
	<polygon fill="#4E4E4E" points="387.825,147.563 284.122,88.239 278.725,101.908 382.279,161.939 	"/>
	<polygon fill="#A56B28" points="541.653,326.77 541.653,298.056 516.785,312.414 	"/>
	<polygon fill="#303030" points="282.62,291.816 273.408,297.135 273.408,518.018 282.62,512.225 	"/>
	<path fill="#4D4D4D" d="M273.408,387.168l53.723-6.357c1.471-0.183,3.043-2.244,3.518-4.597l0,0
		c0.468-2.362-0.344-4.126-1.811-3.951l-55.43,6.837V387.168z"/>
	<path fill="#616161" d="M273.408,382.802V379.1l55.43-6.837c1.227-0.149,1.981,1.061,1.929,2.824
		c-0.318,0.205-0.642,0.346-0.96,0.389L273.408,382.802z"/>
	<path fill="#A56B28" d="M310.435,385.448l10.998-1.556c2.288-0.322,4.711-3.549,5.414-7.203l0,0
		c0.702-3.654-0.581-6.353-2.868-6.029l-10.997,1.555c-2.294,0.327-4.716,3.549-5.419,7.202l0,0
		C306.858,383.076,308.147,385.771,310.435,385.448z"/>
	<polygon fill="#535353" points="273.408,518.018 259.594,510.059 259.594,289.171 273.408,297.135 	"/>
	<polygon fill="#6F6F6F" points="282.62,291.816 273.408,297.135 259.594,289.171 269.208,283.687 	"/>
	<polygon fill="#6F6F6F" points="268.671,116.468 252.595,106.938 242.82,111.714 259.454,121.786 	"/>
	<polygon fill="#303030" points="159.427,221.386 150.21,226.703 150.21,447.588 159.427,441.789 	"/>
	<polygon fill="#535353" points="150.21,447.588 136.401,439.624 136.401,218.739 150.21,226.703 	"/>
	<polygon fill="#6F6F6F" points="159.427,221.386 150.21,226.703 136.401,218.739 146.01,213.256 	"/>
	<polygon fill="#434343" points="28.035,297.54 28.035,307.083 145.478,239.277 145.478,229.737 	"/>
	<polygon fill="#434343" points="145.478,46.038 136.266,51.355 136.266,244.595 145.478,239.277 	"/>
	<polygon fill="#818181" points="136.266,51.355 119.627,41.279 119.627,225.136 136.646,235.374 	"/>
	<polygon fill="#6F6F6F" points="145.478,46.038 129.403,36.507 119.627,41.279 136.266,51.355 	"/>
	<polygon fill="#6F6F6F" points="136.646,235.374 119.627,225.136 11.589,287.795 28.035,297.54 	"/>
	<polygon fill="#818181" points="28.035,297.54 11.589,287.795 11.589,297.54 28.035,307.083 	"/>
	<path fill="#E7C59E" d="M307.79,213.784c-1.167-1.633-7.637-6.33-9.082-6.173c-4.178,0.454,4.541,7.989,3.271,8.536
		c-1.271,0.546-8.871,1.917-9.627,4.086c-1.455,4.178,3.815,12.897,7.265,13.443c3.454,0.545,10.264-3.541,12.08-5.357
		C313.513,226.502,309.605,216.33,307.79,213.784z"/>
	<path fill="#E7C59E" d="M276.368,186.903c-3.388-0.642-10.356,1.179-13.988,5.357c-3.633,4.178-2,5.95-0.546,8.086
		c1.179,1.724,10.644,3.466,16.804,2.811c2.917-0.306,0.908-8.989,2.903-8.627c1.999,0.362,2.908,4.086,5.725,3.27
		C288.872,197.333,285.995,188.72,276.368,186.903z"/>
	<path fill="#BF3230" d="M313.783,257.016c0.415-4.231,1.815,6.903,4.362,4.362c2.54-2.545,6.719-4.725,6.719-4.725
		s-1.995,4.179-4.179,6.902c-6.396,7.999,0.294,9.505-2.361,11.627C317.416,275.907,312.876,266.28,313.783,257.016z"/>
	<polygon fill="#434343" points="268.671,116.468 259.454,121.786 259.454,315.03 268.671,309.708 	"/>
	<polygon fill="#818181" points="259.454,121.786 242.82,111.714 242.82,295.57 259.839,305.809 	"/>
	<polygon fill="#434343" points="151.228,367.971 151.228,377.515 268.671,309.708 268.671,300.168 	"/>
	<polygon fill="#6F6F6F" points="259.839,305.809 242.82,295.57 134.782,358.226 151.228,367.971 	"/>
	<polygon fill="#818181" points="151.228,367.971 134.782,358.226 134.782,367.971 151.228,377.515 	"/>
	<g>
		<g>
			<polygon fill="#F3F3F3" points="151.936,214.963 26.311,142.428 122.675,86.793 248.303,159.328 			"/>
			<polygon fill="#B89369" points="97.475,183.52 82.736,175.006 179.096,119.372 193.844,127.885 			"/>
			<polygon fill="#D4B284" points="96.493,182.952 81.754,174.438 178.118,118.804 192.857,127.318 			"/>
		</g>
		<g>
			<polygon fill="#D9D9D8" points="26.284,287.459 151.914,359.994 151.914,214.933 26.284,142.402 			"/>
			<polygon fill="#9E7544" points="82.893,248.52 97.641,270.231 97.641,183.599 82.893,175.085 			"/>
			<g>
				<g>
					<g>
						<g>
							<g>
								<path fill="#9E7544" d="M122.775,304.778l21.349,12.32v29.488l-21.349-12.325V304.778z M142.684,317.938l-18.468-10.661
									v26.15l18.468,10.663V317.938z"/>
							</g>
						</g>
						<g>
							<g>
								<g>
									<polygon fill="#9E7544" points="137.139,317.597 139.693,330.062 137.58,328.839 137.58,335.851 136.698,335.339 
										136.698,328.337 134.589,327.114 									"/>
								</g>
								<g>
									<polygon fill="#9E7544" points="127.211,322.854 129.756,313.34 132.306,325.796 130.193,324.577 130.193,331.591 
										129.32,331.084 129.32,324.071 									"/>
								</g>
							</g>
							<g>
								<polygon fill="#9E7544" points="127.203,332.726 139.693,339.933 139.693,338.5 127.203,331.292 								"/>
							</g>
						</g>
					</g>
					<g>
						<g>
							<g>
								<path fill="#9E7544" d="M96.484,289.598l21.35,12.326v29.481l-21.35-12.324V289.598z M116.388,302.757l-18.463-10.661
									v26.151l18.463,10.662V302.757z"/>
							</g>
						</g>
						<g>
							<g>
								<g>
									<polygon fill="#9E7544" points="100.308,317.19 105.984,320.474 105.984,319.042 100.308,315.764 									"/>
								</g>
								<g>
									<path fill="#9E7544" d="M103.146,312.515L103.146,312.515c1.685,0.97,3.047-0.062,3.047-2.305v-10.12l-6.09-3.516v10.12
										C100.103,308.939,101.465,311.546,103.146,312.515z"/>
								</g>
								<g>
									<polygon fill="#9E7544" points="102.426,318.414 103.875,319.247 103.875,311.266 102.426,310.433 									"/>
								</g>
							</g>
							<g>
								<path fill="#9E7544" d="M107.888,319.631l2.118,1.224v-4.108c-1.384-1.358-2.323-3.406-2.323-5.126v-11.177l6.964,4.021
									v11.173c0,1.724-0.934,2.689-2.318,2.453v4.104l2.118,1.218v2.449l-6.558-3.789V319.631z M113.563,323.923l-2.113-1.222
									v-5.895l0.336,0.097c1.17,0.345,1.987-0.38,1.987-1.772v-10.16l-5.217-3.008v10.159c0,1.393,0.816,3.061,1.995,4.064
									l0.332,0.293v5.894l-2.118-1.228v0.424l4.799,2.769V323.923z"/>
							</g>
						</g>
					</g>
					<g>
						<g>
							<g>
								<path fill="#9E7544" d="M70.192,274.422l21.345,12.321v29.483l-21.345-12.321V274.422z M90.097,287.577l-18.464-10.657
									v26.152l18.464,10.658V287.577z"/>
							</g>
						</g>
						<g>
							<g>
								<g>
									<path fill="#9E7544" d="M82.604,307.809L82.604,307.809c0.816,0.472,1.441,0.563,1.86,0.274
										c0.441-0.309,0.62-1.029,0.529-2.144l-1.311-0.606c0.04,0.445,0.036,1.004-0.192,1.165c-0.162,0.11-0.454,0.04-0.886-0.209
										l0,0c-0.45-0.257-0.742-0.511-0.881-0.76c-0.136-0.235-0.197-0.599-0.197-1.074V293.37l-1.318-0.764v11.09
										c0,0.908,0.179,1.654,0.563,2.336C81.172,306.747,81.775,307.332,82.604,307.809z"/>
								</g>
							</g>
							<g>
								<path fill="#9E7544" d="M73.144,288.598c0.629-4.147,3.846-5.723,7.724-3.488c3.873,2.235,7.09,7.531,7.728,12.412
									L73.144,288.598z"/>
							</g>
						</g>
					</g>
				</g>
			</g>
			<polygon fill="#B89369" points="81.723,246.944 96.471,268.646 96.471,182.921 81.723,174.409 			"/>
		</g>
		<g>
			<polygon fill="#B0A49A" points="151.9,360.033 248.269,304.39 248.269,159.333 151.9,214.972 			"/>
			<polygon fill="#9E7544" points="202.693,239.744 238.791,218.901 238.791,177.22 202.693,198.058 			"/>
			<polygon fill="#EAEAEA" points="202.938,238.954 238.476,218.434 238.476,177.399 202.938,197.915 			"/>
			<polygon fill="#9E7544" points="206.208,201.254 235.206,184.511 235.206,182.809 206.208,199.551 			"/>
			<polygon fill="#9E7544" points="206.208,205.598 235.206,188.859 235.206,187.157 206.208,203.9 			"/>
			<polygon fill="#9E7544" points="206.208,209.484 235.206,192.736 235.206,191.034 206.208,207.781 			"/>
			<polygon fill="#9E7544" points="206.208,231.362 235.206,214.614 235.206,211.771 206.208,228.51 			"/>
			<polygon fill="#9C7145" points="231.377,202.751 235.206,208.201 227.544,212.627 			"/>
			<polygon fill="#9C7145" points="210.041,215.077 213.87,220.526 206.208,224.943 			"/>
			<polygon fill="#9C7145" points="220.703,208.916 224.536,214.365 216.874,218.788 			"/>
		</g>
	</g>
</g>
</svg>
