<?xml version="1.0" encoding="utf-8"?>
<!-- Generator: Adobe Illustrator 16.0.0, SVG Export Plug-In . SVG Version: 6.00 Build 0)  -->
<!DOCTYPE svg PUBLIC "-//W3C//DTD SVG 1.1//EN" "http://www.w3.org/Graphics/SVG/1.1/DTD/svg11.dtd">
<svg version="1.1" id="Layer_1" xmlns="http://www.w3.org/2000/svg" xmlns:xlink="http://www.w3.org/1999/xlink" x="0px" y="0px"
	 width="265.545px" height="265.493px" viewBox="0 0 265.545 265.493" enable-background="new 0 0 265.545 265.493"
	 xml:space="preserve">
<g>
	<g>
		<path fill="#3F2E75" d="M263.808,139.306V126.19l-15.063-4.998c-0.242-2.458-0.564-4.893-0.955-7.305l13.25-8.721l-3.395-12.668
			l-15.811-0.929c-0.873-2.313-1.809-4.596-2.818-6.839l10.516-11.823l-6.559-11.359l-15.502,3.196
			c-1.439-2.008-2.941-3.967-4.506-5.875l7.1-14.144l-9.273-9.273l-14.111,7.082c-1.914-1.574-3.885-3.086-5.896-4.539l3.186-15.451
			l-11.357-6.559l-11.738,10.44c-2.271-1.035-4.586-1.994-6.934-2.884l-0.918-15.67l-12.668-3.396l-8.615,13.086
			c-2.467-0.408-4.961-0.745-7.48-0.995l-4.93-14.858h-13.115l-4.916,14.818c-2.537,0.242-5.049,0.568-7.535,0.971l-8.57-13.021
			L92.524,7.873l-0.906,15.5c-2.404,0.899-4.771,1.869-7.096,2.918L72.937,15.985l-11.361,6.558l3.129,15.174
			c-2.088,1.494-4.125,3.057-6.107,4.683l-13.842-6.946l-9.275,9.273l6.93,13.81c-1.639,1.988-3.209,4.035-4.715,6.132
			l-15.123-3.119l-6.559,11.359l10.23,11.502c-1.072,2.354-2.064,4.753-2.982,7.188l-15.361,0.9l-3.395,12.668l12.857,8.463
			c-0.418,2.544-0.762,5.114-1.012,7.711l-14.613,4.85v13.114l14.613,4.847c0.25,2.599,0.594,5.17,1.012,7.715l-12.857,8.462
			l3.395,12.67l15.361,0.898c0.918,2.437,1.91,4.835,2.982,7.188l-10.23,11.502l6.559,11.357l15.123-3.118
			c1.506,2.097,3.076,4.145,4.715,6.132l-6.93,13.809l9.275,9.275l13.842-6.947c1.982,1.625,4.02,3.188,6.107,4.682l-3.129,15.174
			l11.361,6.558l11.586-10.305c2.324,1.049,4.689,2.02,7.096,2.92l0.906,15.498l12.668,3.396l8.57-13.023
			c2.486,0.404,4.998,0.729,7.535,0.972l4.916,14.819h13.115l4.93-14.858c2.52-0.25,5.014-0.586,7.48-0.994l8.615,13.086
			l12.668-3.396l0.918-15.668c2.348-0.891,4.662-1.85,6.934-2.883l11.738,10.438l11.357-6.558l-3.186-15.45
			c2.012-1.453,3.982-2.964,5.896-4.539l14.111,7.082l9.273-9.275l-7.1-14.144c1.564-1.907,3.064-3.867,4.506-5.872l15.502,3.193
			l6.559-11.357l-10.516-11.824c1.012-2.243,1.945-4.525,2.818-6.84l15.811-0.927l3.395-12.67l-13.25-8.721
			c0.391-2.412,0.713-4.846,0.955-7.305L263.808,139.306z M204.169,204.791c-18.904,18.905-44.857,29.661-71.611,29.661
			c-26.752,0-52.703-10.756-71.611-29.661c-18.906-18.907-29.662-44.859-29.662-71.612S42.04,80.475,60.946,61.567
			c18.908-18.907,44.859-29.663,71.611-29.663c26.754,0,52.707,10.756,71.611,29.663c18.906,18.907,29.662,44.858,29.662,71.611
			S223.075,185.884,204.169,204.791z"/>
	</g>
</g>
</svg>
