<?xml version="1.0" encoding="utf-8"?>
<!-- Generator: Adobe Illustrator 16.0.0, SVG Export Plug-In . SVG Version: 6.00 Build 0)  -->
<!DOCTYPE svg PUBLIC "-//W3C//DTD SVG 1.1//EN" "http://www.w3.org/Graphics/SVG/1.1/DTD/svg11.dtd">
<svg version="1.1" id="Layer_1" xmlns="http://www.w3.org/2000/svg" xmlns:xlink="http://www.w3.org/1999/xlink" x="0px" y="0px"
	 width="519.08px" height="498.084px" viewBox="0 0 519.08 498.084" enable-background="new 0 0 519.08 498.084"
	 xml:space="preserve">
<g>
	<g>
		<path fill="#F5C185" d="M339.044,257.346c1.598,2.003,2.014,3.374,4.446,4.786c2.227,1.29,4.635,2.367,7.127,3.224
			c4.873,1.675,10.698,2.799,15.825,1.293c0.221-0.066,0.412-0.169,0.577-0.298c0.235,0.478,0.47,0.956,0.71,1.434
			c0.862,1.721,3.977,2.058,4.872,0.136c2.163-4.609,3.363-18.017-5.061-18.7c-0.716-0.056-1.315,0.106-1.79,0.393
			c-1.123-0.066-2.248-0.136-3.34-0.246c-0.162-0.015-0.321-0.048-0.475-0.096c-0.687-0.206-1.37-0.368-2.059-0.497
			c-0.996-0.242-2.08-0.404-3.289-0.507c-3.193-0.268-6.461-0.434-9.667-0.485c-0.62-0.012-1.278,0.029-1.952,0.073
			c-0.234,0.015-0.47,0-0.697-0.052c-0.18-0.043-0.375-0.059-0.592-0.043c-0.298,0.018-0.594,0.066-0.89,0.132
			c-0.213,0.048-0.425,0.081-0.642,0.077c-0.884-0.018-1.735-0.114-2.512-0.393c-2.062-0.736-3.52,1.981-1.451,2.72
			c0.144,0.051,0.29,0.083,0.438,0.125c-0.707,0.783-1.234,1.654-1.491,2.506C336.562,254.858,337.9,255.909,339.044,257.346z
			 M358.887,259.345c0.75-0.106,1.498-0.231,2.241-0.378c0.258-0.052,0.519-0.07,0.78-0.04c0.68,0.076,1.37,0.187,2.062,0.308
			c0.473,1.4,1.036,2.771,1.643,4.127c-1.607-0.394-3.742-0.736-4.869-1.367c-0.979-0.552-0.981-1.974-1.851-2.643
			C358.89,259.35,358.887,259.35,358.887,259.345z"/>
		<path fill="#F5C185" d="M346.36,252.087c-2.233-10.424-8.765-20.789-14.146-29.837c-5.201-8.74-11.041-17.057-17.393-24.996
			c-5.77-7.222-3.755-15.37-4.236-24.158c-0.632-11.64-2.249-23.224-4.814-34.599c-2.694,5.92-8.802,9.886-15.617,10.191
			c-2.097,0.096-4.116-0.275-5.99-1.004c0.71,10.391,3.23,19.932,5.873,29.682c2.099,7.748,3.719,15.741,5.994,23.397
			c2.589,8.717,8.917,16.465,14.933,23.584c1.258,1.485,2.5,2.941,3.691,4.374c5.009,6.024,10.173,11.922,15.483,17.689
			c2.963,3.216,12.266,17.054,15.984,10.446C347.383,254.619,346.911,254.645,346.36,252.087z"/>
		<path fill="#843A1C" d="M293.012,87.701c-0.516-12.159-8.484-26.011-6.213-37.268c1.851-9.174,3.024-18.399-3.456-26.039
			c-6.891-8.123-18.652-13.698-29.001-15.256c-9.553-1.441-18.381,0.706-26.015,6.689c-7.001,5.49-12.721,13.713-13.599,22.746
			c-0.459,4.741,0.864,9.379,2.555,13.761c0.584,1.518,1.208,3.024,1.752,4.55c-0.157,0.434-0.268,0.893-0.315,1.378
			c-0.727,7.076-0.264,14.168-0.073,21.262c0.167,6.204-0.828,12.775,1.031,18.806c3.073,9.968,12.093,15.837,22.02,17.543
			c6.674,1.15,13.33,0.797,19.934-0.633c6.161-1.333,12.1-3.542,18.285-4.77c1.558-0.309,2.916-0.643,4.099-1.026l-1.014-11.132
			l3.621,10.059c3.825-2.021,5.108-5.318,6.012-11.894C293.038,93.545,293.142,90.619,293.012,87.701z"/>
		<path fill="#F5C185" d="M157.132,251.576c-0.194-0.904-0.658-1.867-1.289-2.76c0.142-0.026,0.286-0.037,0.429-0.069
			c2.029-0.457,0.784-3.43-1.241-2.971c-0.761,0.169-1.588,0.148-2.438,0.041c-0.209-0.029-0.415-0.091-0.613-0.169
			c-0.279-0.109-0.563-0.201-0.849-0.264c-0.209-0.045-0.4-0.055-0.574-0.041c-0.219,0.022-0.449,0.003-0.672-0.044
			c-0.643-0.144-1.275-0.275-1.874-0.353c-3.087-0.405-6.241-0.702-9.329-0.881c-1.167-0.071-2.223-0.056-3.197,0.046
			c-0.664,0.034-1.333,0.104-2.007,0.214c-0.15,0.025-0.305,0.037-0.458,0.029c-1.059-0.044-2.143-0.132-3.232-0.228
			c-0.44-0.357-1.005-0.61-1.697-0.651c-8.145-0.507-7.762,13.309-5.95,18.311c0.757,2.081,3.771,2.179,4.696,0.551
			c0.257-0.449,0.515-0.901,0.765-1.357c0.156,0.155,0.336,0.291,0.541,0.387c4.849,2.264,10.52,1.947,15.305,0.937
			c2.445-0.518,4.822-1.272,7.038-2.268c2.425-1.087,2.903-2.425,4.553-4.237C156.222,254.501,157.57,253.623,157.132,251.576z
			 M135.827,255.016c-0.875,0.559-0.958,2.007-1.932,2.426c-1.121,0.482-3.198,0.529-4.764,0.699
			c0.662-1.294,1.28-2.609,1.819-3.966c0.674-0.026,1.343-0.041,2-0.022c0.253,0.011,0.507,0.066,0.75,0.155
			c0.705,0.256,1.418,0.488,2.135,0.701C135.832,255.013,135.832,255.013,135.827,255.016z"/>
		<path fill="#F5C185" d="M258.554,487.908h28.566c0.595-4.605,1.14-9.217,1.555-13.844c1.136-12.654,1.355-25.32,0.515-37.922
			c-0.788-11.826-3.602-23.768-2.826-35.688c0.125-1.879,0.323-3.745,0.573-5.604c-2.908-0.387-5.808-0.854-8.695-1.346
			c-4.298-0.73-8.568-1.58-12.865-2.297c-1.076-0.18-2.158-0.363-3.238-0.533c-0.165-0.025-0.498-0.073-0.841-0.125
			c-0.356-0.043-0.706-0.087-0.875-0.107c-0.99-0.115-1.978-0.223-2.965-0.326c-0.713-0.07-1.427-0.128-2.14-0.198
			c0.441,19.718,1.008,39.429,1.805,59.107C257.65,462.002,258.269,474.932,258.554,487.908z"/>
		<path fill="#F5C185" d="M203.652,487.908h28.562c0.848-12.859,2.018-25.672,3.097-38.535c1.694-20.229,3.143-40.49,4.466-60.759
			c-2.132-0.169-4.268-0.35-6.398-0.549c-8.815-0.813-18.084-1.726-27.015-3.741c1.017,5.33,1.737,10.711,1.856,16.18
			c0.256,11.938-3.072,23.867-4.374,35.699c-1.39,12.607-1.717,25.289-1.135,37.965
			C202.923,478.758,203.264,483.336,203.652,487.908z"/>
		<path fill="#F5C185" d="M243.403,109.628c4.932,4.623,15.746,6.505,20.361-0.121c2.175,0.095,4.429-2.161,3.662-5.708
			c-0.085-0.357-0.148-0.713-0.229-1.063c-0.017-0.591-0.128-1.209-0.356-1.831c-0.362-2.149-0.614-4.325-0.864-6.498
			c-0.101-0.878-0.197-1.752-0.307-2.631c-0.016-0.569-0.023-1.139-0.008-1.712c0.026-1.287-0.26-2.291-0.727-3.018
			c-0.041-0.177-0.07-0.357-0.11-0.533c-0.092-0.459-0.196-0.915-0.307-1.371c-1.187-4.841-5.954-3.899-6.836,0.026
			c-0.838,0.474-1.565,1.363-1.958,2.753c-0.066,0.234-0.133,0.473-0.185,0.712c-0.246,1.056-0.375,2.15-0.415,3.26
			c-0.011,0.007-0.026,0.007-0.037,0.016c-0.032,0.01-0.066,0.032-0.107,0.051c-1.263-0.904-2.932-0.823-4.061,0.474
			c-0.519-0.228-1.072-0.298-1.617-0.209c-0.104-0.232-0.221-0.449-0.356-0.644c-0.099-0.511-0.246-0.952-0.434-1.334
			c-1.515-3.167-5.532-1.999-6.361,1.459c-0.191,0.728-0.222,1.566-0.06,2.481c0.18,1.044,0.292,2.095,0.35,3.161
			c-0.066,0.842-0.129,1.687-0.194,2.532v0.004c-0.119,1.521-0.228,3.032-0.272,4.557
			C241.628,106.235,241.967,108.279,243.403,109.628z"/>
		<path fill="#E2AA71" d="M242.091,94.188c0.18,1.044,0.292,2.095,0.35,3.161c-0.066,0.842-0.129,1.687-0.194,2.532v0.004
			c0,0,8.041,15.3,24.594,1.021c-0.103-0.878-1.061-8.25-1.171-9.129c-0.016-0.569-0.023-1.139-0.008-1.712
			c0.026-1.287-0.26-2.291-0.727-3.018c-0.041-0.177-0.07-0.357-0.11-0.533l-9.286,2.12l-7.026,1.614l-6.361,1.459
			C241.96,92.435,241.93,93.272,242.091,94.188z"/>
		<path fill="#F5C185" d="M224.95,34.913c1.084-1.18,2.492-2.213,4.296-3.069c3.485-1.654,9.101-0.268,12.779-1.073
			c6.293-1.375,15.111-4.29,20.432,0.639c4.952,4.583,4.143,11.904,5.164,18.289c0.214,1.331,0.508,2.643,0.839,3.943
			c0.062-0.063,0.122-0.129,0.177-0.184c1.367-1.315,3.026-2.091,4.938-2.113c1.437-0.019,3.229,0.926,3.558,2.466
			c1.074,5.068-1.367,9.746-5.038,13.164c-0.035,0.03-0.067,0.056-0.101,0.081c0.35,2.15,0.493,4.345,0.281,6.624
			c-0.75,7.916-5.665,13.668-10.817,19.31c-4.757,5.208-10.5,6.299-17.255,4.539c-6.84-1.783-10.281-6.737-13.14-12.853
			c-3.105-6.645-5.984-13.179-6.464-20.571C224.006,55.042,218.199,42.237,224.95,34.913z"/>
		<path fill="#F5C185" d="M185.54,225.908c-1.4,1.345-2.79,2.664-4.125,3.969c-5.607,5.469-11.355,10.802-17.232,15.984
			c-3.283,2.893-13.973,15.686-16.985,8.729c-1.021-2.359-0.553-2.286,0.257-4.77c3.305-10.133,10.876-19.766,17.167-28.205
			c6.084-8.152,12.754-15.818,19.896-23.055c6.491-6.583,5.333-14.896,6.725-23.588c1.879-11.765,4.768-23.365,8.623-34.64
			c2.383-6.961,7.396-25.599,15.621-28.091c4.071-1.235,5.473,9.111,2.756,10.813c1.613,6.795,2.606,14.094,2.126,21.088
			c0.443,0.75,0.687,1.72,0.562,2.885c-1.342,12.496-5.422,23.276-9.693,34.324c-2.891,7.486-5.336,15.271-8.391,22.651
			C199.366,212.404,192.266,219.454,185.54,225.908z"/>
		<path fill="#F5C185" d="M217.02,130.268c0.193-5.994-0.188-11.981-1.534-18.031c2.375-0.93,4.929-1.551,7.506-2.069
			c1.224-0.243,2.451-0.463,3.671-0.684c2.675-0.481,5.3-0.948,7.716-1.628c3.704-1.05,6.812-1.903,10.447-0.092
			c2.048,1.014,4.025,2.331,6.293,2.583c4.075,0.457,6.151-2.381,9.305-4.167c1.301-0.739,2.573-1.095,3.922-1.253
			c2.992-0.331,6.598,2.403,9.313,3.447c3.495,1.338,7.038,2.54,10.597,3.702c0.065,0.018,0.124,0.036,0.186,0.059
			c1.358,0.452,2.728,0.893,4.083,1.337c1.33,0.435,2.653,0.868,3.98,1.305c0.569,0.188,1.103,0.394,1.592,0.621
			c2.407,1.104,3.8,2.727,4.329,5.7c0.231,1.305,0.256,2.602,0.166,3.897c-0.383,0.249-0.739,0.554-1.038,0.925
			c-2.312,2.87-3.533,5.958-4.355,9.236c0.069,0.574,0.043,1.184-0.111,1.831c-0.683,2.885-1.448,5.777-1.778,8.718
			c-0.228,2.021-1.214,3.664-2.896,4.421c-0.577,0.261-1.231,0.415-1.973,0.448c-1.967,0.093-3.915,0.019-5.849-0.128
			c-2.768-0.221-5.506-0.61-8.269-0.988c-0.678-0.088-1.358-0.173-2.033-0.247c-1.231-0.136-2.462-0.238-3.698-0.324
			c-0.156,0.555-0.499,1.099-1.072,1.588c-9.163,7.799-22.412,8.92-31.277,0.011c-0.556-0.558-0.866-1.157-1-1.76
			c-1.271-0.059-2.543-0.136-3.809-0.243c-1.37,1.294-3.391,1.804-5.494,0.507c-3.421-2.121-6.179-6.068-7.302-10.275
			c-0.648-2.426-0.75-4.94-0.122-7.229C216.641,131.029,216.809,130.628,217.02,130.268z"/>
		<path fill="#231F20" d="M301.841,339.153c0.886-8.933,2.794-85.419-8.31-77.878c-0.169-0.359-0.331-0.724-0.508-1.08
			c-1.33-2.737-2.748-5.414-4.052-8.159c-0.151-0.298-0.287-0.6-0.431-0.904c-0.768-1.647-3.05-9.67-4.492-10.303
			c-1.462-0.635-3.043-1.051-4.771-1.179c-0.438-0.092-0.87-0.111-1.301-0.066c-4.002-0.088-8.228,0.713-12.202,1.235
			c-11.385,1.473-22.966,0.29-34.377,1.562c-2.679,0.305-5.341,0.566-7.811,1.378c-2.11-3.242-8.137-3.609-9.498,1.238
			c-0.122,0.441-0.265,0.878-0.417,1.304c-3.501,9.755-10.263,17.289-13.164,27.096c-4.133,13.977-3.696,31.298-3.85,45.768
			c-0.222,20.49,2.751,40.197,6.508,60.313c1.654,8.833,2.844,18.088,1.636,27.065c-1.283,9.521-6.763,15.865-9.38,24.73
			c-5.969,20.293,84.604,25.066,94.591,10.67c2.529-3.646,2.937-8.457,2.885-12.764c-0.176-14.475-1.68-30.48,0.493-45.464
			c2.168-14.975,6.939-29.436,8.449-44.543C301.841,339.166,301.841,339.158,301.841,339.153z"/>
		<path fill="#2F67B2" d="M290.967,228.576c-3.061-9.464-7.484-19.752-6.696-29.102c0.304-3.609,1.297-6.998,2.518-10.32
			c0.577-1.577,1.208-3.15,1.83-4.719c0.434,1.124,0.881,2.246,1.33,3.362c2.688,6.667,4.907,13.922,6.396,21.026
			c0.228,1.092,7.197,0.552,11.555-0.179c1.298-0.218,2.765-0.463,4.234-0.963c4.098-1.4,6.298-5.858,5.13-10.026
			c-1.364-4.863-3.091-9.726-4.032-14.595c-2.113-11.004-2.4-21.924-3.22-33.063c-0.764-10.391-2.062-22.181-8.19-30.987
			c-6.821-9.824-19.006-9.714-29.248-13.341c-0.118-0.044-0.229-0.066-0.348-0.099c-0.16-1.79-0.205-3.62-0.695-5.348
			c-0.406-1.459-1.469-2.642-2.804-3.286c-9.592,4.007-20.361,6.079-29.325,0.93c-1.466,0.905-2.37,2.519-2.564,4.433
			c-0.176,1.735-0.57,3.463-0.916,5.19c-6.186-0.525-12.955,0.555-18.476,2.499c-7.892,2.771-11.806,9.449-14.837,16.852
			c-2.981,7.277-4.693,14.939-6.862,22.47c-3.025,10.486-3.12,21.707-6.786,31.982c-1.697,4.771-3.035,9.523-0.499,14.264
			c2.228,4.153,5.91,7.443,8.936,10.993c2.388,2.812,6.314,1.386,8.15-1.051c3.026-4.002,5.127-8.526,6.844-13.253
			c0.765-2.125,1.452-4.292,2.117-6.464c0.724,1.246,1.411,2.491,1.992,3.796c0.907,2.069,1.529,4.286,1.559,6.822
			c0.061,7.453-3.144,14.562-5.124,21.636c-3.11,11.1-8.2,24.706-8.075,36.356c0.006,0.956,0.111,1.753,0.371,2.271
			c0.194,0.405,0.4,0.795,0.628,1.177c3.492,5.763,10.372,7.402,16.447,8.986c18.793,4.893,39.598,10.339,58.78,4.23
			c6.792-2.161,14.087-5.601,15.968-13.132c1.61-6.454-2.855-17.168-4.399-23.519C292.193,232.512,291.61,230.564,290.967,228.576z"
			/>
		<path fill="#843A1C" d="M277.055,36.085c-0.537-0.317-1.088-0.511-1.635-0.618c-0.354-1.363-1.25-2.617-2.43-3.421
			c-10.475-7.112-22.132-9.6-34.176-12.713c-2.992-0.776-5.189,0.952-6.05,3.193c-6.252-1.687-8.865,8.13-2.554,10.067
			c0.688,0.209,1.318,0.485,1.915,0.805c1.003,0.856,2.039,1.654,3.116,2.385c1.55,1.577,2.823,3.477,4.087,5.347
			c3.021,4.47,6.244,9.082,11.214,11.552c10.756,5.34,21.934-0.434,28.376-9.494C280.542,40.903,279.323,37.412,277.055,36.085z"/>
		<path fill="#0F4C8D" d="M220.958,187.596c-2.006,0.099-3.44,0.905-4.458,1.981c-0.582-1.305-1.268-2.55-1.992-3.796
			c-0.666,2.172-1.352,4.34-2.117,6.464c-3.046-8.074-8.825-26.94-0.275-35.496C204.004,176.394,220.958,187.596,220.958,187.596z"
			/>
		<path fill="#0F4C8D" d="M277.386,190.518c0,0,5.81-2.922,11.232-6.082c-0.623,1.569-1.253,3.143-1.83,4.719
			C282.374,190.543,277.386,190.518,277.386,190.518z"/>
		<path fill="#0F4C8D" d="M292.609,185.351c-0.617,0.992-1.551,1.797-2.662,2.447c-0.449-1.116-0.896-2.238-1.33-3.362
			c5.31-3.095,0.408-24.805,0.209-25.698C289.085,159.52,295.792,180.231,292.609,185.351z"/>
	</g>
	<g>
		<rect x="158.504" y="241.678" fill="#843A1C" width="179.054" height="23.188"/>
		<polygon fill="#843A1C" points="325.985,487.908 337.063,290.247 160.628,290.247 171.705,487.908 		"/>
		<polygon fill="#A55235" points="360.154,304.754 137.533,304.754 132.486,260.419 365.2,260.419 		"/>
		<path fill="#662611" d="M185.689,487.908l-5.285-145.328c-0.448-12.271,9.38-22.463,21.659-22.463h133.325l0.86-15.363H161.441
			l10.264,183.154H185.689z"/>
	</g>
	<g>
		<g>
			<path fill="#843A1C" d="M130.517,299.558c5.855,1.544,10.493,6.925,11.151,12.944c0.662,6.016-2.698,12.276-8.076,15.055
				c2.526-0.452,5.246,1.312,5.859,3.8c0.613,2.491-0.971,5.318-3.415,6.095c3.956,1.859,3.675,8.762-0.411,10.297
				c2.062-2.48,5.989-2.825,8.842-1.327c2.856,1.503,4.704,4.475,5.593,7.571c0.802,2.79,0.891,5.929-0.517,8.465
				c-1.407,2.535-4.595,4.194-7.33,3.216c0.478-1.055,2.042,0.136,2.282,1.271c1.074,4.995-2.63,10.505-7.662,11.39
				c-0.541-1.172,0.212-2.749,1.462-3.068c0.084,3.113-0.581,6.369-2.54,8.788c-1.96,2.418-5.411,3.773-8.321,2.671
				c-1.132-0.427-2.191-1.2-3.396-1.187c-1.073,0.015-2.021,0.65-2.996,1.099c-3.951,1.819-9.133,0.31-11.489-3.345
				c-0.813-1.261-1.367-2.778-2.625-3.595c-0.812-0.532-1.808-0.687-2.683-1.106c-2.749-1.315-3.635-5.009-2.757-7.927
				s3.058-5.234,5.168-7.433c-3.657-3.994-5.925-9.239-6.34-14.642c-0.169-2.228,0.706-5.211,2.937-5.115
				c-2.208-5.289-0.93-11.846,3.11-15.915c-0.971-2.764-1.625-5.95-0.218-8.519c1.519-2.768,4.687-2.87,6.943-1.253
				C108.054,305.432,117.679,296.17,130.517,299.558z"/>
			<path fill="#843A1C" d="M100.255,291.924c-2.283,0.045-4.756,0.574-6.216,2.331c-1.462,1.756-1.149,4.988,1,5.755
				c0.949-3.83-3.068-7.465-7.016-7.574c-3.947-0.115-7.53,2.175-10.662,4.582c-1.794,1.378-3.241,4.712-1.062,5.315
				c-3.547-2.569-8.59-2.878-12.419-0.762c-3.833,2.114-6.259,6.542-5.979,10.913c-4.742,0.661-8.905,4.385-10.093,9.022
				c-1.183,4.639,0.687,9.906,4.527,12.757c-4.95-1.992-11.275-0.746-14.443,3.546c-3.165,4.298-2.026,11.38,2.723,13.816
				c0.978-2.106-1.422-4.635-3.727-4.333c-2.301,0.304-3.94,2.577-4.289,4.874c-0.345,2.292,0.309,4.611,0.974,6.835
				c0.837,2.782,1.75,5.643,3.657,7.832c1.912,2.188,5.09,3.539,7.788,2.463c-4.322,1.437-2.833,7.924-0.375,11.758
				c0.952,1.478,2.037,3.03,3.687,3.639c1.65,0.605,3.943-0.336,4.014-2.092c0.239,5.006,7.177,8.156,11.103,5.038
				c2.212,2.235,5.226,3.955,8.357,3.661c3.127-0.297,6.068-3.224,5.524-6.32c6.255,0.021,11.978-5.613,12.055-11.869
				c8.615,0.347,16.246-8.773,14.382-17.193c6.237-3.594,8.28-12.862,4.135-18.748c4.017,5.697,6.344-10.664,6.352-10.818
				c0.392-6.047-1.18-2.596,2.833-8.289C125.342,306.347,115.386,291.642,100.255,291.924z"/>
			<path fill="#843A1C" d="M126.003,322.367c-1.286-1.396-2.958-2.624-5.101-3.643c-4.135-1.958-10.798-0.316-15.164-1.267
				c-7.468-1.633-17.932-5.094-24.25,0.757c-5.873,5.439-4.914,14.128-6.127,21.703c-0.25,1.584-0.603,3.14-0.996,4.683
				c-0.07-0.074-0.143-0.154-0.209-0.217c-1.621-1.566-3.592-2.481-5.862-2.511c-1.706-0.021-3.829,1.095-4.22,2.926
				c-1.275,6.017,1.625,11.566,5.98,15.625c0.037,0.031,0.077,0.064,0.114,0.098c-0.412,2.552-0.584,5.156-0.327,7.862
				c0.89,9.395,6.719,16.219,12.838,22.915c5.642,6.181,12.46,7.476,20.479,5.388c8.115-2.117,12.199-7.997,15.59-15.256
				c3.687-7.887,7.101-15.643,7.674-24.411C127.125,346.259,134.015,331.067,126.003,322.367z"/>
			<path fill="#843A1C" d="M123.629,313.84c0.537,5.685-3.767,10.339-8.669,12.379c-4.205,1.746-8.964,2.123-13.393,1.065
				c-2.812,5.267-10.001,7.655-15.407,5.13c0.796,2.104-1.35,4.092-3.276,5.249c-4.223,2.542-9.904,4.579-13.786,1.54
				c-3.69-2.888-3.359-8.509-2.356-13.083c0.261-1.182,0.592-2.441,1.514-3.224c0.926-0.779,2.628-0.712,3.087,0.409
				c-0.201-2.195-0.003-4.51,1.11-6.415c1.11-1.9,3.289-3.288,5.473-2.983c1.014,0.143,1.988,0.632,3.01,0.539
				c2.829-0.252,3.568-4.333,6.104-5.616c1.617-0.814,3.657-0.26,5.065,0.88c1.407,1.139,2.318,2.764,3.202,4.345
				c0.091-2.474,1.907-4.787,4.285-5.465c2.381-0.68,5.141,0.327,6.527,2.377c0.743-1.456,1.882-2.849,3.462-3.257
				c1.583-0.407,3.564,0.636,3.62,2.268c-0.103-3.042,6.862-0.543,7.921,0.231c1.617,1.188,1.97,2.86,3.296,4.098
				c2.271,2.12,5.307,3.036,7.429,5.543c2.219,2.627,3.539,6.219,2.72,9.559c-0.492,2.01-2.169,4.025-4.228,3.805
				c-1.51-0.162-2.682-1.522-3.072-2.991c-0.393-1.472-0.154-3.03,0.162-4.514c-2.125,0.113-4.363-0.03-6.186-1.132
				c-1.819-1.104-3.054-3.409-2.341-5.415L123.629,313.84z"/>
		</g>
		<g>
			<path fill="#231F20" d="M300.121,332.548c0.42-3.665,0.457-7.458-0.168-11.548c-1.673-10.938-8.729-24.162-21.401-24.129
				c-3.142,0.008-6.259,0.662-9.402,0.607c-4.966-0.082-8.111-3.496-12.787-4.518c-4.502-0.982-9.225-0.776-13.712,0.165
				c-8.535,1.79-17.671,6.557-21.998,14.463c-2.54,0.837-4.612,2.645-6.227,4.95c-0.889,0.426-1.704,1.118-2.362,2.128
				c-5.627,8.637-4.767,19.893-2.643,29.505c1.702,7.702,4.509,15.433,8.28,22.484c0.813,6.659,3.11,13.081,8.409,16.603
				c4.973,3.3,13.143,1.668,18.988,1.418c12.536-0.529,24.558-4.946,37.131-1.363c4.506,1.283,9.257-1.084,11.75-4.909
				c1.197-1.843,1.943-3.937,2.373-6.108c1.912-3.415,2.794-7.603,3.6-11.38C301.883,351.858,302.161,341.784,300.121,332.548z"/>
			<path fill="#231F20" d="M229.992,389.096c-2.045-5.521-3.749-11.449-4.383-16.366c-0.217-1.669-0.376-3.329-0.46-4.969
				c-0.4-7.869,0.625-15.153-1.9-22.876c-0.015-4.248,0.073-8.46,0.217-12.569c0.293-8.446,3.281-13.389,7.765-16.072
				c4.87-2.914,11.501-3.157,18.352-2.323c9.81,1.199,20.442-2.749,29.839,1.478c9.971,4.484,12.569,14.221,12.192,24.353
				c-0.188,4.958-0.784,10.032-1.607,14.925c-0.904,5.367,0.191,10.626-0.169,15.967c-0.286,4.252-7.461,27.339-12.118,33.283
				c-6.244,7.969-16.587,8.66-25.984,8.391c-8.523-0.25-14.29-6.752-17.789-13.918C232.614,395.66,231.24,392.453,229.992,389.096z"
				/>
			<path fill="#231F20" d="M285.556,369.639c-0.223-0.272-0.377-0.617-0.418-1.055c-0.034-0.346-0.045-0.691-0.06-1.033
				c-0.345-0.503-0.492-1.154-0.238-1.86c0.102-0.287,0.195-0.576,0.293-0.863c0.222-2.693,0.945-5.321,2.228-7.707
				c-1.283-0.072-2.488-1.295-1.649-2.702c1.44-2.428,4.223-6.569,7.641-4.857c3.259,1.636,2.694,6.627,2.318,9.534
				c-0.705,5.497-2.197,14.821-9.614,14.007C284.108,372.888,284.215,370.502,285.556,369.639z"/>
			<path fill="#231F20" d="M221.809,351.447c0.558-0.614,1.226-1.037,2.028-1.092c2.312-0.162,3.606,2.572,4.336,4.932
				c0.434,1.394-0.246,2.43-1.116,2.746c0.829,3.259,1.322,6.772,1.753,8.275c0.348,1.225-0.261,2.319-1.06,2.754
				c-0.081,0.118-0.171,0.224-0.264,0.319c0.423,0.732,0.857,1.448,1.301,2.154c1.268,2.011-1.156,4.648-2.621,2.87
				c-2.616-3.183-5.174-7.831-6.063-12.632c-0.078-0.269-0.162-0.532-0.229-0.801C219.147,358.033,218.937,352.701,221.809,351.447z
				"/>
			<path fill="#231F20" d="M300.578,310.86c-0.9-5.292-3.032-10.265-7.13-14.367c-4.278-4.286-10.123-7.148-16.095-7.979
				c-6.619-0.919-13.007,0.852-19.545,1.55c-1.065-0.438-2.14-0.823-3.22-1.107c-8.663-2.241-18.373-2.777-26.682,1.04
				c-3.301,1.515-6.094,4.037-8.229,7.101c-3.095,1.515-5.848,3.684-8.106,6.87c-6.972,9.849-7.629,26.815,6.099,30.233
				c0.128,8.066,1.967,16.805,9.104,19.446c5.417,2.007,0.441-4.562-0.118-5.358c-2.083-2.97-2.937-6.72-1.811-10.236
				c2.381-7.438,11.922-8.53,18.12-11.452c0.881-0.419,1.755-0.849,2.619-1.301c1.919-0.485,3.797-1.144,5.602-2.051
				c4.833-2.438,8.457-6.322,12.144-10.148c7.166,5.839,15.855,9.147,22.525,15.525c3.834,3.664,5.268,9.364,6.333,14.51
				c0.44,2.15,3.344,1.4,3.667-0.463c0.192-0.235,0.327-0.541,0.365-0.938c0.253-2.704,0.22-5.593-0.092-8.492
				c0.444,0.197,0.951,0.243,1.429,0.052c0.99,0.573,2.624,0.318,3.116-1.114C302.985,325.458,302.717,317.765,300.578,310.86z
				 M248.108,292.115c-5.156,0.247-10.449,1.118-15.591,1.706c-1.639,0.188-3.244,0.419-4.814,0.724
				c1.19-0.771,2.477-1.379,3.844-1.764c6.685-1.897,13.914-1.973,20.751-0.408C250.91,292.181,249.52,292.048,248.108,292.115z"/>
		</g>
		<g>
			<path fill="#F1563A" d="M472.487,345.779c-0.239-1.364-0.438-2.727-0.617-4.072c-1.489-11.012-2.367-22.158-8.638-31.913
				c-16.889-26.279-63.874-25.221-77.469,4.208c-2.764,5.986-2.58,12.223-1.761,18.589c4.614,12.31,5.723,25.624-0.047,37.798
				c-2.228,4.7-6.01,9.276-10.829,11.576c0.214,0.261,0.417,0.526,0.615,0.794c0.124,0.177,0.225,0.316,0.301,0.435
				c0.081,0.077,0.162,0.162,0.266,0.269c0.657,0.69,1.268,1.426,1.929,2.112c19.844,20.648,48.911,21.693,74.962,15.136
				c8.81-2.217,17.152-6.083,25.076-10.479c5.502-3.051,13.96-7.898,15.621-14.643C478.011,373.296,474.056,358.3,472.487,345.779z"
				/>
			<path fill="#F1563A" d="M394.801,322.628c1.235-1.341,2.842-2.521,4.9-3.499c3.968-1.882,10.371-0.301,14.566-1.216
				c7.168-1.569,17.221-4.892,23.293,0.727c5.638,5.222,4.72,13.57,5.882,20.847c0.245,1.518,0.579,3.013,0.958,4.495
				c0.069-0.069,0.136-0.147,0.202-0.21c1.56-1.504,3.447-2.382,5.631-2.411c1.635-0.022,3.678,1.055,4.053,2.813
				c1.225,5.781-1.562,11.11-5.744,15.006c-0.036,0.032-0.072,0.062-0.109,0.096c0.394,2.451,0.563,4.954,0.315,7.549
				c-0.857,9.022-6.458,15.579-12.33,22.015c-5.422,5.938-11.971,7.178-19.671,5.173c-7.799-2.03-11.717-7.679-14.978-14.65
				c-3.542-7.576-6.821-15.025-7.372-23.448C393.726,345.576,387.104,330.981,394.801,322.628z"/>
		</g>
		<path fill="#0F4C8D" d="M169.207,487.908v-38.529c0-21.537-8.817-41.123-23.007-55.313
			c-10.464-10.465-23.842-17.998-38.779-21.241c-5.336-1.161-10.868-1.771-16.539-1.771c-43.079,0-78.325,35.247-78.325,78.325
			v38.529H169.207z"/>
		<path fill="#0F4C8D" d="M339.686,487.908v-38.529c0-43.078-35.242-78.321-78.32-78.321c-43.075,0-78.321,35.243-78.321,78.321
			v38.529H339.686z"/>
		<path fill="#0F4C8D" d="M510.174,487.908v-38.529c0-43.078-35.246-78.321-78.32-78.321c-43.08,0-78.326,35.243-78.326,78.321
			v38.529H510.174z"/>
		<path fill="#1C3C6D" d="M30.608,487.908c3.833-33.221,11.977-68.301,29.038-83.619c16.877-15.156,34.085-25.113,47.775-31.464
			c-5.336-1.161-10.868-1.771-16.539-1.771c-43.079,0-78.325,35.247-78.325,78.325v38.529H30.608z"/>
		<path fill="#1C3C6D" d="M201.094,487.908c3.833-33.221,11.978-68.301,29.039-83.619c16.877-15.156,34.084-25.113,47.775-31.464
			c-5.337-1.161-10.869-1.771-16.54-1.771c-43.078,0-78.324,35.247-78.324,78.325v38.529H201.094z"/>
		<path fill="#1C3C6D" d="M371.581,487.908c3.833-33.221,11.978-68.301,29.038-83.619c16.878-15.156,34.085-25.113,47.775-31.464
			c-5.336-1.161-10.867-1.771-16.539-1.771c-43.077,0-78.325,35.247-78.325,78.325v38.529H371.581z"/>
	</g>
</g>
</svg>
