<?xml version="1.0" encoding="utf-8"?>
<!-- Generator: Adobe Illustrator 16.0.0, SVG Export Plug-In . SVG Version: 6.00 Build 0)  -->
<!DOCTYPE svg PUBLIC "-//W3C//DTD SVG 1.1//EN" "http://www.w3.org/Graphics/SVG/1.1/DTD/svg11.dtd">
<svg version="1.1" id="Layer_1" xmlns="http://www.w3.org/2000/svg" xmlns:xlink="http://www.w3.org/1999/xlink" x="0px" y="0px"
	 width="612px" height="590.54px" viewBox="0 0 612 590.54" enable-background="new 0 0 612 590.54" xml:space="preserve">
<g>
	<path fill="#E7E7E7" d="M169.766,513.999h269.041c30.015,0,59.591,7.217,86.228,21.06l54.42,28.271
		c8.677,4.506,5.474,17.624-4.303,17.624H32.902c-9.796,0-12.982-13.157-4.273-17.645l55.548-28.582
		C110.649,521.102,139.99,513.999,169.766,513.999z"/>
	<path fill="#662611" d="M237.326,339.304h150.69l3.645-141.672c0-16.753-13.584-30.337-30.34-30.337h-97.3
		c-16.757,0-30.341,13.584-30.341,30.337L237.326,339.304z"/>
	<g>
		<path fill="#231F20" d="M274.635,349.804c0,0,33.504,11.63,80.133,0.904c-6.479-3.981-6.479-3.981-6.479-3.981
			s-34.93,3.815-70.723,0C276.691,349.219,274.635,349.804,274.635,349.804z"/>
		<path fill="#5A3623" d="M285.021,137.894c0.197,0.079,0.393,0.166,0.589,0.286c8.832,5.217,18.771,8.433,29.095,6.453
			c5.771-1.104,11.245-3.47,16.816-4.699c0.123-0.292,0.249-0.578,0.365-0.87c11.83-1.21,14.99-15.067,15.531-25.167
			c0.313-5.829,0.063-11.976-1.98-17.491c-3.069-8.287-9.311-12.833-17.465-15.684c-4.086-1.429-8.51-2.366-12.85-2.193
			c-4.283,0.166-8.513,0.911-12.802,1.09c-7.724,0.312-13.953,3.655-18.679,9.743c-5.522,7.117-4.17,14.966-3.489,23.313
			C280.864,121.393,281.972,129.747,285.021,137.894z"/>
		<path fill="#F5C185" d="M331.409,189.092c-0.037-0.358-0.073-0.718-0.114-1.084c-1.289-3.315-2.388-6.685-3.093-10.147
			c-0.076-0.332-0.14-0.671-0.199-1.01c-0.704-3.895-1.053-7.822-1.141-11.757c-0.754-0.418-1.992-0.146-2.056,0.884
			c-0.034,0.565-0.034,1.123-0.004,1.688c-1.821-0.871-4.16-0.778-6.051,0.093c-1.961-0.267-4.05,0.332-5.499,1.7
			c-0.805,0.061-1.592,0.233-2.316,0.539l-0.117-0.007c-1.078-1.329-2.604-2.073-4.213-2.272c-1.957-2.12-5.726-2.604-8.34-1.282
			c-0.05,1.282-0.163,2.565-0.359,3.861c-0.259,1.755-0.578,3.548-0.996,5.35c0,0,0,0-0.006,0
			c-0.901,3.854-2.293,7.696-4.616,10.965c-0.199,0.905-0.349,1.821-0.419,2.752c-0.006,0.052,0.004,0.106,0.007,0.159
			c-2.033,2.061-2.685,5.33,0.073,7.856c1.97,1.801,4.469,2.571,7.101,2.857c0.961,1.875,2.965,3.005,5.211,3.277
			c8.951,1.062,21.232,1.588,28.067-5.41C335.098,195.266,334.319,191.139,331.409,189.092z"/>
		<path fill="#E2AA71" d="M328.202,177.861c-4.347,0.944-9.995,2.552-15.979,2.2c-6.868-0.405-11.846-2.825-15.312-4.413
			c0.418-1.802,0.737-3.595,0.996-5.35c0.196-1.295,0.31-2.579,0.359-3.861c2.614-1.322,6.383-0.837,8.34,1.282
			c1.608,0.2,3.135,0.944,4.213,2.272l0.117,0.007c0.725-0.306,1.512-0.478,2.316-0.539c1.449-1.368,3.538-1.967,5.499-1.7
			c1.891-0.871,4.229-0.964,6.051-0.093c-0.03-0.565-0.03-1.123,0.004-1.688c0.063-1.03,1.302-1.303,2.056-0.884
			c0.088,3.935,0.437,7.862,1.141,11.757C328.063,177.189,328.126,177.529,328.202,177.861z"/>
		<path fill="#F5C185" d="M333.21,157.232c1.555-4.2,2.851-8.698,3.332-12.44c0.163-1.269,0.286-2.526,0.349-3.774
			c0.39-7.61,1.058-15.212,1.17-22.834c0.09-5.994,0.017-12.833-5.791-16.309c-3.698-2.213-8.739-2.399-13.942-1.761
			c-7.453,0.911-15.534-2.086-22.672,1.123c-7.576,3.403-9.554,10.8-9.265,18.502c0.144,3.769,0.599,7.623,1.224,11.337
			c0.685,4.081-0.147,8.075,0.125,12.135c0.217,3.231,5.67,20.774,9.209,25.287c4.744,6.054,12.603,6.579,19.744,6.373
			c6.473-0.187,10.854-5.123,13.514-10.573C331.223,162.217,332.262,159.778,333.21,157.232z"/>
		<path fill="#F5C185" d="M290.997,142.446c0.169-0.207,0.285-0.472,0.314-0.804c0.023-0.26,0.034-0.519,0.047-0.785
			c0.26-0.379,0.372-0.877,0.18-1.409c-0.077-0.219-0.149-0.438-0.223-0.657c-0.17-2.048-0.718-4.048-1.691-5.856
			c0.974-0.06,1.891-0.983,1.256-2.053c-1.096-1.848-3.213-4.991-5.809-3.695c-2.478,1.243-2.047,5.037-1.764,7.244
			c0.534,4.18,1.671,11.265,7.307,10.646C292.096,144.918,292.014,143.104,290.997,142.446z"/>
		<path fill="#F5C185" d="M339.43,128.624c-0.422-0.466-0.934-0.785-1.541-0.832c-1.756-0.12-2.739,1.955-3.297,3.748
			c-0.326,1.058,0.187,1.849,0.851,2.087c-0.631,2.478-1.007,5.144-1.332,6.287c-0.267,0.93,0.199,1.761,0.808,2.093
			c0.06,0.092,0.126,0.172,0.198,0.245c-0.321,0.552-0.651,1.097-0.986,1.636c-0.967,1.528,0.878,3.528,1.99,2.179
			c1.987-2.419,3.931-5.948,4.609-9.597c0.057-0.206,0.119-0.405,0.169-0.61C341.454,133.627,341.612,129.573,339.43,128.624z"/>
		<path fill="#C4E8F4" d="M355.618,248.271c0.828-0.446,1.529-1.189,1.925-2.286c1.319-3.649,2.844-6.998,2.444-10.985
			c-0.394-3.921-2.711-7.351-3.08-11.238c-0.166-1.767-1.222-2.937-2.521-3.515c0.125-8.128,1.336-16.634,4.084-24.237
			c2.515-6.958-15.097-9.909-27.873-11.118c-0.83,2.252-1.987,4.373-3.545,6.28c-4.862,0.086-9.733,0.99-14.574,1.249
			c-4.678,0.253-11.93,0.692-15.143-3.581c-0.963-1.283-2.369-1.648-3.651-1.429c-0.658-0.905-1.272-1.841-1.841-2.806
			c-14.899,1.13-30.035,4.167-29.147,11.983c0.115,1.03,0.678,2.252,1.319,3.482c-0.791,0.658-1.344,1.642-1.399,2.958
			c-0.312,7.383,1.086,14.633,1.978,21.93c0.897,7.358,1.468,14.873,1.545,22.284c0.006,0.731,0.176,1.362,0.455,1.894
			c-0.615,2.313-1.353,4.593-2.283,6.839c0.163,0.491,0.285,1.017,0.353,1.548c2.189,16.959,4.399,34.005,3.697,51.144
			c-0.498,12.235-1.883,24.529-1.983,36.804c0.688,0.358,1.446,0.711,2.29,1.063c0.455,0.187,0.906,0.379,1.361,0.559
			c20.41,8.247,42.606,11.543,64.394,9.536c8.104-0.738,16.618-2.439,22.871-7.822c0.358-0.312,0.711-0.631,1.055-0.963
			c0.478-0.472,4.265-4.273,4.675-4.738C358.348,310.661,355.081,280.982,355.618,248.271z"/>
		<path fill="#AB3329" d="M312.077,192.607l-5.274,5.642c0,0,3.104,8.8,5.274,8.8c2.172,0,5.14-8.606,5.14-8.606L312.077,192.607z"
			/>
		<path fill="#D22941" d="M309.385,204.137l-4.722,31.282v51.457l6.503,7.23c0,0,7.975-6.066,7.975-6.652c0-0.584,0-51.843,0-51.843
			l-4.438-31.487L309.385,204.137z"/>
		<polygon fill="#A3DEF9" points="295.026,180.572 312.366,192.607 305.155,205.879 290.108,184.46 		"/>
		<polygon fill="#A3DEF9" points="329.415,180.572 312.077,192.607 319.287,205.879 334.333,184.46 		"/>
		<path fill="#F5C185" d="M250.558,402.118c0.398-1.123-0.12-2.445-1.074-3.144c1.519-3.355,2.276-6.817,0.861-10.32
			c0.232-0.379,0.381-0.831,0.375-1.396c-0.034-3.854-0.659-7.59-2.761-10.893c-0.818-1.289-1.825-2.405-3.184-3.123
			c-1.665-0.884-3.326-0.339-4.991-0.851c-0.589-0.187-1.113-0.166-1.562-0.013c-2.276-2.073-6.134-2.426-8.004,1.063
			c-2.652,4.943-2.665,11.522-2.22,17.005c0.286,3.477,1.465,6.301,3.19,8.833c1.096,2.679,2.951,4.865,5.659,6.326
			c0.02,0.021,0.043,0.041,0.063,0.06c0.2,0.187,0.402,0.346,0.604,0.492c3.29,3.562,10.099,2.04,14.398,1.057
			C255.209,406.465,253.836,401.421,250.558,402.118z M242.855,396.782c-0.791-0.731-1.555-1.476-2.216-2.272
			c-0.016-0.074-0.037-0.146-0.05-0.213c0.08,0.432-0.076-1.548-0.073-2.066c0-0.067,0.006-0.133,0.006-0.207
			c0.458,0.16,1,0.166,1.608-0.065c0.192-0.073,0.262-0.14,0.283-0.174c-0.01,0.047-0.01,0.18,0.113,0.452
			c0.355,0.791,0.678,1.522,0.924,2.359c0.302,1.037,0.525,2.086,0.744,3.137C243.822,397.367,243.377,397.042,242.855,396.782z"/>
		<path fill="#C4E8F4" d="M266.431,189.504c-6.673,0.644-11.125,5.907-13.973,11.776c-5.721,9.198-8.346,23.293-10.516,29.812
			c-3.054,9.171-5.885,18.681-6.613,28.444c-0.306,4.087-0.215,8.194-0.518,12.274c-1.08,14.707-6.417,29.075-7.815,44.074
			c-0.146,19.584-0.386,39.169-0.455,58.754c3.797,0.844,7.616,1.17,11.506,0.465c3.918-0.703,7.759-1.787,11.644-2.672
			c0.665-14.095,1.702-28.15,2.844-42.205c0.728-3.735,1.31-7.478,1.595-11.231c0.462-6.135,0.638-12.281,0.981-18.422
			c0.282-2.42,0.627-4.824,1.106-7.218c1.02-5.077,2.728-9.981,4.332-14.892c2.622-8.041,5.304-16.063,7.583-24.198
			C267.939,232.667,266.976,211.089,266.431,189.504z"/>
		<path fill="#5A3623" d="M339.127,96.312c-0.269-0.013-0.541-0.007-0.81-0.007c0.621-1.37,0.371-2.851-0.383-4
			c-0.007-0.126-0.007-0.259-0.013-0.392c-0.408-5.722-8.985-6.022-9.384-0.778c-0.332-0.086-0.685-0.14-1.067-0.146
			c-6.332-0.06-12.434,1.355-18.697,2.026c-4.958,0.524-10.038,0.903-14.862,2.233c-2.137-1.209-5.233-0.751-5.945,2.319
			c-0.212,0.917-0.292,1.788-0.279,2.618c-0.562,0.532-1.003,1.263-1.242,2.214c-0.149,0.591-0.239,1.155-0.303,1.701
			c-0.436,0.465-0.863,0.937-1.283,1.422c-0.049,0.06-0.105,0.12-0.155,0.179c-1.921,2.207,7.868,8.002,9.005,8.493
			c5.47,2.36,11.513,3.397,17.455,2.931c5.272-0.412,10.443-2,15.062-4.573c4.147-2.319,7.759-7.13,12.902-6.851
			C345.165,106.034,345.148,96.645,339.127,96.312z"/>
		<path fill="#F5C185" d="M394.416,373.443c-1.871-3.489-5.729-3.137-8.005-1.063c-0.448-0.153-0.974-0.174-1.562,0.013
			c-1.664,0.512-3.326-0.033-4.994,0.851c-1.355,0.718-2.366,1.834-3.18,3.123c-2.104,3.303-2.728,7.038-2.765,10.893
			c-0.004,0.564,0.144,1.017,0.379,1.396c-1.253,3.091-0.805,6.154,0.361,9.145c0.608-0.105,1.221-0.226,1.842-0.372
			c2.635-0.645,2.914-2.944,4.469-4.864c0.91-1.131,2.101-1.103,3.018-0.506c0.043-0.013,0.09-0.02,0.133-0.033
			c0,0.047,0,0.087,0.004,0.127c1.176,0.871,1.817,2.705,0.621,4.187c-0.525,0.646-0.842,1.437-1.224,2.187
			c0.004,0.438-0.119,0.903-0.412,1.382c-2.306,3.715-7.553,4.846-11.778,6.479c0.308,0.387,0.767,0.691,1.397,0.831
			c4.301,0.983,11.106,2.505,14.399-1.057c0.201-0.146,0.404-0.306,0.601-0.492c0.022-0.019,0.047-0.039,0.066-0.06
			c2.704-1.461,4.559-3.647,5.659-6.326c1.721-2.532,2.903-5.356,3.187-8.833C397.081,384.966,397.067,378.387,394.416,373.443z"/>
		<path fill="#C4E8F4" d="M349.243,202.755c0.693-3.03,1.687-6.114,3.854-8.06c-0.932-2.047,0.092-5.125,3.063-5.25
			c7.818-0.332,12.886,5.389,16.015,11.836c5.723,9.198,8.348,23.293,10.517,29.812c3.055,9.171,5.886,18.681,6.613,28.444
			c0.305,4.087,0.216,8.194,0.518,12.274c1.08,14.707,6.414,29.075,7.815,44.074c0.147,19.584,0.386,39.169,0.455,58.754
			c-3.797,0.844-7.619,1.17-11.506,0.465c-3.918-0.703-7.759-1.787-11.644-2.672c-0.668-14.095-1.701-28.15-2.845-42.205
			c-0.728-3.735-1.309-7.478-1.595-11.231c-0.465-6.135-0.638-12.281-0.98-18.422c-0.281-2.42-0.631-4.824-1.109-7.218
			c-1.017-5.077-2.729-9.981-4.33-14.892c-3.426-10.507-6.967-20.987-9.56-31.74c-0.436-1.814,0.452-3.19,1.729-3.888
			c-0.429-2.099-0.668-4.226-0.595-6.327c-0.731-1.907-1.379-2.978-1.944-3.588c-0.199,0.08-0.402,0.159-0.608,0.219
			c-3.226,0.917-6.181-1.043-7.257-4.034C342.756,220.493,347.329,211.096,349.243,202.755z"/>
		<path fill="#F5C185" d="M378.141,379.749c-2.562,1.854-4.569,4.062-5.456,7.164c-0.811,2.825-0.604,5.889-0.591,8.793
			c0.017,4.532,7.06,4.539,7.041,0c-0.014-3.522-0.662-7.537,2.562-9.877C385.331,383.198,381.819,377.085,378.141,379.749z"/>
	</g>
	<g>
		<rect x="109.38" y="324.258" fill="#A3DEF9" width="101.628" height="14.96"/>
		<rect x="99.781" y="277.859" fill="#A3DEF9" width="101.629" height="14.964"/>
		<rect x="99.781" y="312.521" fill="#FDC20F" width="101.629" height="11.736"/>
		<rect x="109.38" y="294.3" fill="#D22941" width="101.628" height="17.365"/>
		<rect x="109.38" y="263.092" fill="#0F4C8D" width="101.628" height="14.965"/>
		<rect x="99.781" y="216.698" fill="#D22941" width="101.629" height="14.959"/>
		<rect x="99.781" y="251.355" fill="#A3DEF9" width="101.629" height="11.736"/>
		<rect x="109.38" y="233.139" fill="#FDC20F" width="101.628" height="17.358"/>
		<rect x="403.325" y="325.561" fill="#0F4C8D" width="101.629" height="13.657"/>
		<rect x="408.651" y="280.915" fill="#0F4C8D" width="101.629" height="21.697"/>
		<rect x="403.325" y="316.722" fill="#FDC20F" width="101.629" height="8.839"/>
		<rect x="398.002" y="303.005" fill="#D22941" width="101.628" height="13.072"/>
		<g>
			<rect x="423.514" y="242.622" fill="#231F20" width="29.906" height="37.536"/>
			<path fill="#231F20" d="M423.514,275.452h-0.504c-7.33,0-13.295-5.961-13.295-13.291s5.965-13.298,13.295-13.298h0.504
				c1.3,0,2.351,1.05,2.351,2.353v21.892C425.864,274.402,424.813,275.452,423.514,275.452z M421.168,253.76
				c-3.861,0.845-6.759,4.287-6.759,8.401c0,4.106,2.897,7.556,6.759,8.399V253.76z"/>
		</g>
	</g>
	<rect x="65.476" y="336.28" fill="#843A1C" width="476.823" height="23.227"/>
	<rect x="90.048" y="358.012" fill="#662611" width="427.679" height="15.139"/>
	<rect x="92.052" y="373.15" fill="#843A1C" width="425.675" height="175.724"/>
	<rect x="182.283" y="197.12" fill="#231F20" width="155.718" height="112.244"/>
	<rect x="244.772" y="296.325" fill="#2D2E2D" width="32.926" height="32.744"/>
	<rect x="230.724" y="329.069" fill="#2D2E2D" width="61.021" height="7.211"/>
	<g>
		<path fill="#D22941" d="M527.187,87.4c0,20.974-17.003,37.974-37.977,37.974c-20.971,0-37.973-17-37.973-37.974
			c0-20.967,17.002-37.973,37.973-37.973C510.184,49.427,527.187,66.433,527.187,87.4z"/>
		<path fill="#FFFFFF" d="M518.305,87.4c0,16.069-13.026,29.095-29.095,29.095c-16.065,0-29.092-13.026-29.092-29.095
			c0-16.063,13.026-29.088,29.092-29.088C505.278,58.312,518.305,71.337,518.305,87.4z"/>
		<g>
			<polygon fill="#FFFFFF" points="508.975,96.312 489.21,87.4 489.21,73.066 			"/>
			<path fill="#231F20" d="M508.971,98.665c-0.322,0-0.651-0.067-0.963-0.212l-19.761-8.912c-0.842-0.379-1.383-1.216-1.383-2.14
				V73.066c0-1.296,1.05-2.347,2.346-2.347s2.349,1.05,2.349,2.347v12.819l18.379,8.288c1.183,0.538,1.708,1.927,1.177,3.11
				C510.723,98.146,509.868,98.665,508.971,98.665z"/>
		</g>
	</g>
	<g>
		<polygon fill="#A3DEF9" points="254.601,132.996 212.817,114.906 246.956,92.71 		"/>
		<path fill="#A3DEF9" d="M259.247,50.344c11.068,29.288-3.698,61.997-32.983,73.062c-29.281,11.072-61.994-3.694-73.063-32.976
			c-11.068-29.287,3.699-61.997,32.982-73.062C215.469,6.296,248.178,21.063,259.247,50.344z"/>
		<g>
			<path fill="#231F20" d="M188.617,89.334c-0.476,0-0.95-0.14-1.366-0.438c-1.054-0.759-1.296-2.227-0.538-3.277l7.629-10.633
				c0.674-0.944,1.938-1.25,2.971-0.724l12.145,6.174l16.026-26.356c0.675-1.11,2.117-1.462,3.227-0.791
				c1.106,0.677,1.458,2.12,0.784,3.229l-17.156,28.218c-0.638,1.049-1.974,1.429-3.07,0.87l-12.288-6.247l-6.456,8.998
				C190.068,88.995,189.348,89.334,188.617,89.334z"/>
			<polygon fill="#D22941" points="214.512,58.232 231.461,48.29 231.461,65.27 			"/>
			<path fill="#231F20" d="M230.289,96.963h-48.125c-1.296,0-2.349-1.05-2.349-2.347V49.46c0-1.296,1.053-2.346,2.349-2.346
				s2.346,1.05,2.346,2.346v42.812h45.779c1.296,0,2.345,1.05,2.345,2.345C232.634,95.913,231.584,96.963,230.289,96.963z"/>
		</g>
	</g>
</g>
</svg>
