<?xml version="1.0" encoding="utf-8"?>
<!-- Generator: Adobe Illustrator 16.0.0, SVG Export Plug-In . SVG Version: 6.00 Build 0)  -->
<!DOCTYPE svg PUBLIC "-//W3C//DTD SVG 1.1//EN" "http://www.w3.org/Graphics/SVG/1.1/DTD/svg11.dtd">
<svg version="1.1" id="Layer_1" xmlns="http://www.w3.org/2000/svg" xmlns:xlink="http://www.w3.org/1999/xlink" x="0px" y="0px"
	 width="562.541px" height="533.459px" viewBox="0 0 562.541 533.459" enable-background="new 0 0 562.541 533.459"
	 xml:space="preserve">
<g>
	<path fill="#B2AEAD" d="M551.175,390.294h-0.005c-0.674-2.004-2.507-3.982-5.564-5.783l-122.381-71.886l-1.029-0.6
		c35.386-24.331,69.328-50.091,85.564-66.578c24.099-24.41,29.43-43.461,17.776-52.305c-0.181-0.14-0.372-0.265-0.555-0.4
		c-0.517-0.354-1.056-0.688-1.623-1.004c-0.161-0.094-0.26-0.191-0.424-0.275c-0.162-0.084-0.361-0.177-0.548-0.261
		c-0.177-0.093-0.359-0.176-0.536-0.265c-8.033-3.801-27.931-10.402-42.852-8.132c-48.894,7.476-136.976,38.228-171.56,91.481
		c-12.454,19.144-17.539,42.415-18.205,61.502l-169.137,50.714c-2.187,0.656-4.061,1.415-5.685,2.238h-0.004
		c-8.793,3.424-22.885,22.801-18.604,24.652l15.282,11.52l23.936,14.059l90.198,52.984c9.867,5.797,28.188,7.159,41.721,3.103
		l204.122-61.204l51.402-15.413l4.303-1.288C540.302,413.095,556.069,392.532,551.175,390.294z M464.498,213.137
		c4.442-0.679,8.319-0.902,11.743-0.791c6.676,6.025,2.926,18.19-12.311,33.668c-24.996,25.313-71.128,49.765-103.146,54.687
		c-4.145,0.628-7.773,0.889-10.946,0.838c-6.131-5.997-1.99-18.148,11.524-33.72C388.359,236.729,432.51,218.013,464.498,213.137z"
		/>
</g>
<g>
	<path fill="#6E8739" d="M463.735,341.641l-191.36-91.035l-2.326-1.345c-4.131-2.387-8.653-4.233-13.24-5.555
		c-10.421-2.996-21.172-3.173-28.569-0.13c-0.861,0.353-1.689,0.73-2.447,1.172l-0.917,0.525L25.705,339.385
		c-6.002,4.973-4.271,33.156,1.521,35.845l24.689,16.757l35.413,20.442l133.455,77.056c14.599,8.43,34.035,10.411,44.256,4.512
		l154.152-89.006l38.819-22.415l3.25-1.875C471.481,374.798,470.459,344.893,463.735,341.641z"/>
	<g>
		<path fill="#B4D334" d="M224.736,233.151L37.977,340.985c-4.643,2.68-2.573,9.845,7.815,15.841l11.9,6.866l165.294-3.703
			L224.736,233.151z"/>
		<path fill="#B4D334" d="M229.188,462.716c10.388,5.992,22.801,7.188,27.444,4.508l145.057-83.754l-298.172,6.685L229.188,462.716z
			"/>
		<path fill="#B4D334" d="M451.221,354.872l1.634-0.944c4.643-2.675,2.572-9.839-7.815-15.836l-172.794-99.768L270.57,358.92
			L451.221,354.872z"/>
		<path fill="#EAEEA9" d="M234.199,227.689l-9.463,5.461l-1.749,126.839l-165.294,3.703l45.825,26.462l298.172-6.685l49.531-28.597
			L270.57,358.92l1.675-120.596l-10.603-6.118C251.254,226.206,238.842,225.01,234.199,227.689z"/>
		<path fill="#EAEEA9" d="M256.809,221.79c-10.421-2.996-21.172-3.173-28.569-0.13c-0.861,0.354-1.689,0.73-2.447,1.177
			l-0.917,0.521l-195.31,112.77c-10.216,5.899-6.783,17.12,7.815,25.55l14.534,8.393l35.413,20.442l133.455,77.054
			c14.599,8.431,34.035,10.412,44.256,4.514l154.152-89.007l38.819-22.415l3.25-1.875c10.222-5.899,6.789-17.125-7.812-25.55
			L272.375,228.689l-2.326-1.344C265.918,224.958,261.396,223.111,256.809,221.79z M272.245,238.324l172.794,99.768
			c10.388,5.997,12.458,13.161,7.815,15.836l-1.634,0.944l-49.531,28.597l-145.057,83.754c-4.643,2.68-17.056,1.484-27.444-4.508
			l-125.671-72.562l-45.825-26.462l-11.9-6.866c-10.388-5.997-12.458-13.161-7.815-15.841l186.759-107.834l9.463-5.461
			c4.643-2.68,17.056-1.484,27.443,4.517L272.245,238.324z"/>
	</g>
	<g>
		<path fill="#F04D43" d="M213.72,358.366c-10.542,0-19.083,4.926-19.083,11.016c0,6.081,8.542,11.017,19.083,11.017
			c10.533,0,19.079-4.936,19.079-11.017C232.799,363.292,224.252,358.366,213.72,358.366z"/>
		<path fill="#C52126" d="M273.167,52.481c-0.233-0.121-0.512-0.26-0.763-0.382c0.484,0.247,0.944,0.507,1.404,0.777
			C273.575,52.747,273.394,52.603,273.167,52.481z"/>
		<path fill="#C52126" d="M142.001,178.878c-8.895-77.441,51.751-119.05,94.542-129.932c13.203-3.331,25.123-2.126,35.106,2.773
			c-11.137-5.532-36.427-15.134-49.49-11.831c-42.792,10.872-105.764,55.599-96.874,133.04
			c6.397,56.092,56.381,136.566,70.356,142.475c1.326,0.559,14.967,7.281,16.711,5.955
			C203.587,322.981,148.397,234.975,142.001,178.878z"/>
		<path fill="#C52126" d="M243.518,82.852c11.593,8.76,17.781,26.453,15.18,48.965c-4.327,36.813-30.496,72.375-58.497,79.529
			c-3.629,0.917-7.048,1.293-10.263,1.219c6.997,5.537,16.074,7.485,26.974,4.727c27.998-7.146,54.171-42.708,58.502-79.53
			C279.074,106.062,265.332,83.866,243.518,82.852z"/>
		<path fill="#F04D43" d="M277.135,54.924c-0.294-0.2-0.587-0.386-0.879-0.582c-0.806-0.512-1.619-1.005-2.448-1.466
			c-0.46-0.27-0.92-0.53-1.404-0.777c-0.251-0.13-0.502-0.255-0.754-0.381c-9.983-4.899-21.903-6.104-35.106-2.773
			c-42.791,10.882-103.438,52.491-94.542,129.932c6.396,56.097,61.586,144.103,70.351,142.479
			c21.084-3.852,83.201-134.166,89.713-190.365C306.234,95.491,296.013,67.787,277.135,54.924z M275.413,137.762
			c-4.331,36.822-30.504,72.384-58.502,79.53c-10.9,2.759-19.977,0.81-26.974-4.727c-11.026-8.723-16.804-26.392-16.003-49.035
			c1.609-45.22,30.481-72.44,58.488-79.53c3.889-0.986,7.583-1.312,11.096-1.149C265.332,83.866,279.074,106.062,275.413,137.762z"
			/>
	</g>
</g>
</svg>
