<?xml version="1.0" encoding="utf-8"?>
<!-- Generator: Adobe Illustrator 16.0.0, SVG Export Plug-In . SVG Version: 6.00 Build 0)  -->
<!DOCTYPE svg PUBLIC "-//W3C//DTD SVG 1.1//EN" "http://www.w3.org/Graphics/SVG/1.1/DTD/svg11.dtd">
<svg version="1.1" id="Layer_1" xmlns="http://www.w3.org/2000/svg" xmlns:xlink="http://www.w3.org/1999/xlink" x="0px" y="0px"
	 width="877.569px" height="370.48px" viewBox="0 0 877.569 370.48" enable-background="new 0 0 877.569 370.48"
	 xml:space="preserve">
<g>
	<g>
		<polygon opacity="0.3" fill="#695F6D" points="459.444,352.346 17.083,352.346 17.083,319.058 449.067,320.063 		"/>
		<polygon fill="#3E3C39" points="858.987,123.56 438.783,23.012 26.259,121.723 17.083,121.723 17.083,349.06 135.812,315.206 
			135.812,123.919 738.414,123.919 738.414,315.63 808.94,334.545 808.94,169.188 860.484,172.698 860.484,123.56 		"/>
		<g>
			<rect x="803.929" y="169.188" fill="#666461" width="10.027" height="165.357"/>
		</g>
		<polygon opacity="0.4" fill="#1A2026" points="858.987,123.56 438.783,23.012 26.259,121.723 17.083,121.723 17.083,130.412 
			135.812,123.226 135.812,123.919 716.625,123.919 738.414,123.67 860.484,130.412 860.484,123.56 		"/>
		<polygon fill="#8C8D8B" points="738.414,315.741 135.478,315.741 135.478,123.336 438.449,57.246 738.414,123.67 		"/>
		<rect x="263.387" y="150.858" fill="#47454F" width="114.305" height="171.847"/>
		<rect x="382.663" y="186.235" fill="#47454F" width="210.642" height="129.363"/>
		<g>
			<g>
				<polygon fill="#47454F" points="738.307,124.161 438.448,57.759 135.584,123.826 135.37,122.846 438.451,56.733 438.559,56.756 
					738.524,123.181 				"/>
			</g>
			<g opacity="0.9836">
				<polygon fill="#47454F" points="738.307,124.816 438.448,58.415 135.584,124.48 135.37,123.5 438.451,57.389 438.559,57.412 
					738.524,123.836 				"/>
			</g>
			<g opacity="0.9672">
				<polygon fill="#47454F" points="738.307,125.472 438.448,59.069 135.584,125.136 135.37,124.156 438.451,58.043 438.559,58.066 
					738.524,124.492 				"/>
			</g>
			<g opacity="0.9508">
				<polygon fill="#47454F" points="738.307,126.125 438.448,59.725 135.584,125.792 135.368,124.812 438.451,58.698 
					438.559,58.722 738.524,125.145 				"/>
			</g>
			<g opacity="0.9344">
				<polygon fill="#47454F" points="738.307,126.78 438.448,60.379 135.584,126.446 135.37,125.466 438.451,59.353 438.559,59.376 
					738.524,125.8 				"/>
			</g>
			<g opacity="0.918">
				<polygon fill="#47454F" points="738.307,127.436 438.448,61.035 135.584,127.102 135.37,126.122 438.451,60.008 438.559,60.031 
					738.524,126.456 				"/>
			</g>
			<g opacity="0.9016">
				<polygon fill="#47454F" points="738.307,128.09 438.448,61.689 135.584,127.756 135.37,126.776 438.451,60.663 438.559,60.686 
					738.524,127.11 				"/>
			</g>
			<g opacity="0.8852">
				<polygon fill="#47454F" points="738.307,128.746 438.448,62.344 135.584,128.411 135.37,127.432 438.451,61.318 438.559,61.341 
					738.524,127.766 				"/>
			</g>
			<g opacity="0.8689">
				<polygon fill="#47454F" points="738.307,129.401 438.448,63 135.584,129.067 135.37,128.087 438.451,61.974 438.559,61.997 
					738.524,128.421 				"/>
			</g>
			<g opacity="0.8525">
				<polygon fill="#47454F" points="738.307,130.056 438.448,63.654 135.584,129.721 135.37,128.741 438.451,62.628 438.559,62.651 
					738.524,129.076 				"/>
			</g>
			<g opacity="0.8361">
				<polygon fill="#47454F" points="738.307,130.711 438.448,64.31 135.584,130.377 135.37,129.397 438.451,63.284 438.559,63.307 
					738.524,129.731 				"/>
			</g>
			<g opacity="0.8197">
				<polygon fill="#47454F" points="738.307,131.367 438.448,64.964 135.584,131.032 135.37,130.053 438.451,63.938 438.559,63.961 
					738.524,130.387 				"/>
			</g>
			<g opacity="0.8033">
				<polygon fill="#47454F" points="738.307,132.021 438.448,65.62 135.584,131.687 135.37,130.707 438.451,64.593 438.559,64.617 
					738.524,131.041 				"/>
			</g>
			<g opacity="0.7869">
				<polygon fill="#47454F" points="738.307,132.675 438.448,66.274 135.584,132.341 135.37,131.361 438.451,65.248 438.559,65.271 
					738.524,131.695 				"/>
			</g>
			<g opacity="0.7705">
				<polygon fill="#47454F" points="738.307,133.331 438.448,66.93 135.584,132.997 135.37,132.017 438.451,65.903 438.559,65.926 
					738.524,132.351 				"/>
			</g>
			<g opacity="0.7541">
				<polygon fill="#47454F" points="738.307,133.986 438.448,67.583 135.584,133.652 135.37,132.672 438.451,66.557 438.559,66.581 
					738.524,133.006 				"/>
			</g>
			<g opacity="0.7377">
				<polygon fill="#47454F" points="738.307,134.641 438.448,68.239 135.584,134.306 135.37,133.326 438.451,67.213 438.559,67.236 
					738.524,133.661 				"/>
			</g>
			<g opacity="0.7213">
				<polygon fill="#47454F" points="738.307,135.296 438.448,68.894 135.584,134.962 135.37,133.982 438.451,67.867 438.559,67.891 
					738.524,134.316 				"/>
			</g>
			<g opacity="0.7049">
				<polygon fill="#47454F" points="738.307,135.95 438.448,69.549 135.584,135.616 135.37,134.636 438.451,68.523 438.559,68.546 
					738.524,134.971 				"/>
			</g>
			<g opacity="0.6885">
				<polygon fill="#47454F" points="738.307,136.606 438.448,70.205 135.584,136.271 135.37,135.292 438.451,69.178 438.559,69.202 
					738.524,135.626 				"/>
			</g>
			<g opacity="0.6721">
				<polygon fill="#47454F" points="738.307,137.262 438.448,70.859 135.584,136.927 135.37,135.947 438.451,69.833 438.559,69.856 
					738.524,136.282 				"/>
			</g>
			<g opacity="0.6557">
				<polygon fill="#47454F" points="738.307,137.916 438.448,71.515 135.584,137.582 135.37,136.602 438.451,70.488 438.559,70.512 
					738.524,136.936 				"/>
			</g>
			<g opacity="0.6393">
				<polygon fill="#47454F" points="738.307,138.571 438.448,72.169 135.584,138.236 135.37,137.256 438.451,71.143 438.559,71.166 
					738.524,137.592 				"/>
			</g>
			<g opacity="0.6229">
				<polygon fill="#47454F" points="738.307,139.226 438.448,72.824 135.584,138.891 135.37,137.912 438.451,71.798 438.559,71.821 
					738.524,138.246 				"/>
			</g>
			<g opacity="0.6066">
				<polygon fill="#47454F" points="738.307,139.881 438.448,73.48 135.584,139.547 135.37,138.567 438.451,72.454 438.559,72.477 
					738.524,138.901 				"/>
			</g>
			<g opacity="0.5902">
				<polygon fill="#47454F" points="738.307,140.536 438.448,74.134 135.584,140.203 135.37,139.223 438.451,73.108 438.559,73.131 
					738.524,139.556 				"/>
			</g>
			<g opacity="0.5738">
				<polygon fill="#47454F" points="738.307,141.191 438.448,74.789 135.584,140.857 135.37,139.877 438.451,73.762 438.559,73.785 
					738.524,140.211 				"/>
			</g>
			<g opacity="0.5574">
				<polygon fill="#47454F" points="738.307,141.847 438.448,75.444 135.584,141.511 135.37,140.531 438.451,74.418 438.559,74.441 
					738.524,140.867 				"/>
			</g>
			<g opacity="0.541">
				<polygon fill="#47454F" points="738.307,142.501 438.448,76.1 135.584,142.168 135.37,141.188 438.451,75.073 438.559,75.097 
					738.524,141.521 				"/>
			</g>
			<g opacity="0.5246">
				<polygon fill="#47454F" points="738.307,143.157 438.448,76.754 135.584,142.822 135.37,141.842 438.451,75.728 438.559,75.751 
					738.524,142.177 				"/>
			</g>
			<g opacity="0.5082">
				<polygon fill="#47454F" points="738.307,143.811 438.448,77.41 135.584,143.477 135.37,142.497 438.451,76.383 438.559,76.406 
					738.524,142.831 				"/>
			</g>
			<g opacity="0.4918">
				<polygon fill="#47454F" points="738.307,144.466 438.448,78.064 135.584,144.132 135.37,143.152 438.451,77.038 438.559,77.061 
					738.524,143.486 				"/>
			</g>
			<g opacity="0.4754">
				<polygon fill="#47454F" points="738.307,145.121 438.448,78.719 135.584,144.788 135.37,143.808 438.451,77.693 438.559,77.716 
					738.524,144.141 				"/>
			</g>
			<g opacity="0.459">
				<polygon fill="#47454F" points="738.307,145.776 438.448,79.374 135.584,145.442 135.37,144.462 438.451,78.347 438.559,78.371 
					738.524,144.796 				"/>
			</g>
			<g opacity="0.4426">
				<polygon fill="#47454F" points="738.307,146.431 438.448,80.029 135.584,146.096 135.37,145.116 438.451,79.003 438.559,79.026 
					738.524,145.451 				"/>
			</g>
			<g opacity="0.4262">
				<polygon fill="#47454F" points="738.307,147.086 438.448,80.685 135.584,146.751 135.37,145.772 438.451,79.659 438.559,79.682 
					738.524,146.106 				"/>
			</g>
			<g opacity="0.4098">
				<polygon fill="#47454F" points="738.307,147.742 438.448,81.339 135.584,147.407 135.37,146.428 438.451,80.313 438.559,80.336 
					738.524,146.762 				"/>
			</g>
			<g opacity="0.3934">
				<polygon fill="#47454F" points="738.307,148.396 438.448,81.995 135.584,148.062 135.37,147.082 438.451,80.968 438.559,80.992 
					738.524,147.416 				"/>
			</g>
			<g opacity="0.377">
				<polygon fill="#47454F" points="738.307,149.052 438.448,82.649 135.584,148.717 135.37,147.737 438.451,81.623 438.559,81.646 
					738.524,148.072 				"/>
			</g>
			<g opacity="0.3607">
				<polygon fill="#47454F" points="738.307,149.707 438.448,83.303 135.584,149.371 135.37,148.392 438.451,82.277 438.559,82.3 
					738.524,148.728 				"/>
			</g>
			<g opacity="0.3443">
				<polygon fill="#47454F" points="738.307,150.361 438.448,83.96 135.584,150.027 135.37,149.047 438.451,82.934 438.559,82.957 
					738.524,149.381 				"/>
			</g>
			<g opacity="0.3279">
				<polygon fill="#47454F" points="738.307,151.016 438.448,84.614 135.584,150.681 135.37,149.701 438.451,83.588 438.559,83.611 
					738.524,150.036 				"/>
			</g>
			<g opacity="0.3115">
				<polygon fill="#47454F" points="738.307,151.671 438.448,85.269 135.584,151.337 135.37,150.357 438.451,84.242 438.559,84.266 
					738.524,150.691 				"/>
			</g>
			<g opacity="0.2951">
				<polygon fill="#47454F" points="738.307,152.327 438.448,85.924 135.584,151.992 135.37,151.013 438.451,84.898 438.559,84.921 
					738.524,151.347 				"/>
			</g>
			<g opacity="0.2787">
				<polygon fill="#47454F" points="738.307,152.981 438.448,86.578 135.584,152.646 135.37,151.667 438.451,85.552 438.559,85.575 
					738.524,152.001 				"/>
			</g>
			<g opacity="0.2623">
				<polygon fill="#47454F" points="738.307,153.637 438.448,87.234 135.584,153.302 135.37,152.322 438.451,86.208 438.559,86.231 
					738.524,152.657 				"/>
			</g>
			<g opacity="0.2459">
				<polygon fill="#47454F" points="738.307,154.292 438.448,87.89 135.584,153.957 135.37,152.977 438.451,86.863 438.559,86.887 
					738.524,153.313 				"/>
			</g>
			<g opacity="0.2295">
				<polygon fill="#47454F" points="738.307,154.946 438.448,88.544 135.584,154.612 135.37,153.632 438.451,87.518 438.559,87.541 
					738.524,153.967 				"/>
			</g>
			<g opacity="0.2131">
				<polygon fill="#47454F" points="738.307,155.602 438.448,89.199 135.584,155.268 135.37,154.288 438.451,88.173 438.559,88.196 
					738.524,154.622 				"/>
			</g>
			<g opacity="0.1967">
				<polygon fill="#47454F" points="738.307,156.256 438.448,89.854 135.584,155.922 135.37,154.942 438.451,88.827 438.559,88.851 
					738.524,155.276 				"/>
			</g>
			<g opacity="0.1803">
				<polygon fill="#47454F" points="738.307,156.912 438.448,90.509 135.584,156.578 135.37,155.598 438.451,89.483 438.559,89.506 
					738.524,155.932 				"/>
			</g>
			<g opacity="0.1639">
				<polygon fill="#47454F" points="738.307,157.566 438.448,91.165 135.584,157.232 135.37,156.252 438.451,90.139 438.559,90.162 
					738.524,156.586 				"/>
			</g>
			<g opacity="0.1475">
				<polygon fill="#47454F" points="738.307,158.222 438.448,91.819 135.584,157.887 135.37,156.908 438.451,90.792 438.559,90.816 
					738.524,157.242 				"/>
			</g>
			<g opacity="0.1311">
				<polygon fill="#47454F" points="738.307,158.876 438.448,92.473 135.584,158.543 135.37,157.563 438.451,91.447 438.559,91.47 
					738.524,157.896 				"/>
			</g>
			<g opacity="0.1148">
				<polygon fill="#47454F" points="738.307,159.532 438.448,93.129 135.584,159.197 135.37,158.217 438.451,92.103 438.559,92.126 
					738.524,158.552 				"/>
			</g>
			<g opacity="0.0984">
				<polygon fill="#47454F" points="738.307,160.187 438.448,93.785 135.584,159.852 135.37,158.872 438.451,92.758 438.559,92.781 
					738.524,159.208 				"/>
			</g>
			<g opacity="0.082">
				<polygon fill="#47454F" points="738.307,160.841 438.448,94.438 135.584,160.507 135.37,159.527 438.451,93.413 438.559,93.436 
					738.524,159.861 				"/>
			</g>
			<g opacity="0.0656">
				<polygon fill="#47454F" points="738.307,161.497 438.448,95.094 135.584,161.163 135.37,160.183 438.451,94.068 438.559,94.091 
					738.524,160.517 				"/>
			</g>
			<g opacity="0.0492">
				<polygon fill="#47454F" points="738.307,162.151 438.448,95.749 135.584,161.817 135.37,160.837 438.451,94.722 438.559,94.746 
					738.524,161.171 				"/>
			</g>
			<g opacity="0.0328">
				<polygon fill="#47454F" points="738.307,162.807 438.448,96.404 135.584,162.473 135.37,161.493 438.451,95.378 438.559,95.401 
					738.524,161.827 				"/>
			</g>
			<g opacity="0.0164">
				<polygon fill="#47454F" points="738.307,163.462 438.448,97.06 135.584,163.126 135.37,162.147 438.451,96.034 438.559,96.057 
					738.524,162.482 				"/>
			</g>
			<g opacity="0">
				<polygon fill="#47454F" points="738.307,164.117 438.448,97.714 135.584,163.782 135.37,162.803 438.451,96.688 438.559,96.711 
					738.524,163.137 				"/>
			</g>
		</g>
		<rect x="388.47" y="180.913" fill="#A07A58" width="60.687" height="126.339"/>
		<rect x="457.005" y="180.913" fill="#A07A58" width="60.687" height="128.345"/>
		<rect x="524.377" y="180.913" fill="#A07A58" width="60.687" height="128.345"/>
		<polygon fill="#8E602F" points="287.715,317.28 265.392,349.06 265.392,146.129 287.715,146.129 		"/>
		<rect x="195.774" y="146.129" fill="#BE9157" width="70.786" height="175.498"/>
		<g>
			<rect x="525.715" y="310.231" fill="#332820" width="58.741" height="5.519"/>
			<path fill="#96724B" d="M583.483,311.204v3.573h-56.796v-3.573H583.483L583.483,311.204z M585.429,309.258h-60.687v7.464h60.687
				V309.258L585.429,309.258z"/>
		</g>
		<g>
			<rect x="525.715" y="241.281" fill="#332820" width="58.741" height="5.519"/>
			<path fill="#96724B" d="M583.483,242.254v3.573h-56.796v-3.573H583.483L583.483,242.254z M585.429,240.309h-60.687v7.464h60.687
				V240.309L585.429,240.309z"/>
		</g>
		<g>
			<rect x="389.352" y="310.231" fill="#332820" width="58.743" height="5.519"/>
			<path fill="#96724B" d="M447.122,311.204v3.573h-56.798v-3.573H447.122L447.122,311.204z M449.067,309.258H388.38v7.464h60.688
				V309.258L449.067,309.258z"/>
		</g>
		<g>
			<rect x="389.352" y="241.281" fill="#332820" width="58.743" height="5.519"/>
			<path fill="#96724B" d="M447.122,242.254v3.573h-56.798v-3.573H447.122L447.122,242.254z M449.067,240.309H388.38v7.464h60.688
				V240.309L449.067,240.309z"/>
		</g>
		<polygon fill="#8E602F" points="366.437,317.28 344.111,349.06 344.111,146.129 366.437,146.129 		"/>
		<polygon fill="#CEA272" points="410.45,208.638 350.309,312.956 350.309,211.315 368.383,208.638 		"/>
		<rect x="350.309" y="211.315" fill="#BE9157" width="50.731" height="108.326"/>
		<polygon fill="#8E602F" points="410.45,293.222 401.04,319.964 401.04,211.315 410.45,208.638 		"/>
		<rect x="274.494" y="146.129" fill="#BE9157" width="70.788" height="189.557"/>
		<polygon fill="#8E602F" points="214.727,315.63 138.456,349.06 138.456,146.129 214.727,146.129 		"/>
		<rect x="67.671" y="146.129" fill="#BE9157" width="70.785" height="202.93"/>
		<rect x="147.899" y="146.129" fill="#BE9157" width="70.787" height="202.93"/>
		<polygon fill="#8E602F" points="260.355,325.511 218.52,349.06 218.52,146.129 260.355,146.129 		"/>
		<g>
			<rect x="240.469" y="146.129" fill="#664C33" width="1.671" height="202.93"/>
		</g>
		<polygon fill="#8E602F" points="335.905,319.635 297.41,349.06 297.41,161.173 335.905,161.173 		"/>
		<rect x="227.795" y="161.173" fill="#BE9157" width="70.785" height="187.887"/>
		<polygon fill="#8E602F" points="664.677,295.571 705.065,329 705.065,136.102 664.677,136.102 		"/>
		<rect x="705.065" y="136.102" fill="#AD8253" width="64.078" height="192.899"/>
		<rect x="648.236" y="146.129" fill="#BE9157" width="70.787" height="192.899"/>
		<polygon fill="#8E602F" points="606.565,315.48 648.406,339.028 648.406,146.129 606.565,146.129 		"/>
		<polygon fill="#8E602F" points="541.832,314.939 569.513,339.028 569.513,146.129 541.832,146.129 		"/>
		<rect x="568.343" y="146.129" fill="#BE9157" width="70.785" height="192.899"/>
		<g>
			<rect x="102.434" y="146.129" fill="#96724B" width="1.672" height="202.93"/>
		</g>
		<g>
			<rect x="182.457" y="146.129" fill="#96724B" width="1.672" height="202.93"/>
		</g>
		<g>
			<rect x="262.551" y="161.173" fill="#96724B" width="1.672" height="187.887"/>
		</g>
		<g>
			<rect x="312.339" y="161.173" fill="#664C33" width="1.672" height="187.887"/>
		</g>
		<g>
			<rect x="325.376" y="161.173" fill="#664C33" width="1.672" height="187.887"/>
		</g>
		<g>
			<g>
				<rect x="67.671" y="174.039" fill="#96724B" width="70.785" height="1.672"/>
			</g>
			<g>
				<rect x="67.671" y="319.787" fill="#96724B" width="70.785" height="1.672"/>
			</g>
			<g>
				<rect x="67.671" y="290.638" fill="#96724B" width="70.785" height="1.671"/>
			</g>
			<g>
				<rect x="67.671" y="261.487" fill="#96724B" width="70.785" height="1.672"/>
			</g>
			<g>
				<rect x="67.671" y="232.338" fill="#96724B" width="70.785" height="1.672"/>
			</g>
			<g>
				<rect x="67.671" y="203.188" fill="#96724B" width="70.785" height="1.672"/>
			</g>
		</g>
		<g>
			<g>
				<rect x="147.899" y="319.787" fill="#96724B" width="70.787" height="1.672"/>
			</g>
			<g>
				<rect x="147.899" y="261.487" fill="#96724B" width="70.787" height="1.672"/>
			</g>
			<g>
				<rect x="147.899" y="203.188" fill="#96724B" width="70.787" height="1.672"/>
			</g>
		</g>
		<g>
			<g>
				<rect x="227.992" y="310.515" fill="#96724B" width="70.787" height="1.898"/>
			</g>
			<g>
				<rect x="227.992" y="272.941" fill="#96724B" width="70.787" height="1.899"/>
			</g>
			<g>
				<rect x="227.992" y="235.369" fill="#96724B" width="70.787" height="1.898"/>
			</g>
			<g>
				<rect x="227.992" y="197.795" fill="#96724B" width="70.787" height="1.899"/>
			</g>
		</g>
		<g>
			<g>
				<rect x="68.297" y="172.39" fill="#332820" width="69.481" height="5.189"/>
				<path fill="#96724B" d="M136.806,173.361v3.245l-67.536,0.003v-3.245L136.806,173.361L136.806,173.361z M138.751,171.416
					l-71.427,0.003v7.135l71.427-0.003V171.416L138.751,171.416z"/>
			</g>
			<rect x="100.16" y="171.416" fill="#96724B" width="5.757" height="7.138"/>
		</g>
		<g>
			<g>
				<rect x="68.297" y="201.43" fill="#332820" width="69.481" height="5.187"/>
				<path fill="#96724B" d="M136.806,202.402v3.242H69.27v-3.242H136.806L136.806,202.402z M138.751,200.458H67.324v7.132h71.427
					V200.458L138.751,200.458z"/>
			</g>
			<rect x="100.16" y="200.458" fill="#96724B" width="5.757" height="7.132"/>
		</g>
		<g>
			<g>
				<rect x="68.297" y="230.581" fill="#332820" width="69.481" height="5.187"/>
				<path fill="#96724B" d="M136.806,231.553v3.242H69.27v-3.242H136.806L136.806,231.553z M138.751,229.608H67.324v7.132h71.427
					V229.608L138.751,229.608z"/>
			</g>
			<rect x="100.16" y="229.611" fill="#96724B" width="5.757" height="7.129"/>
		</g>
		<g>
			<g>
				<rect x="68.297" y="259.729" fill="#332820" width="69.481" height="5.187"/>
				<path fill="#96724B" d="M136.806,260.702v3.242H69.27v-3.242H136.806L136.806,260.702z M138.751,258.757H67.324v7.132h71.427
					V258.757L138.751,258.757z"/>
			</g>
			<rect x="100.163" y="258.757" fill="#96724B" width="5.754" height="7.135"/>
		</g>
		<g>
			<g>
				<rect x="68.297" y="288.88" fill="#332820" width="69.481" height="5.187"/>
				<path fill="#96724B" d="M136.806,289.853v3.242H69.27v-3.242H136.806L136.806,289.853z M138.751,287.907H67.324v7.132h71.427
					V287.907L138.751,287.907z"/>
			</g>
			<rect x="100.163" y="287.91" fill="#96724B" width="5.754" height="7.135"/>
		</g>
		<rect x="138.456" y="171.309" fill="#604732" width="9.443" height="7.132"/>
		<rect x="138.456" y="200.458" fill="#604732" width="9.585" height="7.132"/>
		<g>
			<g>
				<rect x="147.868" y="201.43" fill="#332820" width="69.482" height="5.187"/>
				<path fill="#96724B" d="M216.378,202.402v3.242H148.84v-3.242H216.378L216.378,202.402z M218.323,200.458h-71.428v7.132h71.428
					V200.458L218.323,200.458z"/>
			</g>
			<rect x="179.732" y="200.458" fill="#96724B" width="5.754" height="7.132"/>
		</g>
		<rect x="218.026" y="200.458" fill="#604732" width="9.584" height="7.132"/>
		<g>
			<g>
				<rect x="227.766" y="196.151" fill="#332820" width="69.48" height="5.187"/>
				<path fill="#96724B" d="M296.273,197.124v3.242h-67.535v-3.242H296.273L296.273,197.124z M298.218,195.179h-71.425v7.132h71.425
					V195.179L298.218,195.179z"/>
			</g>
			<rect x="259.627" y="195.179" fill="#96724B" width="5.754" height="7.132"/>
		</g>
		<g>
			<polygon fill="#33271F" points="298.758,195.945 335.736,192.748 335.736,198.203 298.758,201.399 			"/>
			<path fill="#604732" d="M334.9,193.658v3.777l-35.307,3.054v-3.777L334.9,193.658L334.9,193.658z M336.572,191.837l-38.65,3.342
				v7.132l38.65-3.342V191.837L336.572,191.837z"/>
		</g>
		<g>
			<g>
				<rect x="227.766" y="233.725" fill="#332820" width="69.48" height="5.187"/>
				<path fill="#96724B" d="M296.273,234.697v3.242h-67.535v-3.242H296.273L296.273,234.697z M298.218,232.752h-71.425v7.132h71.425
					V232.752L298.218,232.752z"/>
			</g>
			<rect x="259.627" y="232.752" fill="#96724B" width="5.754" height="7.132"/>
		</g>
		<g>
			<polygon fill="#33271F" points="298.758,233.444 335.736,226.407 335.736,231.839 298.758,238.874 			"/>
			<path fill="#604732" d="M334.9,227.416v3.732l-35.307,6.718v-3.729L334.9,227.416L334.9,227.416z M336.572,225.396l-38.65,7.356
				v7.132l38.65-7.353V225.396L336.572,225.396z"/>
		</g>
		<g>
			<g>
				<rect x="569.683" y="333.341" fill="#332820" width="69.48" height="5.187"/>
				<path fill="#96724B" d="M638.19,334.314v3.242h-67.535v-3.242H638.19L638.19,334.314z M640.136,332.369H568.71v7.132h71.426
					V332.369L640.136,332.369z"/>
			</g>
			<rect x="601.548" y="332.369" fill="#96724B" width="5.754" height="7.132"/>
		</g>
		<g>
			<polygon fill="#33271F" points="542.668,315.888 542.668,310.955 568.171,332.754 568.171,337.687 			"/>
			<path fill="#604732" d="M543.504,312.768l23.831,20.372v2.735l-23.831-20.372V312.768L543.504,312.768z M541.832,309.141v7.132
				l27.175,23.228v-7.132L541.832,309.141L541.832,309.141z"/>
		</g>
		<g>
			<g>
				<rect x="569.683" y="239.297" fill="#332820" width="69.48" height="5.187"/>
				<path fill="#96724B" d="M638.19,240.27v3.242h-67.535v-3.242H638.19L638.19,240.27z M640.136,238.325H568.71v7.132h71.426
					V238.325L640.136,238.325z"/>
			</g>
			<rect x="601.548" y="238.325" fill="#96724B" width="5.754" height="7.132"/>
		</g>
		<g>
			<polygon fill="#33271F" points="542.668,234.684 542.668,229.336 568.171,238.903 568.171,244.25 			"/>
			<path fill="#604732" d="M543.504,230.541l23.831,8.942v3.562l-23.831-8.94V230.541L543.504,230.541z M541.832,228.129v7.133
				l27.175,10.194v-7.132L541.832,228.129L541.832,228.129z"/>
		</g>
		<g>
			<g>
				<rect x="227.766" y="270.651" fill="#332820" width="69.48" height="5.191"/>
				<path fill="#96724B" d="M296.273,271.624v3.246h-67.535v-3.246H296.273L296.273,271.624z M298.218,269.679h-71.425v7.137h71.425
					V269.679L298.218,269.679z"/>
			</g>
			<rect x="259.627" y="269.679" fill="#96724B" width="5.754" height="7.137"/>
		</g>
		<g>
			<polygon fill="#33271F" points="298.758,270.314 335.736,260.083 335.736,265.48 298.758,275.716 			"/>
			<path fill="#604732" d="M334.9,261.18v3.664l-35.307,9.775v-3.668L334.9,261.18L334.9,261.18z M336.572,258.983l-38.65,10.695
				v7.137l38.65-10.7V258.983L336.572,258.983z"/>
		</g>
		<g>
			<g>
				<rect x="227.766" y="308.225" fill="#332820" width="69.48" height="5.19"/>
				<path fill="#96724B" d="M296.273,309.197v3.245h-67.535v-3.245H296.273L296.273,309.197z M298.218,307.252h-71.425v7.135h71.425
					V307.252L298.218,307.252z"/>
			</g>
			<rect x="259.627" y="307.252" fill="#96724B" width="5.754" height="7.135"/>
		</g>
		<g>
			<polygon fill="#33271F" points="298.758,307.838 335.736,294.403 335.736,299.757 298.758,313.194 			"/>
			<path fill="#604732" d="M334.9,295.596v3.575l-35.307,12.831v-3.578L334.9,295.596L334.9,295.596z M336.572,293.21l-38.65,14.042
				v7.135l38.65-14.044V293.21L336.572,293.21z"/>
		</g>
		<rect x="138.456" y="229.608" fill="#604732" width="9.443" height="7.132"/>
		<polygon fill="#604732" points="148.041,265.225 138.456,265.892 138.456,258.76 148.041,258.09 		"/>
		<g>
			<g>
				<rect x="147.868" y="259.729" fill="#332820" width="69.482" height="5.187"/>
				<path fill="#96724B" d="M216.378,260.702v3.242H148.84v-3.242H216.378L216.378,260.702z M218.323,258.757h-71.428v7.132h71.428
					V258.757L218.323,258.757z"/>
			</g>
			<rect x="179.732" y="258.757" fill="#96724B" width="5.754" height="7.135"/>
		</g>
		<polygon fill="#604732" points="227.61,265.225 218.026,265.892 218.026,258.76 227.61,258.09 		"/>
		<polygon fill="#604732" points="147.899,293.372 138.458,295.045 138.456,287.91 147.899,286.237 		"/>
		<g>
			<polygon fill="#604732" points="147.868,321.52 138.456,324.194 138.456,317.062 147.868,314.387 			"/>
			<g>
				<g>
					<rect x="68.297" y="318.029" fill="#332820" width="69.481" height="5.187"/>
					<path fill="#96724B" d="M136.806,319.001v3.242l-67.536,0.003v-3.245H136.806L136.806,319.001z M138.751,317.056H67.324v7.135
						l71.427-0.003V317.056L138.751,317.056z"/>
				</g>
				<rect x="100.163" y="317.059" fill="#96724B" width="5.754" height="7.135"/>
			</g>
		</g>
		<g>
			<polygon fill="#604732" points="227.945,321.52 218.361,324.194 218.361,317.062 227.945,314.387 			"/>
			<g>
				<g>
					<rect x="148.203" y="318.029" fill="#332820" width="69.482" height="5.187"/>
					<path fill="#96724B" d="M216.713,319.001v3.242l-67.537,0.003v-3.245H216.713L216.713,319.001z M218.658,317.056H147.23v7.135
						l71.428-0.003V317.056L218.658,317.056z"/>
				</g>
				<rect x="180.066" y="317.059" fill="#96724B" width="5.756" height="7.135"/>
			</g>
		</g>
		<g>
			<polygon fill="#604732" points="147.868,348.615 138.456,352.625 138.456,345.493 147.868,341.479 			"/>
			<g>
				<g>
					<rect x="68.297" y="346.46" fill="#332820" width="69.481" height="5.189"/>
					<path fill="#96724B" d="M136.806,347.433v3.244H69.27v-3.244H136.806L136.806,347.433z M138.751,345.487H67.324v7.135h71.427
						V345.487L138.751,345.487z"/>
				</g>
				<rect x="100.163" y="345.493" fill="#96724B" width="5.754" height="7.132"/>
			</g>
		</g>
		<g>
			<polygon fill="#604732" points="227.945,348.615 218.361,352.625 218.361,345.493 227.945,341.479 			"/>
			<g>
				<g>
					<rect x="148.203" y="346.46" fill="#332820" width="69.482" height="5.189"/>
					<path fill="#96724B" d="M216.713,347.433v3.244h-67.537v-3.244H216.713L216.713,347.433z M218.658,345.487H147.23v7.135h71.428
						V345.487L218.658,345.487z"/>
				</g>
				<rect x="180.066" y="345.493" fill="#96724B" width="5.756" height="7.132"/>
			</g>
		</g>
		<g>
			<polygon fill="#604732" points="307.588,346.608 298.003,352.625 298.003,345.493 307.588,339.476 			"/>
			<g>
				<g>
					<rect x="227.844" y="346.46" fill="#332820" width="69.481" height="5.189"/>
					<path fill="#96724B" d="M296.354,347.433v3.244h-67.537v-3.244H296.354L296.354,347.433z M298.298,345.487h-71.427v7.135
						h71.427V345.487L298.298,345.487z"/>
				</g>
				<rect x="259.709" y="345.493" fill="#96724B" width="5.754" height="7.132"/>
			</g>
		</g>
		<polygon fill="#CEA272" points="392.735,237.385 307.521,349.06 307.521,247.416 347.354,237.385 		"/>
		<rect x="307.521" y="247.416" fill="#BE9157" width="70.787" height="101.644"/>
		<rect x="314.916" y="174.875" fill="#BE9157" width="70.787" height="59.224"/>
		<rect x="383.419" y="174.875" fill="#8E602F" width="10.653" height="61.506"/>
		<polygon fill="#8E602F" points="392.735,322.316 378.308,349.06 378.308,247.416 392.735,237.385 		"/>
		<g>
			<polygon fill="#96724B" points="343.584,349.06 342.246,349.06 342.246,246.942 371.229,236.754 371.675,238.016 343.584,247.89 
							"/>
		</g>
		<g>
			<rect x="384.686" y="242.584" fill="#664C33" width="1.672" height="88.927"/>
		</g>
		<g>
			<polygon fill="#604732" points="393.403,323.623 377.117,352.625 377.117,345.493 393.403,316.491 			"/>
			<g>
				<g>
					<rect x="306.96" y="346.46" fill="#332820" width="69.482" height="5.189"/>
					<path fill="#96724B" d="M375.471,347.433v3.244h-67.538v-3.244H375.471L375.471,347.433z M377.415,345.487h-71.428v7.135
						h71.428V345.487L377.415,345.487z"/>
				</g>
				<rect x="338.823" y="345.493" fill="#96724B" width="5.754" height="7.132"/>
			</g>
		</g>
		<rect x="198.18" y="207.589" opacity="0.5" fill="#754C29" width="4.678" height="51.167"/>
		<rect x="198.18" y="146.129" opacity="0.5" fill="#754C29" width="4.678" height="54.438"/>
		<rect x="162.855" y="207.589" opacity="0.5" fill="#754C29" width="4.682" height="51.167"/>
		<rect x="198.18" y="265.892" opacity="0.5" fill="#754C29" width="4.678" height="51.167"/>
		<rect x="162.855" y="265.892" opacity="0.5" fill="#754C29" width="4.682" height="51.167"/>
		<polygon opacity="0.5" fill="#754C29" points="167.54,328.919 162.854,328.901 162.854,324.188 167.54,324.206 		"/>
		<polygon opacity="0.5" fill="#754C29" points="202.861,328.919 198.178,328.901 198.178,324.188 202.86,324.206 		"/>
		<polygon opacity="0.5" fill="#754C29" points="122.967,328.919 118.281,328.901 118.281,324.188 122.967,324.206 		"/>
		<polygon opacity="0.5" fill="#754C29" points="87.978,328.919 83.294,328.901 83.294,324.188 87.978,324.206 		"/>
		<polygon opacity="0.5" fill="#754C29" points="122.899,299.769 118.214,299.752 118.214,295.04 122.898,295.057 		"/>
		<polygon opacity="0.5" fill="#754C29" points="87.911,299.769 83.226,299.752 83.226,295.04 87.911,295.057 		"/>
		<polygon opacity="0.5" fill="#754C29" points="122.967,270.62 118.281,270.602 118.281,265.889 122.967,265.906 		"/>
		<polygon opacity="0.5" fill="#754C29" points="87.978,270.62 83.294,270.602 83.294,265.889 87.978,265.906 		"/>
		<polygon opacity="0.5" fill="#754C29" points="122.967,241.537 118.281,241.523 118.281,236.811 122.967,236.827 		"/>
		<polygon opacity="0.5" fill="#754C29" points="87.978,241.537 83.294,241.523 83.294,236.811 87.978,236.827 		"/>
		<polygon opacity="0.5" fill="#754C29" points="122.967,212.32 118.281,212.302 118.281,207.589 122.967,207.607 		"/>
		<polygon opacity="0.5" fill="#754C29" points="87.978,212.32 83.294,212.302 83.294,207.589 87.978,207.607 		"/>
		<polygon opacity="0.5" fill="#754C29" points="122.967,183.277 118.281,183.263 118.281,178.554 122.967,178.567 		"/>
		<polygon opacity="0.5" fill="#754C29" points="87.978,183.277 83.294,183.263 83.294,178.554 87.978,178.567 		"/>
		<polygon opacity="0.5" fill="#754C29" points="122.967,150.858 118.281,150.841 118.281,146.129 122.967,146.143 		"/>
		<polygon opacity="0.5" fill="#754C29" points="247.488,165.899 242.803,165.881 242.803,161.173 247.488,161.186 		"/>
		<polygon opacity="0.5" fill="#754C29" points="282.422,165.899 277.738,165.881 277.738,161.173 282.421,161.186 		"/>
		<polygon opacity="0.5" fill="#754C29" points="247.488,207.042 242.803,207.027 242.803,202.311 247.488,202.328 		"/>
		<polygon opacity="0.5" fill="#754C29" points="282.422,207.042 277.738,207.027 277.738,202.311 282.421,202.328 		"/>
		<polygon opacity="0.5" fill="#754C29" points="247.488,244.613 242.803,244.597 242.803,239.884 247.488,239.902 		"/>
		<polygon opacity="0.5" fill="#754C29" points="282.422,244.613 277.738,244.597 277.738,239.884 282.421,239.902 		"/>
		<polygon opacity="0.5" fill="#754C29" points="328.988,257.576 324.305,257.543 324.305,247.416 328.988,247.45 		"/>
		<polygon opacity="0.5" fill="#754C29" points="363.922,260.826 359.236,260.783 359.236,247.416 363.92,247.461 		"/>
		<polygon opacity="0.5" fill="#754C29" points="363.922,247.614 359.236,247.566 373.008,240.883 377.691,240.931 		"/>
		<polygon opacity="0.5" fill="#754C29" points="328.988,247.614 324.305,247.566 344.09,240.883 348.775,240.931 		"/>
		<polygon opacity="0.5" fill="#754C29" points="247.488,281.542 242.803,281.524 242.803,276.815 247.488,276.828 		"/>
		<polygon opacity="0.5" fill="#754C29" points="282.422,281.542 277.738,281.524 277.738,276.815 282.421,276.828 		"/>
		<polygon opacity="0.5" fill="#754C29" points="247.488,319.086 242.803,319.068 242.803,314.357 247.488,314.373 		"/>
		<polygon opacity="0.5" fill="#754C29" points="282.422,319.086 277.738,319.068 277.738,314.357 282.421,314.373 		"/>
		<polygon opacity="0.5" fill="#754C29" points="87.978,150.858 83.294,150.841 83.294,146.129 87.978,146.143 		"/>
		<rect x="162.855" y="146.129" opacity="0.5" fill="#754C29" width="4.682" height="54.436"/>
		<g>
			
				<rect x="175.002" y="252.774" transform="matrix(0.998 -0.0638 0.0638 0.998 -15.8922 11.843)" fill="#D1D3D4" width="4.734" height="3.644"/>
			<g opacity="0.4">
				<path fill="#895F3F" d="M179.613,252.626l0.232,3.637l-4.725,0.302l-0.229-3.637L179.613,252.626L179.613,252.626z
					 M180.238,251.917l-0.667,0.042l-4.722,0.303l-0.668,0.042l0.042,0.667l0.23,3.638l0.042,0.667l0.667-0.042l4.725-0.302
					l0.667-0.042l-0.042-0.667l-0.232-3.637L180.238,251.917L180.238,251.917z"/>
			</g>
		</g>
		<g>
			<rect x="325.431" y="242.193" fill="#96724B" width="61.899" height="1.337"/>
		</g>
		<g>
			
				<rect x="175.67" y="195.325" transform="matrix(0.9958 0.0916 -0.0916 0.9958 18.8143 -15.4846)" fill="#D1D3D4" width="4.732" height="3.644"/>
			<g opacity="0.4">
				<path fill="#895F3F" d="M175.847,195.116l4.711,0.436l-0.332,3.626l-4.712-0.434L175.847,195.116L175.847,195.116z
					 M175.241,194.39l-0.061,0.666l-0.333,3.628l-0.061,0.666l0.665,0.061l4.712,0.433l0.666,0.061l0.061-0.666l0.333-3.626
					l0.062-0.666l-0.666-0.061l-4.712-0.436L175.241,194.39L175.241,194.39z"/>
			</g>
		</g>
		<g>
			
				<rect x="211.439" y="194.255" transform="matrix(0.9969 -0.0783 0.0783 0.9969 -14.6989 17.3461)" fill="#D1D3D4" width="4.732" height="3.642"/>
			<g opacity="0.4">
				<path fill="#895F3F" d="M216.021,194.075l0.285,3.632l-4.718,0.371l-0.284-3.631L216.021,194.075L216.021,194.075z
					 M216.634,193.356l-0.665,0.052l-4.718,0.372l-0.667,0.052l0.052,0.666l0.285,3.631l0.053,0.666l0.667-0.053l4.718-0.369
					l0.665-0.054l-0.052-0.666l-0.285-3.631L216.634,193.356L216.634,193.356z"/>
			</g>
		</g>
		<polygon opacity="0.5" fill="#8E602F" points="379.934,246.284 311.7,246.284 335.905,240.003 389.838,240.003 		"/>
		<g>
			
				<rect x="211.439" y="253.293" transform="matrix(0.9944 -0.1053 0.1053 0.9944 -25.6855 23.9429)" fill="#D1D3D4" width="4.732" height="3.643"/>
			<g opacity="0.4">
				<path fill="#895F3F" d="M215.963,253.054l0.388,3.623l-4.706,0.499l-0.385-3.623L215.963,253.054L215.963,253.054z
					 M216.556,252.318l-0.663,0.071l-4.704,0.499l-0.664,0.07l0.071,0.666l0.385,3.623l0.07,0.664l0.664-0.071l4.707-0.499
					l0.664-0.07l-0.071-0.666l-0.388-3.623L216.556,252.318L216.556,252.318z"/>
			</g>
		</g>
		<g>
			
				<rect x="175.001" y="310.742" transform="matrix(0.9957 -0.0925 0.0925 0.9957 -28.1375 17.7366)" fill="#D1D3D4" width="4.732" height="3.644"/>
			<g opacity="0.4">
				<path fill="#895F3F" d="M179.554,310.53l0.339,3.629l-4.712,0.438l-0.339-3.628L179.554,310.53L179.554,310.53z
					 M180.157,309.804l-0.666,0.061l-4.71,0.438l-0.668,0.063l0.063,0.666l0.339,3.628l0.063,0.664l0.666-0.061l4.71-0.438
					l0.667-0.063l-0.063-0.666l-0.338-3.629L180.157,309.804L180.157,309.804z"/>
			</g>
		</g>
		<g>
			
				<rect x="210.66" y="309.644" transform="matrix(0.9929 0.1192 -0.1192 0.9929 38.6476 -23.1731)" fill="#D1D3D4" width="4.731" height="3.643"/>
			<g opacity="0.4">
				<path fill="#895F3F" d="M210.894,309.375l4.697,0.564l-0.434,3.617l-4.697-0.564L210.894,309.375L210.894,309.375z
					 M210.309,308.632l-0.08,0.663l-0.433,3.617l-0.079,0.665l0.663,0.08l4.697,0.564l0.664,0.079l0.08-0.663l0.434-3.617
					l0.078-0.664l-0.663-0.08l-4.696-0.564L210.309,308.632L210.309,308.632z"/>
			</g>
		</g>
		<g>
			<rect x="391.677" y="229.695" fill="#1A2026" width="7.39" height="9.971"/>
			<path fill="#282B33" d="M399.066,348.255c0,1.329,1.33,2.418,2.955,2.418h49.072c1.625,0,2.955-1.089,2.955-2.418
				c0-1.33-1.33-2.419-2.955-2.419h-49.072C400.396,345.836,399.066,346.925,399.066,348.255z"/>
			<rect x="407.243" y="272.649" fill="#33373B" width="3.944" height="3.939"/>
			<rect x="407.243" y="233.802" fill="#33373B" width="3.944" height="3.943"/>
			<polygon fill="#DF5914" points="395.815,347.84 454.049,347.84 454.049,330.691 448.136,296.395 437.494,286.638 
				395.815,286.638 			"/>
			<polygon fill="#F27532" points="427.167,347.84 449.635,347.84 449.635,330.691 443.722,296.395 433.081,286.638 
				427.167,286.638 			"/>
			<polygon fill="#33373B" points="427.444,299.944 427.444,286.638 437.494,286.638 448.136,296.395 448.748,299.944 			"/>
			<polygon fill="#45454C" points="422.916,299.944 422.916,286.638 432.967,286.638 443.61,296.395 444.221,299.944 			"/>
			<polygon fill="#45454C" points="440.156,330.691 457.005,330.691 457.005,348.133 395.815,348.133 395.815,286.638 
				433.216,286.638 			"/>
			<rect x="407.344" y="286.638" fill="#F27532" width="15.961" height="4.733"/>
			<g>
				<g>
					
						<rect x="444.36" y="274.245" transform="matrix(0.7754 0.6315 -0.6315 0.7754 279.5239 -217.8402)" fill="#33373B" width="3.251" height="19.537"/>
				</g>
				<path fill="none" stroke="#33373B" stroke-width="1.5111" stroke-miterlimit="10" d="M447.886,272.873
					c-4.03,4.825-5.424,10.295-3.114,12.226c2.308,1.928,7.444-0.421,11.475-5.244L447.886,272.873z"/>
			</g>
			<rect x="395.815" y="213.964" fill="#282B33" width="11.528" height="134.169"/>
			<g>
				<polygon fill="#282B33" points="424.14,341.033 407.344,341.033 407.344,339.361 422.469,339.361 422.469,291.372 
					424.14,291.372 				"/>
			</g>
			<rect x="452.373" y="330.691" fill="#33373B" width="4.632" height="17.067"/>
			<rect x="407.344" y="288.736" fill="#DF5914" width="15.961" height="2.636"/>
			<polygon fill="#33373B" points="389.015,234.657 389.015,221.56 396.047,221.56 396.047,240.533 388.209,240.533 
				336.694,240.533 336.694,234.657 			"/>
			<g>
				<g>
					
						<rect x="413.772" y="323.99" transform="matrix(0.4935 0.8698 -0.8698 0.4935 496.0415 -193.7487)" fill="#1E2026" width="1.183" height="10.024"/>
				</g>
				<g>
					
						<rect x="413.789" y="321.598" transform="matrix(0.4935 0.8698 -0.8698 0.4935 493.9689 -194.9755)" fill="#1E2026" width="1.183" height="10.023"/>
				</g>
				<g>
					
						<rect x="413.808" y="319.207" transform="matrix(0.4935 0.8698 -0.8698 0.4935 491.899 -196.2026)" fill="#1E2026" width="1.183" height="10.024"/>
				</g>
				<g>
					
						<rect x="413.825" y="316.814" transform="matrix(0.4941 0.8694 -0.8694 0.4941 489.4542 -197.4839)" fill="#1E2026" width="1.184" height="10.025"/>
				</g>
				<g>
					
						<rect x="413.843" y="314.422" transform="matrix(0.4916 0.8708 -0.8708 0.4916 488.8716 -198.4972)" fill="#1E2026" width="1.182" height="10.023"/>
				</g>
				<g>
					
						<rect x="413.861" y="312.031" transform="matrix(0.4916 0.8708 -0.8708 0.4916 486.7979 -199.7284)" fill="#1E2026" width="1.182" height="10.023"/>
				</g>
			</g>
		</g>
		<g>
			<rect x="348.463" y="174.875" fill="#96724B" width="1.672" height="59.782"/>
		</g>
		<g>
			<rect x="605.509" y="146.129" fill="#96724B" width="1.672" height="186.284"/>
		</g>
		<g>
			<rect x="682.398" y="146.129" fill="#96724B" width="1.672" height="186.284"/>
		</g>
		<g>
			<rect x="554.837" y="146.129" fill="#664C33" width="1.672" height="176.256"/>
		</g>
		<g>
			<rect x="315.348" y="234.975" fill="#332820" width="69.48" height="5.187"/>
			<path fill="#A57F49" d="M383.855,235.948v3.242H316.32v-3.242H383.855L383.855,235.948z M385.801,234.002h-71.426v7.132h71.426
				V234.002L385.801,234.002z"/>
		</g>
		<rect x="346.247" y="234.71" fill="#A57F49" width="5.754" height="5.904"/>
		<rect x="329.889" y="174.848" opacity="0.5" fill="#754C29" width="4.685" height="59.163"/>
		<rect x="364.654" y="174.848" opacity="0.5" fill="#754C29" width="4.684" height="59.163"/>
		<rect x="590.597" y="303.409" fill="#17161B" width="15.969" height="19.297"/>
		<polygon fill="#1A2026" points="607.347,288.195 593.305,287.193 593.305,205.79 607.347,205.79 		"/>
		<polygon fill="#3E3C39" points="860.484,349.519 843.017,344.384 843.017,166.68 860.484,166.68 		"/>
		<g>
			<rect x="457.978" y="310.231" fill="#332820" width="58.741" height="5.519"/>
			<path fill="#96724B" d="M515.746,311.204v3.573H458.95v-3.573H515.746L515.746,311.204z M517.691,309.258h-60.687v7.464h60.687
				V309.258L517.691,309.258z"/>
		</g>
		<g>
			<rect x="457.978" y="241.281" fill="#332820" width="58.741" height="5.519"/>
			<path fill="#96724B" d="M515.746,242.254v3.573H458.95v-3.573H515.746L515.746,242.254z M517.691,240.309h-60.687v7.464h60.687
				V240.309L517.691,240.309z"/>
		</g>
		<g>
			<polygon fill="#666461" points="22.097,352.346 12.069,352.346 12.069,119.963 15.916,119.042 438.783,17.855 439.951,18.135 
				865.5,119.963 865.5,350.042 855.473,350.042 855.473,127.875 438.783,28.168 22.097,127.875 			"/>
		</g>
	</g>
	<g>
		<path fill-rule="evenodd" clip-rule="evenodd" fill="#632525" d="M473.861,232.639c1.818,1.364,7.575,2.777,4.297,0.365
			c-3.275-2.409-8.047-4.797-8.731-3.886C468.748,230.026,473.861,232.639,473.861,232.639z"/>
		<g>
			<path fill="#C6C5DD" stroke="#4E4C68" stroke-width="0.8022" stroke-linejoin="round" stroke-miterlimit="10" d="
				M485.619,345.258c1.074,0.199,0.478,5.254,0.478,5.254h-16.64c0,0-1.074-1.313-0.097-2.627c0.536-0.725,5.157-2.593,6.596-2.712
				c1.44-0.119,3.853,0.799,5.763,0.799S484.543,345.06,485.619,345.258z"/>
			<g>
				<path fill="#4E4C68" d="M469.183,349.796c-0.206,0-0.405-0.001-0.602-0.003l0.006-0.715c6.114,0.015,17.51-0.55,17.623-0.556
					l0.038,0.716C486.137,349.244,475.407,349.796,469.183,349.796z"/>
			</g>
			<path opacity="0.4" fill="#4E4C68" d="M480.05,345.714c0,0-5.654,1.713-7.03,2.37c-1.371,0.655-0.358,2.428,0,2.428h-3.084
				c0,0-1.572-2.251,0.397-3.326c1.971-1.073,4.907-1.752,4.907-1.752h4.81V345.714z"/>
			<g>
				<g>
					
						<path fill-rule="evenodd" clip-rule="evenodd" fill="#632525" stroke="#632525" stroke-width="0.8022" stroke-linejoin="round" stroke-miterlimit="10" d="
						M476.427,232.152c0,0-1.393-1.67-1.904-2.923c0,0,11.538-4.427,15.222,4.172c0,0,0.836,2.937-1.086,7.828
						c-1.39,3.531-4.43,4.002-4.43,4.002L476.427,232.152z"/>
					<path opacity="0.6" fill-rule="evenodd" clip-rule="evenodd" fill="#632525" d="M484.763,244.656c0,0,2.479-3.427-0.119-5.904
						c-2.597-2.479-2.017,1.492-2.017,1.492L484.763,244.656z"/>
					<path opacity="0.6" fill-rule="evenodd" clip-rule="evenodd" fill="#632525" d="M474.056,228.928
						c3.733,1.051,7.262,4.578,7.443,6.372c0,0-1.811-0.526-4.021-1.387l-1.91-1.859
						C475.567,232.053,473.54,229.367,474.056,228.928z"/>
					<g>
						<path fill-rule="evenodd" clip-rule="evenodd" fill="#EFC49B" d="M477.42,251.649c-0.13,0-0.253-0.052-0.344-0.146
							c-0.103-0.106-0.15-0.253-0.129-0.4l0.337-2.354c-0.102,0.004-0.215,0.008-0.334,0.008c-1.11,0-2.614-0.262-3.465-1.509
							c-1.162-1.712-1.242-4.642-0.733-6.722c-0.517-0.279-1.323-0.834-1.38-1.612c-0.071-0.952,0.854-1.445,1.529-1.805
							c0.294-0.157,0.698-0.373,0.767-0.512c0.072-0.148,0.159-0.384,0.267-0.672c0.39-1.045,1.043-2.794,2.177-3.793
							c0.087-0.078,0.2-0.121,0.315-0.121c0.039,0,0.08,0.006,0.119,0.016c0.11,0.029,2.728,0.726,4.344,2.926
							c0.102,0.138,0.121,0.32,0.051,0.477l-1.317,2.953l0.848,0.49c0.488-0.621,1.234-0.992,2.043-0.992
							c1.438,0,2.607,1.17,2.607,2.61c0,0.829-0.395,1.604-1.051,2.093c0.327,2.687,0.571,4.201,0.75,5.312
							c0.17,1.051,0.272,1.687,0.3,2.476c0.009,0.251-0.176,0.465-0.426,0.493C484.694,250.866,477.438,251.649,477.42,251.649z"/>
						<path fill="#A87756" d="M476.427,232.491c0,0,2.544,0.657,4.078,2.746c0,0-1.207,2.708-1.493,3.345l1.612,0.932
							c0.353-0.682,1.068-1.153,1.89-1.153c1.178,0,2.13,0.955,2.13,2.131c0,0.802-0.44,1.497-1.094,1.863l0.038,0.212
							c0.648,5.349,1,6.269,1.056,7.823l-7.224,0.781l0.424-2.957c0,0-0.367,0.065-0.894,0.065c-0.919,0-2.319-0.201-3.07-1.3
							c-1.176-1.733-1.125-4.82-0.564-6.71c0,0-1.408-0.595-1.467-1.39c-0.081-1.076,1.909-1.381,2.248-2.072
							C474.434,236.122,475.072,233.686,476.427,232.491L476.427,232.491z M476.427,231.536c-0.229,0-0.455,0.083-0.633,0.238
							c-1.223,1.079-1.901,2.899-2.307,3.985c-0.09,0.241-0.164,0.445-0.227,0.583c-0.103,0.088-0.39,0.243-0.585,0.346
							c-0.747,0.398-1.875,1-1.779,2.265c0.062,0.84,0.732,1.443,1.314,1.813c-0.39,1.919-0.423,4.833,0.878,6.751
							c0.726,1.063,2.014,1.666,3.645,1.715l-0.26,1.804c-0.041,0.292,0.054,0.586,0.259,0.798c0.182,0.188,0.43,0.292,0.688,0.292
							c0.033,0,0.068-0.001,0.103-0.006l7.224-0.781c0.498-0.054,0.87-0.482,0.853-0.983c-0.029-0.82-0.134-1.465-0.306-2.537
							c-0.173-1.073-0.407-2.525-0.717-5.033c0.643-0.58,1.022-1.412,1.022-2.295c0-1.703-1.384-3.086-3.085-3.086
							c-0.813,0-1.573,0.315-2.137,0.862l-0.142-0.081c0.461-1.032,1.142-2.562,1.142-2.562c0.14-0.313,0.1-0.678-0.102-0.954
							c-1.716-2.336-4.492-3.075-4.61-3.105C476.587,231.546,476.507,231.536,476.427,231.536L476.427,231.536z"/>
					</g>
					<g>
						<path fill="#BC8A68" d="M483.006,243.504c-0.073,0.001-0.152-0.004-0.247-0.012l-0.641-0.045l0.063-0.954l0.657,0.047
							c0.243,0.019,0.241,0.02,0.633-0.167l0.431-0.205l0.411,0.862l-0.432,0.207C483.441,243.446,483.257,243.504,483.006,243.504z
							"/>
					</g>
					<path fill-rule="evenodd" clip-rule="evenodd" fill="#231212" d="M477.055,237.696c0-0.368-0.301-0.668-0.67-0.668
						c-0.371,0-0.672,0.301-0.672,0.668c0,0.374,0.301,0.67,0.672,0.67C476.754,238.367,477.055,238.07,477.055,237.696z"/>
					<path fill-rule="evenodd" clip-rule="evenodd" fill="#632525" d="M476.547,235.526c0.389,0.26,0.782,0.512,1.154,0.798
						c0.151,0.115,0.234,0.302,0.127,0.49c-0.089,0.15-0.331,0.246-0.49,0.126c-0.369-0.283-0.763-0.538-1.152-0.795
						C475.8,235.891,476.159,235.267,476.547,235.526z"/>
				</g>
				<g opacity="0.7">
					<path fill-rule="evenodd" clip-rule="evenodd" fill="#C9976F" d="M474.097,236.808c0.337-0.686,0.976-3.123,2.33-4.317
						c0,0,1.084,0.277,2.264,1.057c-0.515,0.79,8.634,6.25,6.533,8.468c-0.153,0.158-8.05-5.989-8.147-5.808
						c-1.182,2.236-1.42,3.844-1.509,7.335c-0.123,4.77,5.219,3.717,5.219,3.717l0.478,1.041l3.252-0.873l0.464,1.419l-3.997,1.101
						c-0.001,0-1.737,0.374-3.488,0.711l0.35-2.445c0,0-2.783,0.494-3.964-1.234c-1.176-1.733-1.125-4.82-0.564-6.71
						c0,0-1.408-0.595-1.467-1.39C471.768,237.804,473.758,237.499,474.097,236.808z"/>
				</g>
				<g>
					<path fill-rule="evenodd" clip-rule="evenodd" fill="#AD752A" d="M480.262,261.095
						C480.262,261.095,480.265,261.095,480.262,261.095l-0.012,0.008C480.253,261.1,480.256,261.097,480.262,261.095z"/>
				</g>
				<path fill-rule="evenodd" clip-rule="evenodd" fill="#A87756" d="M472.521,243.648c0.753,0.224,1.508,0.431,2.276,0.159
					c0.438-0.153,0.622,0.541,0.19,0.693c-0.887,0.313-1.786,0.1-2.659-0.159C471.888,244.209,472.077,243.519,472.521,243.648z"/>
			</g>
			<path fill-rule="evenodd" clip-rule="evenodd" fill="#13658E" d="M474.27,257.254c0,0,0.506-0.88,2.681-1.986
				c2.172-1.105,2.457-1.275,2.457-1.275s0.024-0.739,1.029-2.142c0.299-0.42,1.745-0.901,3.051-1.192
				c1.567-0.352,2.645,0.323,2.645,0.323c0.827-0.176,0.093-0.666-0.854-0.957c-2.274-0.694-8.427,1.477-8.808,1.653L474.27,257.254
				z"/>
			
				<path fill-rule="evenodd" clip-rule="evenodd" fill="#47595F" stroke="#334144" stroke-width="0.8023" stroke-miterlimit="10" d="
				M485.863,342.221l-10.371,0.499L485.863,342.221z"/>
			
				<path fill-rule="evenodd" clip-rule="evenodd" fill="#B57518" stroke="#915813" stroke-width="0.8022" stroke-linejoin="round" stroke-miterlimit="10" d="
				M473.973,258.658c0.628-2.499,0.91-5.466,2.684-7.288c0,0,2.796-0.801,4.786-1.405c3.881-1.177,5.633,0.628,6.42,2.491
				c0.094,0.212,0.18,0.445,0.247,0.682c0.398,1.275,0.4,2.4,0.4,2.4c0.169,0.474-0.082,12.531-0.36,21.577v0.476
				c0,0,0.054,0.048,0,0.128c-0.071,2.559-0.2,6.226-0.342,8.968h0.018c-0.046,0.726-0.091,1.422-0.138,2.086
				c-1.151,16.507-3.156,24.843-2.332,33.554c0.824,8.704,0.396,22.352,0.396,22.352l-10.021,0.015
				c-0.253-1.145-2.998-17.319-3.01-28.664l-0.436-21.162c-0.179-3.087,0.495-27.998,0.852-30.383L473.973,258.658z"/>
		</g>
		<g>
			<path fill="#EFC49B" d="M457.528,274.036h-2.728c0-0.916-0.743-1.66-1.657-1.66s-1.659,0.744-1.659,1.66h-2.727
				c0-2.419,1.967-4.387,4.386-4.387C455.562,269.648,457.528,271.617,457.528,274.036z"/>
		</g>
		<path fill-rule="evenodd" clip-rule="evenodd" fill="#915813" d="M472.285,294.866c-0.179-3.087,0.495-27.998,0.852-30.383
			l0.115-0.759c3.178-0.854,6.998,1.166,6.998,1.166s-3.323,19.29-2.073,47.718c1.142,25.991,2.062,31.668,2.211,32.452
			l-4.657-0.822c-0.253-1.142-2.998-16.864-3.01-28.209L472.285,294.866z"/>
		<path fill-rule="evenodd" clip-rule="evenodd" fill="#915813" d="M477.42,251.171l1.952-0.467l-0.342,3.467l-4.317,4.543
			c0,0-0.682-0.51-0.74-0.679c-0.057-0.173,1.195-2.443,1.137-2.672c-0.057-0.227,0.573-2.788,0.966-3.239
			C476.471,251.679,477.42,251.171,477.42,251.171z"/>
		
			<path fill-rule="evenodd" clip-rule="evenodd" fill="#ADCDD8" stroke="#67767A" stroke-width="0.8022" stroke-linejoin="round" stroke-miterlimit="10" d="
			M475.234,259.683c0,0,1.82-6.109,6.161-7.574c5.896-1.993,6.479,4.05,5.53,14.958c-0.948,10.909-1.095,13.292-1.095,13.292
			l-10.597-0.135V259.683z"/>
		<path opacity="0.4" fill-rule="evenodd" clip-rule="evenodd" fill="#4D5E63" d="M475.234,263.518
			c2.591,0.09,5.016,1.372,5.016,1.372s-0.896,5.896-1.585,14.891l-2.979,0.212L475.234,263.518z"/>
		
			<path fill-rule="evenodd" clip-rule="evenodd" fill="#ADCDD8" stroke="#67767A" stroke-width="0.8022" stroke-linejoin="round" stroke-miterlimit="10" d="
			M483.972,254.605c-1.818-3.069-5.756-0.227-5.756-0.227c-2.723,1.917-6.486,8.596-10.169,11.11
			c-6.359,4.341-11.554,4.594-11.554,4.594l0.816,4.978c5.907,0.909,10.733,0.454,14.146-1.109
			c7.166-3.277,9.864-10.059,9.864-10.059L483.972,254.605z"/>
		<path fill-rule="evenodd" clip-rule="evenodd" fill="#A04D24" d="M474.371,231.277c2.927,1.59,7.519,3,4.242,0.591
			c-3.275-2.412-8.048-4.797-8.729-3.889c-0.116,0.156-0.567,1.082-0.567,1.082S471.444,229.687,474.371,231.277z"/>
		
			<path fill-rule="evenodd" clip-rule="evenodd" fill="#CE6824" stroke="#A04D24" stroke-width="0.8022" stroke-linejoin="round" stroke-miterlimit="10" d="
			M473.682,230.248c1.306-2.115,3.397-3.75,5.997-4.417c5.322-1.364,10.737,1.846,12.1,7.167c0.919,3.583-0.241,7.206-2.716,9.609
			C486.221,239.681,481.396,234.487,473.682,230.248z"/>
		<path opacity="0.4" fill-rule="evenodd" clip-rule="evenodd" fill="#4D5E63" d="M456.931,272.178
			c11.624,0.946,22.184-5.928,23.769-7.013c-0.833,1.531-2.55,4.175-5.408,6.433c-2.678,1.393-5.913,2.672-8.918,3.72
			c-2.621,0.333-5.663,0.266-9.063-0.259l-0.472-2.886C456.868,272.176,456.898,272.178,456.931,272.178z"/>
		<path opacity="0.3" fill-rule="evenodd" clip-rule="evenodd" fill="#A04D24" d="M479.679,225.831
			c3.085-0.792,6.203-0.039,8.544,1.763c-2.916,0.501-6.152,2.435-8.19,6.561c-0.025,0.051-0.051,0.097-0.079,0.145
			c-1.837-1.379-3.92-2.76-6.271-4.053C474.987,228.132,477.079,226.497,479.679,225.831z"/>
	</g>
</g>
</svg>
